<mxfile host="app.diagrams.net" modified="2022-05-10T16:42:08.492Z" agent="5.0 (Windows NT 10.0; Win64; x64) AppleWebKit/537.36 (KHTML, like Gecko) Chrome/101.0.4951.54 Safari/537.36" etag="_L_pZw3MyI2Sk7xYHAMB" version="18.0.2" type="github">
  <diagram id="FE8oC3YfjSzxdvzyx-80" name="Page-1">
    <mxGraphModel dx="1038" dy="571" grid="1" gridSize="10" guides="1" tooltips="1" connect="1" arrows="1" fold="1" page="1" pageScale="1" pageWidth="850" pageHeight="1100" math="0" shadow="0">
      <root>
        <mxCell id="0" />
        <mxCell id="1" parent="0" />
        <mxCell id="pl8ck5TL4iv6hB_9ZSye-1" value="" style="shape=image;verticalLabelPosition=bottom;labelBackgroundColor=default;verticalAlign=top;aspect=fixed;imageAspect=0;image=data:image/png,iVBORw0KGgoAAAANSUhEUgAAAzYAAAFLCAYAAAAEbBl3AAAAAXNSR0IArs4c6QAAAARnQU1BAACxjwv8YQUAAAAJcEhZcwAAFxEAABcRAcom8z8AAP+lSURBVHhe7L1ncBRZujb4RexG7PzYjZ34IjZ2Yv/cG7GxsRN379f0zDQ9baYdzMydO/fe6Wl6QAaBhAAhjIQMTnjvkfDeO+GNMGqMEEjCGyFAeElIQshBS03TDXQ3fTafk3lKp06drMqsyjKSzhPxBFJlVlY6Fe+T7/s+739TUIhEVFWRX+zde6Dv8uWr00QuXrxiSM+ePX9lrKqgoKCgoKCgoKCgoGCOo0ePRq9fv3n84kVLv5o9e97p7OxFt0eNHNMCZmWNfxkdHUtkTEwc+MOIEaObp06dcX7y5Gm5Y8dO+Q9jkx5obHzxq02btkOwHF4wP+fh6NFjv01M7E+3M3x4BpkwYbKUSUmDSe/efX4ePTrr4bSpM5ZERUX9s7FJF5g4WrduYy72nyfek5WV9ZGxqoKCgoKCgoKCgoJCRwAExu7d+6ctWrSkdMyYcd/FxcWToUNTqIhYvXod2bx5G9m+fRe5cP6Kiy1fPyfPv/nOxdaWb8mzp9+QqsoaunzP7n1kw/pNJCtrHBk4YNALTaiMa2lp+eXBg4dGL1m8/ML48ZNe4HOwfNnSFXR9vO9xbQPdji82NjwlhafO0PcmJw/5IS0tc1N8fPwvcCy7du3NgzAC58/LpvvPE+8ZOWIUFUcjRoyqGT9+4hztvb80ToeCgoKCgoKCgoKCQnvC+fMXExYtXHoPIgYCA0E/xAVEAy8ivn72DXnx4iV59eoH8tNPb4gZfv6ZkB9++JF8//0r+h72/vv3KsnMGbNpJgaCAoKnuOicx+eYEaIJ2wVfatuGkBLXgfAaNiz164EDB/2Mzyq/dddjHZH4fOwHhM6AAUk/jhw5+tywYcPeNU6PgoKCgoKCgoKCgkIko7Gx5e0Vy1c1QNBAEEB4yAJ/RggLPjvD89vn31Gx8dOPPxnyRsebNz+T1tYXrm3MmjWXZlj47drhd9+9MrasAyJLXOfw4WMkI30kqamqJw1PrIkmRoicI4e/IulpGS8zM0ftVxkcBQUFBQUFBQUFhSChpOTCR5s3b5+6YF7OSb5nBP0p6H1Bzwl+nzRp6gE02s+fv2iAGKDfuHGr95jRWW+2bdtJHtc2kiePm6WBvj+E0EHWhuFHTezgdZSnQURZzdDI+PWz58ZW2wBRxa+zeNEysmvHvoCPCWVxAwcmf5+cPCTROG2WgFK7bdt2DBg2LL2L8ZKCgoKCgoKCgoJC5wZEzMaNm9eh72XUqKxv0DCPxnr0vaCUi+8ZYf0pyIiw11ijfUJC4pu0tMy6jIwRI27evNdl5szZP505fZbUVDXQzIaTwgZEyRqPlq+/pZmQhQuXSNe3QzEr9Pr1j65lT5tbIUZI+Y17pLmxxe19/hC9PjNnznkxdGjqVuOSuEETMf+8Zcv2zViHN09AqR16e9jvEJzo4/FlpKCgoKCgoKCgoKDQYXDi2In4des2nZkwYcr3EDEo34JIgWhB1kMMvsWyMGQ1xHVAvB/Col9C4k/InNQ+0kUN/m1uapW+x1+it4ZlbX7WfsA+QYih5E22vh2ix4YHfmfLzhZfJOPGTqTHxL8nUO7auefH/v2TzsOYANcIgmbNmg0VEJq4PseOFUjfx4hzjz4eZqTADAsgdFRmR0FBQUFBQUFBocPgypXr/7ly+errmZkjqehAIzsCYVmQTPtZXr6mJV5mQLAPxzLZ+48c+YpMnDCFihpkbJqaAs9syMgECLI3+B0CoKDA//4aRvTV8HilnQu2bJFRhlZX0+j2Hie4ffuOZ717x5WdPl3y1+wFC19DpMiEJiPEnZnQZIYF2EZqavrPgwYNaZ0yZdo6mWW1goKCgoKCgoKCQsSDOpItWvoEYgZBbllZuUcQDKJxHwE9sh9WgcZ93pWMEdbHhw7mU2FTX+d/v4svQtjw+zB8eDq5UXbbYz27fC0Imxfffk9fb2xoJoMHD6NlaE6X1jGmpg7/blBS8s8oq5Mt54njhgjFdcN5wPmAU9w3nJkC4+3ye9RSe/DgoW9SUoY3oGTQuEUUFBQUFBQUFBQUIhcQNEsWL2uCoEFvjNncFjzxZ5kPf/CdkS1hxOckJSWTyge1NFuDnhR+uZNELwwyS+z3IUNSqOjg1/GH/PmAzmMZkdOFxWTSxKm6YLPphmaVdXWNZN+eA6Sqsla63IwQOchcMZtsCB1kmnB9xXWvXL5OSwYx92fkyJHzWPmbgoKCgoKCgoKCQsSgufn5r9et3VjNBI2ZQxib2QJxgKf8sDlGEMwGYIL4HcGyt5I0vrEePHDgMFmyeLke/Acpq8EI0cGyKSCEzc3rd9zW8Ye8eQDOEXs9e8FCTXTkBVXYeNK+MMR1w3VhgNjBdRRL1mC/jSxO//4DX48YMXqjsp5WUFBQUFBQUFCICFw4d2kqLJZRcubN8hji5VtNEJj1yMiIwFhWpfbmzRu39dC7s3fPQRr8O+EaZkYcA8BnJDIzR5IL565qP/ufJULmgz9OZvWM8wk3tPt3qoIobPTrUfPoCc0OeS63RzjFIWvDjgdlhvidF68gsmwwj0hKGvwyLW3EIpXBUVBQUFBQUFBQCBuKis5uhe0yyoz4oNVJQgzJwK8zdeoMUniqiDyudtY1TCTbF17YzJ0zn+QdOEqaAhBUGPbJwPfvwLqalaEFS9h8LXnNCULAomSP759CJoo/dyAEDkQxStSGDk1LNm4tBQUFBQUFBQUFhdDg3NlLq2Hx62uyvxOU9ePwy1ECd/tm8JrrGRGoA3xwvnbNBrJpw9aASuCQmWJAiR57PTt7kasMDWwIoilCsIhSNByTL4EDJ7a5c+f/NHjwkIbU1Iz/NG4zBQUFBQUFBQUFheABE/4xrDEUogZEaZYIfjmGRSKb0Vj/zO11p8kEFjI37LX8o8fJ7FnzApoxwwQTgFIuvIYytCSuDA0MtnALJmUCB31FrOyOEQ56Y8dOeD18eMZ1ZROtoKCgoKCgoKAQMKqqyC/27j3QNysr6yPjJQq8Pnv23Je+hjc6SQTFItgyiCtkbCBsnB7IKZIJGz6rcvPmXZKSkkaFh7/9PcwoAdtnr50/d5kO5WSipr0LG0arAqfw1BmSnDzkh8zMUfuVwYCCgoKCgoKCgoIltLS0/FITMekrV64+O3bshBZMnkcWZPjwDILMDH4GMVUeTE1NcwtCQ0FmKczAXueFTSAN/FbIhA1mzrS93kr69etPMyv+lKPxxgG8jfXGDVvIujUb3YRNXW2T23vbM2UCBwJPLFGDy97AgcnfZ2RkzDRuVwUFBQUFBQUFBYU2NDa++NWOHXuy581dUAchAwEDG15MjjebPI9l6emZZMuWXOnyYJKJCgb2eqW2r2vXridNjV+7rR8MMjtj0ZVtxvRZJP/ICaMczZ64wmBLBj6oHz9uEiksKHETNsE2RwgH20wGjJOgAdcahgpsHRgM4N5MSkp+lpqa+qVxCysoKCgoKCgoKHRmXLt244/r1m28ATEDRzPMgDETMjIiwMRTdNmyYBKWwQxwDqOvC4M4n3I/B4P8PvD2xTtzd5NlS1dS8dHYYK/PB1kaBuaGhv4aZIH0gaNtwgYU3+8IufMY7HNoRmoT/eoH40zogJDkz/Pt8ntk8qRpPwwblloxbNiwd41bWkFBQUFBQUFBoTPh/PmLCYsWLX2Csi2IE1HMIHOAIBvBJJ6YgygVYsE2I0QN3s+/FgryAsCVMTH27cKFK27rBosYKMrAl42VXi0jmRkjqPCoq2l0e48vsiwQ+kzYa5cvlZLRo7I8RA3Y3OTsnB7aL8Rd43AJG0YIGX7QJwDBw88/unD+CjKHr9PTR3zVs2fPXxm3uIKCgoKCgoKCQkfGvXuVH69cvroK/TIQJSjrYQEi+hwQoEMomAEChxc3mFkDm2f2e6iIMi0G9Nvwy5YsWU6aGoJfivaCm6mD88Jeb2xodsuw2BEfyD4ByAax13bt3OPKAIlsspkR8kWcVzbL5kmdVVEW3F4mEEIb55gBpWqi0Ea2cciQYd+pAZ8KCgoKCgoKCh0YLS0t/7xt284LyNBgwjsvaMTp8L7g3iyvz415cL9Kf7ovZHSCRTyxZ2CigmUXis6ctV0C5g95cYVzB2HIlrE+G4iPeovzZnAdGDDLhr0+c8Zs17ZEOj3LhgmFhnobxgchuuYg3NJ44Q0hyNttswGfSUnJLRkZIxKM219BQUFBQUFBQaG9Aw5nhw7lb8vMHPlm4cIlbiVneAoulvlYBV8KdOzYSTchEaryJZktMuOjysfav22ZhNJb1SR7w2kyZOo+0jcrlwycuJv+nn+63LWOXfJCBOAD7LwDR8j8eTlUfFg1EeDn8+DasNeZy5ooakC7pW6+iOsKcXP8eCE5cOCQNctqCLoQihvsHzKLokU0b7YAdzxNXKr+GwUFBQUFBQWFjoArV64NR3M1TAEw6JAFfQgA+bIeHhA6KPFBxgDrIdjG76IAgnOVvj0xYA9+WRIj67PhhQ0ro3ra3EKeGnNslmwpJl17LSZdeuRIOWr+YVJd499MGB58Jqumuh62xK5yNCsZJH4wJ8v+oEE+NSXdQ9DwdPqcQ7ChbwX3DWyznwqmDIx4ndL1WuiuPYhzxJ8zANdA9d8oKCgoKCgoKHQQGNbNN9BHA0tmFuQho4An2yIgDLCM71eQEUKHvV+0OF6+fCV17+JfCwWxP2IpGk9kZ5iAebfPZvKHpAPkkyH55KNBB8l7CdvJ218uosv+LWkNeVBp32WMn6ejl6O1LcNATWbRbGXmDBObyESw13D9Jk2c5iFm9G02B2UIKQQDBBXuH2Rs9JlAbcshZvBak5HNCVWGzowwGOCFOq4DjB34a4H+m8GDh75Q828UFBQUFBQUFNoJWJYGZWesjwaiRTQEQG/Cy+9f0afzLPizQgSRrALI9V4tgJw8eTp9Oi6uH2yypnL+tXt3H5Itm7eR7PWnqWh5+x+LycfJh8kfM0o8+GnKCfK7qJV0PZSn8duxQj6gBvhyqD27DpCFOUtcQsSXCGGlVbwj2u7d+6TGAXoJWnAyJCzjERcXT40QUErXUP+Mihz09OB3alrQrGfIWJYMRH8T+znU1PtvuPI0TXTy1wN/D6tWrflxyJBhtYmJQz42/mQUFBQUFBQUFBQiCbIsDZ9hYUAgzveC+ENW/oNAkr1WVVlLiovPu60XKrKyOD7APnG61FV+ZiZqGLsNLyS/0cQP1t2eZ0+c8bNsAIhFtuz2rXtk8OBhLjEiZj54QjAy8CVtq1atJdu37nQTNTVVDablYU6Q9ffgXkLmBiKK//wnj42yPWMf6jmjgVAMRvVGZGlQOsnEN4AySr48DU5+I0eO/j4zc9T++Pj4Xxp/QgoKCgoKCgoKCuGGmKXBlHYxk6DP/rCXnTEjgkQ8DYegEMuQdHERvKBbRr7RHo3sCPoz5uaT3/RcSsvPZGJG5IcD9lJh039SHkmef40ydVEpyd5xl6zcf9/FdXkPSfG1Jy5eLG8mNY1tts98tgWlWhA2ZdfKqSCoqzZv9OeNA3hxNGvmHA9HNJewCBJhY41/Z82aSwpPnaGCjH02sjW8qHpS515iF0hZmpMGD7jXZeVp/DqwOx80aMg3Q4emJRt/SgoKCgoKCgoKCuEAHM+OHM4/zbI0EBzitHYnBQ1P2rjNAnChN4fPnISaFdVPyZytt3WxMnCfz2wNI0rSIGy6JeVKl9vlgDlXqDDqOeYoSZh6hgzLvkqW7CgnK/e1iaQdx6tcAumSJpCuP9QEw/PXblbP48dPcvXpMAZzRg8yHixjBNvk7dt3kcb6Z67PbuCyTuhbgXOa673Gv/4wWAYPEGlu7mmaIOeFMFwC586Z/zolJe1OTEzMr40/LQUFBQUFBQUFhVChufn5r9euWd88deoMmqVB2RnfXxAsQcOT9i9woqb02g235aHmlqMV5POx590ExmcpBW6/eyOMBJC5kS0LJwfOPkeFEePEtbfcskhgXlG1WyYJlJ0jX0RJHGy08TOyNcjaQEjpwqbNthr9VLj3YBgRqHlAsA0eIPjFDCZEOW8ugAcDw4envRg8OHWU8SemoKCgoKCgoKAQbJSX309E6RkGbSI44y1v9X6C4AoakeHM0IAI4vvOuCwVBd3TzkhfF4n1EEBbXb89EqIPWSSeyG7xAmlN3kNS+qCFntODBbfIgLSZ5MoNPVvDSuAgpJEl5Gci+UuUmkG0BNPggdFX9gYibcniZa8GDx56XfXeKCgoKCgoKCgEEVVV5BfHjxfuGDliFH3CjKfrzG5YdIDqDETZWdbKm9Jg2J3Fktfc+fHgI+T9hB3SZYqe7Dm+yEMkLd1zz00kIYPGZ5DAuw/bStkullaFxOCBp6xcU5a9GTRoSGtqauqXxp+egoKCgoKCgoKCU4DrWe72nZUYmoip6miExsNnPIHGoEo+eOu41MugGhpbaBP/v488Jw2CGZF9eb/fDhoUy5bzfCdmDc3Y9Jt2hvxl5Fn35enczxr/fdRZEjvtkiugz1x+k8RNv+K2jqJ1vhdvra+JGTzAXMDz3rBHsXQTDwbwoIAtRzZq/PhJL1JShq83/gQVFBQUFBQUFBQCRUtLyz+vXbuxZdnSFbRcBna2AKyGeRvbds1m99/NytsKLtWR2KmXpIEvz+kbb5PeWTtpIPxO77VeS8zQx4H1PktYRRvUkVWwkglC+VvBxcf0WvBgmbMLZfVkek4umbt0DzleUkVOXqh1y2iA2E+Io/SlN6hAAsU+oY7OjwfbM3jAdcL5DbS3hxpgcGWceEggWqFv25r7Y3Ly0Ds9e/b8lfHnqKCgoKCgoKCg4A8aG1vezl6w8DX6aRBoQdTgSXOHKjvjRM2jqsfcsjZb4Zt3G8mIZWXSgJfn4AXXqKDAe9Bo/mHcMhoMw/oZzei8wEH5GTI1WA7mnSijDmDsc1E6Zda7w3PS+juk4ZkuNoG2vo1WMnvWPJJ34CiprzOfYQOiHIqBfz06OpZUPHyiCaNKylMXa+h+7Tv1yEMkQYyxLBKIcyHb30gjBIvsdRmZkUCbiUDgwh7Xi5V0AmwuEiOMEoYOGdashnoqKCgoKCgoKPiJygfVf5sxfdYPRw5/RQMslJzBHABPmvnAq72Tf/Je75qLoouLmsdf094NX2Vn/5hwkdons+0wYjZKzIhtLvEColGd/qsFyb/vu4V8Gr+S7M+/5rI0flzdQBoxWd/YhsxtTeRfR50ja488Iq9+aJtjg0n9o0dlkeIzF30O1MS1ZeBfh7Bh+wV6G/JphehL4nteQBwfhNHqgw/Jpq+qKdOXllFx1H9mMbWstiLw/GH39CIqMGXLREKU4rpBrD5tbpEen7+kJhycuIQzHJ8NRWnaiBGjXqSkpEw1/jwVFBQUFBQUFBSsAM5nU6ZMfwPLXQRWKJFhgxM7JLnm7fonTWTrllyy8cA1KlhkQS5PDNGEAHLbnkEIivrHzWTOyhMkblSbwOnaez35c/op+v6Za0pIcdEFcuXidU3UtE3Zx8R9Jkj4+Tje2HPiJWq9jPdUVdSSgQOTSa0mlPh9kpEf0Nn2equHsNEzSu7vdYq8uEKDPV67XX7P5YA2dGgKLYVs0kQfzs3Ne00eIknMIuGc8VkkkL+m3VJPkQ8Sd7mdQzNCAOHaQaiyfQ5U6InkszfIjPKuaeCyZSu/GTo0davxZ6qgoKCgoKCgoOANt2/fHQKTAJTAIJhCUzPf2NwRSbM2EDeakLha3kgSpvm2XUaQjOBatj0QogTT/pkowNT82/caSb/pRW7b+UvmaTJ6/EwCt7nExP5k4cLF5EbZbSpy8H4+24J9s1LihX1buf4QWZizhDQ3+c4uoLSQBdPsteam0Aob3i2MCRsImbi4eNewTrwG22dfpXVWCHczmjn7x2LLBg9Yf86aAnqv3L3zkCxetFS67UDIZ29g0CE+UNixY8/3Q4YMPRwfH/8L409WQUFBQUFBQUFBBBM1ZWXlbsFUZyCyLsi+yIJannjiz7IiZhRFzZPaZtJQ30xmLdou3eaktbfo+zCjBaV/yFJgOGXFg2q3zA0jPt9KNilr6TnTbBLPNmHzxvVaU2NLSIUNPpsBvVzsdewDzgeyN/gdArHBof1gwzntGDzkldTS9+JaQYiK23SKfPZGdB48dOjoD0OHplxQ824UFBQUFBQUFCRAT01W1rhOKWrQH+OrjwV9Nui3gd2zbBtt9BQ1sMiGYNyzex91IpNt/9yNRrftoAwQAf1hTeiwQJ53a4NgWXO4ivbXyLbHiONCHwt7n4wyYQNRhVK2UAgb9JPwgJ04WwZhgzI0/IzsE/ajqcG3WLNCOwYPXeM2kC/H6/cI66caP36SK7MZDPLZG/zLL8O8GzimKXGjoKCgoKCgoMChufn5r2EUwHpqOgvhYDZgju8ZMCOWlrkNd/RG9F0wIVBX20QaG5ppmdmVy9dpAN/w7DvSa5KnZfSgBaW0+R8BLGscR1Zg4cIl5MgR3cBBFzattBSq5etvacALR7Ss1eUe2xOJ40QfCr+vjDJhc6f8Phk8eJjrWEAYEvDvc4p8jw+A39my6OgYsnr1OvozhBX2Q8xgBUJvBg8ghE33VHfnNGTLIHCzsxfRDJtsu06SZW9YiR4jHkIocaOgoKCgoKCgYOD8+YsJs2fPfTly5Bi3oKkjE834ZpkTntGTL5KjZ7xnO3jqGYUGQwg00ACcChMt+G3VglPMKgHySp5IP2/P6ba5NJgTxBzobt644/FZ6L1ggFsdZtpYcQ+DLTOOX7YtXtjcvnXPU9hY6Nfxh/w8F4Dv6YqJiaXZK/yM/hqUorFlTjJ7w2lXaRrjl8M3keFzj0vPI7JgSxYvJwf2H5Juz2kie4N74ocf4EzY9roSNwoKCgoKCgqdHi0tLb88cjj/NMqddu7Y4yr36ehcl/fQZ9nZnzOKyJRlhXSGS11ts3Q7MmJdJgKQuYGggbBBoA5Rg+Z8NoRRlilCuVvV46/JC1hrv/qB/PTjT/rMIMFiG5kbvtkeogmvI4uQtSCf/PsId4MCkfgcuIaxsjombGAzzD4DTm3jxk50EzZOZkp44jh5sNfhhta7dx+aucLvsMJGmR9bHiwii8P/LhuYiqzNijXbyaaNW93WDTZxP4i260rcKCgoKCgoKHRaoPRs7Zr1zVOnznA1rCMA5wOojkarGY2RSy6T1IzxrmC+yWKWAkE/ew+yClWV1S6LYggGBO/8bBI4nMk+H0E0v11KQdjAxY0122O7/LLMjJHkxKkrZPKaG9Lt84ydeol8da7GJWyQDWDbKTpz3kPY8J/jJI1EFgVKrtjrCNhRxoef2flFzxJbHiqaXathM4+SjRu3SN8TTOI+4jN6oBI3CgoKCgoKCp0O9+5Vfpy9YOHrzZvb5nHgZ/73jkT0xsieuItkPShoCC8sKKFBNGbQyLYpIxr8mQBoePKUzJ+XTY4dK6AOX8jWoCdGfI/ZbBqIMLd1jUwJMw84c/qsIQPc+1HOFJaQSROnuvaj8HwVSZ5/VfoZPDEQs6bxezdhc2D/Ee0YclzbQraELXOSyGbxQDaCLcP5w3nEz5hfw84tWx5KTtt0x+O8/VtmMdmSmyddP9hEORqyN2JZWlLS4JtK3CgoKCgoKCh0eMD5bObM2T+JDc8dUdigzArlVii7EgNSnn8fd4Fsya+k79m0aRtZt2YTF8hbL72CLTPeh2xNWdktmmlA07dsFgkjel1kts3ILJm6ryFzUfOEigBsmw9sZ8yYTfKPnDDESIPLPQwuXlbsoZfue+iyh96zaz+dg6NvSx8Yyj7HSYrGAbz7F0wD4CSHnzG7BvvhlCOaHdJBmc9fSx3oUucUSt8TKvJZQLDoTMnr5OTBxZq4UXNuFBQUFDoI/rXH/F93+SJn8ltfZO9/q0d2YZceOfn67wv+YqyioNC5gBk148dNfAObWD4QAg8cOEyWLV3h8Xp7JcqrUGYlBqEic3Y/IJU1uoXx+XOXXaVXECdWS9BAvgwNGQU24BRlYuiVkb2Hcd+pR9J9Qy+QbH0QfToAn2FBP8qQwcNI5YNauh/iEEsIFthVyz6LJwQQhND6tZs0kbfRdVzBEjawdubBi0B+UCyEJvYjWH0+ZoRwQNkfRGTOTvmcI5Sqyd4bKmIf+bK0o0ePfzdgwMAjxp++goKCgkI7xlt/zx7T5YvsV7y5DU9N7Gzo8nmOytQrdB6wwZuwHOYDIkaIHfTbyJa1J96810RGLCuTBp88UxaVkVuVra7ysMqKatqbUn7jnm1RA7IyKbwXDl4YrolMBIJh8Ym6jIMXXPPYR2SaRPcyRjbbBCYD7LXdu/Zq4nSlaz/MBIDVc9Qz6zhZuvZQm7CpbZJuL1DyJggAzY4YyzAAEz1gzU26cMRx8e8NNiEWmLEBSgpxPWQZQGlfVIgJAwle3GzatPXr/v0HLTa+AhQUFBQU2iGM7AwVMO/22Uz+kHSAfDIkn85dw/Dot3ss0sVNj+yqf+k591fG2xQUOi7Ky+8nQtSg/p4PhHg+eFBF9u0NT6+AE7SajcD8mGOXGg3LXD0IhABApkbvq2kr37JDViaFbA1K0HCuERCLQxXNaMtIQCP6UADeFnnMmLGk+MwFuh9WGuytZrXGrSwjN8trqdWybDuBEteCB7sut8vv0QGl+JnNr7HjUBcoIUiZqOEzY7B5lp0nzETi3x8OQkzz4mbmzNn1UVGxCcZXgYKCgoJCOwJKzSBaMFvt4+TD0v97Pk05QX4XtZJlb/KNtyoodEygp2bKlOlvzKajw10Lwx5ly9oL84qqLfWPrD3yiHz7/Y9uYgOZgDWr1pNNG7b6LWpAWBDz2Ro8PYe1M9//4ovZO+RlThAg4rpwDgP41+Li+rrK0Bob9PI6X0QfD0reZL0jPP+WdY6s3nfXvO8nAMIxjgHnjL3OO/UxG21YaLPlwSIEDTJhbOYQZuzw1xHnQHa/wXyC3064yItdOPINGjS4PiYm5tfGV4KCgoKCQjtAl89z3taEDS0/MxM1jN2GF0L8/GyIG/UwS6FjghkFyHpqGJnLFoiMTc2jOrflkUxkOWQlXCLTl96gjl8QA3yZE6bor+P6SPwNmll/DbIKLFuDjMp3XJmYFSLrJAuYkVURBQV6PvhhmvfvVdL+GuwHBJod0wOw4dl3ZMYW3xkvmBp4OLYFSGZbDfBzdHjjAIhGO4ItEKI8EW5juuOYvIxw46H70vMjE6HhJjJfCQn9HigzAQUFBYX2gy5f5syCUEH5mez/G5EfDtirl6R9kb3f2IRCiKEMHoIIWDr7EjUiS0tvkosXLkuXeSPN+oSQEABmNsk8IRLOXG+iATOyNG5P3TURsmnDNrJq5ToaMAfSGA9BhIwNy9YgGOZLl+wQ2SfZscDdjV8PyQT+M4qLzrpsnv2Z88LKwS6WN0sHh4pEjw56dWTbsksjMUKB2SzsdfR84f5Fv5Mu2KzPFAo2H2vX+z/SD3mcl0jJ2og8eOBwa3x84g7j60FBQUFBIcLRNXbd+d/0XOozW8OIkjQIm99FrX76x8ySi5QZJYXdM0pyuqcXT2b8Y1rxmO6ZxZ/y/HPGWZXVDxDK4CGIaGlp+edFC5d8B6czWZDjyban0vVP7AWrfMYnFER/w+djz0v/qBnR3L3qwAPy/asfPbI0IGbT7NuT55rRgmwAStL4dewQQS5K2Fi2Bo5lfDmQXaYuKpUeE+bxsHUA3m3t8KGvXMfjT1aDb5DH77n5D8mf00957AdP7BP6mpg9tL9kJV8An+VKShpMnd5Yfw1oNxMVDCLTB0vttImrpOcF96jsfeHm6NFZD2NiYv5ufE0oKCgoKEQgPhlR+KvuGcUr8P/JhwP3UcEi/j9jxre/XETe7bNJuswutX0o1f4t5MkLJF0klSSLIgn7bxxKp4EyeAgiqqrIL7Zu3f4YZTyy4EZOXdjUPW4kubm7hGXW+LS5hezauVe6zAmiMdtKJgHN9g8efU1LmmSzY9AAz4saEI5m4npW2aQFuej/YNkavIb+GnE9O0SJncx5C1kSLEdGCICbGHvPoUP5rmPyxw6ZlYMxYfOo6jGJT0wmczb7HmyKzBgyTeI2rZL1CwFs2CgEDYQNfmbGDEEZEMpKzZqF170Q1zszYwS5cO4qSZzlab6A8xGMXqRAeb30xuv4+H43VEmagoKCQmTij+nFadr/Iy38/ymfDPnK7f8YM3ZPO0OD5w8H7H0lWx5mugkkjbmiSOqWXhQtiiTjtEQ0lMFDkHHsWEE+HNBkgY0v3im/rwXoRdrP/j0VP37sFP3XydI02OtOWntLeqPwZL0fyJTwk/h5NmgBMp60T5820yVqxFkvdomyrydPmql7F/pcZOv4Q29GAugBAfiyrU0bt9JeIX9L6tC0DzAxWH7rHhls9OyUXKomw7KvSveHJ/qd/HEG413R0NeC13j7cTb4NBjCBmIe/+LzMKAWhgVmRhsgRCMGuLK+rMLzVdJzEalZmwXzcx5GR0enGV8XCgoKCgoRABrIpxffkf1/0m249+oJxo8HH6EZm+7Dz/woW95BCNHnJpKQ3RJFkiiQ/jS85G3jVDsKZfAQZJw7dzkZ5VB42i0LamwR/SgmjdOebCW1tQ1k5849LlFzquCMsI49MrcuX2VnWI71fD0hR3kWrJBh68ycw3QR4H9pE/o9IIwQEIOydfylmfMWXmtq1kvRWHYFZMIG4o3fjlUyMGFx/twVMnpUFj1PjLuP3dc+/4LHPolE/5PZ/B0Z+Tk2rGwQpgEs64j+JXx+MIRNpfG38uB+Jb2GcGHDg4Ho6FgydGgK/Zld3w3rN5H+/QeSeXOz3c7LaMlMIGTc7JyDUBHfDb1793mssjYKCgoK4QfKtv6YXrJf/D9EZLe009LXeb4Ts4a8n7BDukzRk4aQdBdJmSWzeIGEDJookv5t+Pl/Ni6fMngIJtBXM2P6rB9QEiULaMzpHtjfvWs+7d4bIagQJMJeFr83N/nfd4HMCzIwspuCJzI5VoJHPGUvu3ablg/dv1NFg9FA+2pAZGvu3aug2Rp23E4S2RnZcS/de5+KAKmwqbdfVgd7YwZWRld05jwVgXwAD1ZXN1EjA1mpHE8ITqtZCxwHAxuYyotFCBp8dlBK0bwQGThkb9i+bN++iwxKGqzdS+Vu5+RiaZ30HCDrJttuuDl69NibvXrFRBtfHQoKCgoKIcYnkwp/gSZ+TdS8lP3/wdg9rehH9Gi803stLTWTrQNiHQTMb3+5qKH78NNrtKD8tds66dzPGrtnlKBcrUIjH9hXaXRbT9EaPxl8VPq6SGbw0OWLnHrjVlAww+ZNWx7Z66vRKTb/19fbd9RCwzxtnL9+S7rcKtEcb2UiPnptUPKEfXftv5d5MVWVtVTUtAWkDbQ3RrauVcIsABkb9NXYF5PWKTsfEBWwr+Z7iJiw8adfiJW2ARA5eO1w3ldk9qx5bgE8O3cQirhW6GcS900kBGrxtScen8kTWSIGJmyWLV1BmPkFEzYg/z5/yJdJUvFtOSupc8iQYR7CBmJy+kZPl75IzdocyjtaFx0dm2t8dSgoKCgohBDd04v+ov0f4VtEpJ/d8Pv+299664vsVgTDcEhDMzovcFB+hkwNDZZpJkC3FUZWwUomCFkL7A/dMQn+mF78nlvGQluXz2iA2E9tW7xAAt36hDo6P021Z/CAa6VMBLygpOj8UggLv7MGLLij4sB+FgOCasyYLFqK5nrdRsCIsiurWYAdx6uM93HbR7O8IWz4wBXnAz0TSUnJtNGbBaJOzEJBtocfIBkswlJZdl4yl9906yViwgaOXfz7rZAXFuy1/XsPuRks8ISrHFvPanYNIoh3deMJG27mjMaEFc4rzi9+Zj02YKBZNsbb5ffJ/XtcRoner763PWRIioewwTmHgJFdJ2QVZdsJJ/F3ER0d840qR1NQUFAIHWCprP2/kC/+PyGye0bJeQgK4236bJQeOeeZeAHRqE7/1YLk3/fdQjMAslkpuhiR9+64URNBfImV00CGyk0gafxTRkmCp0iiYswlkOi5kO1vhBECU/a6SGbw8FaP7Bbj1CiIuH+/8s8QNRjCJwtigk3U7MfH9yN5B49Il/siyq1kvSQi0bdhZitMszYuIdVKzwXEFnokECCjX4IFof72oPCkpW1l5SQra1xQStBEwlJZdk4Ol9S61mnL2NgvAYRAAviBn9u37iTLlq50C+B5ivNkrNpwQ8DK+qEw0BRgPT7oZ0HpF35GyR/7XH+Em5McP34SKSwocTsXbJ/MDB/gciduJ9yMjY2riYqKCtp/YgoKCgoKOj4ZXvhL9G74KjvTltfDPtl4mwfooEfOVrhr7/Xks9STdJvdhxdmGatJIXNb86C2f9hPiBDjbREJaoctiCTaCyOKJE4ggdprvgWeH+yeXkQ+SNwlXSYSAsi4fueNw1Hg0dLS8sv583O+Z0+2nSYaufmhljIOH55OcnIWS5d5IzIRsnktIuG0ZRYYXr50jZYTwWqa9QYtX76K9ryg+RyiC30SzN0LNr3iNuwSJWy1NfW09M5JFzRv9GYkwETCkiXLya4d+/zqsUFJG8Cm/uvOXxsp+QBeZwMdSCpuA0TWwurgVHFCP+bXAC+MOTYoQ0M5Gn6GGGWf78/xOclVK9dS0cefEyZscPyy64RslbgdN3IZx0DMLOwwKirmpcrYKCgoKAQXsDCmgkX4f0EkhmhCABlv8wpkVrqnnykSttHia34MPx/HK7X9xX4bb+vQQBZNFEmiQDLOmZtI4q9pt9RTNIMG1zP2mhldZYNf5swydkGBR97BI4eZJW4wiKfo/MBEnshUjBkznqSkpEqXmxFZF7Mn2zwRIJrNRmF9NVculZLa2ra+C5SYocSI/Q4is4L+GpgFIGDnl9klytyaG1uD3lcjo5mRAGtQnzx5OjlxrJC6tInv9UXWvI/rjd8h3lCGhnk/fABPe5MsZITQ/wRBKttfnhC2TLSyrNFLw8Kat3vmB3QGas8dKI8dO+nRe8T3NSFzJTtWsz4jJ63RrbO1HllM42tEQUFBQcFhwF5Y++5HECz9P4Fjod2p/yhTk2wHtNQ7iX2zWOJVGCyb5I4ElkWzavCAssHPUgoSjbcrMNy7V/mx07NTeLK+CwxPFJdB1EyZMp2kpaXbspbed+qR9Ik2T5Qr+TvNXjRCABEgT5o4za8SJlnQ2VD/lJw4Uejxeigoa9bH+YI4SE1NJ1cvlVFrZNl7vfGlIWzYXBwIRDiiiSVXfG+NFUKY+rreIMRZXX0r3QfMtMF7H9c2kMTE/vRnlL2xffDn+Jwk7vekgclu56WBy2CZZddgeMFvx43PntOBqG29X8HN2qxcuXq+JmyU1aSCgoKCw6BlZxklOeL/AR4MMCtiNOx7bBcZB2MVn7CeTSpeYTWb1BkBEwCrBg9d4zZo176ogS7zUnbYKbFi+aoG1oPgNCFqjF5u8pNRnsQTGQv0lyAbgt9Lb9WS7E0lZMj0w6TvuL1k4OSD9Pf8M3focqtP8OEAhhI1/rN8kYkPmagBUaaXvWChdJlPctPoUQJVU8M/dQ88+LT7tB7N97IGdWQ+4uL6GvN5YIlsb9/YHBlmH41SM5TviU3yYl+NFUKgQqjK9psn+nPySurpfcfKH6nTnnGPIeOm74f943OaU4zsGDsvouCDwYXsGMXyO0bx3jW7lwPllcvXycSJkx/Hxva+GB8fr/6TUlBQUHAQCFS17/qQ9LEY8288RIkmQkrtbNty/w+OK71YDXc2gTeDBxDC5pOhx35wO6fa9Yv0fqaQoeh0ycyAXNC8kBc1gFiKhh4D9K+w35dsO0+6xqwiXXqukDJxqu+JubFTL5kGfb7oSxxcvHiVHNh/SPvZuktbG9veU/+kmUwYP5H+i98DLiHy0btkRjTfy85hzJC28ii7VtZs8j+zj0agzhsugIFmSiBYrVh5D1pQSs7d0D+Ln2VTV9vk2pdwGwgc1sQy7xinD3p1XwcZGvHY4B4nM05gfFLXxF0758QbvidgxoCHEflHj5PU1LSfUlKGN2RkjBhhfKUoKCgoKPgJlIZBUIjf+RLmO+k8Zggpz8/xQ4BQe2hLjm3FpXayQp0NosEDqP1e+m785oOy86nEoobGxhe/Gj9u4hsMDpQFMYEQjds8WDM5425N0KxYvtr1O7IzTMD8U/w28t+TDpL/dfBR8sukPPJ/9dtJ3uq1kvw2eh0unOfF1OjNJcsRNmsChOurCUSMNDU+I9dLnbDubZXsh/UgFucKQlA8l3/NLCR379bRQNuunTWuM8AcyW7euOsyXGA0MwywSzvDV08UXqaT//E+fL7T++IvIRSGaOen/MY9uj/IJonrmPVEWRla+jRQUeMSzc9JxcNHNPMlZneRvYFjYFJS8jNN4CQYXy8KCgoKChahZ03kJWECq7zNigkEUkGVXvLSl5GAGYw5NZbsof39jM4CZHGMHylwziTnsb7Tn8ddu/bmoRSMD1ICJUp/0F/BA3NFWlv0YYkgmuVnTJ/lKrtBqRkEzb9GrSb/e/Ih8t/STnvwfxl6nPw6dh15v/9e9wupEf0iwR9eqGdc9MyW3WBRXx9lQUePHicnT54SlvtHaZmRzexN4WX5pPs5m2/SQNuusIHNM9Da+oL+XnDiNJk0capLSNBtOuhGBnG2Lu+hJXvoXkOXkvsPqqlAZfsiy5CEmuvWbiSbNmx17ZOsTE+WtUH/jUzI62K3lUybNoNcPH/VL9tuSmF+VFVVLbl7R3cMlBHW6Nrf9Q9Dh6ZcUOVpCgoKCtbwx7TiMdp3us+yM6wXzHIjw6RA9tl+91Fif60eH1zDVDmVNZhdK/RkGat0PiBbk5k58g3rO3CCEDWsFIkBpWjs6T2Ip7vjx00ilQ8e04Dr4vVHrvIzM1HD+D+nnCT/I3qNywbPyiT64ND/p+D79+cZ4ki+3BYDdGYDMZ3fbOp/yaVq20MsxeGYuds8Z9gEo/wLwhaZGdlx8Pz7mDM0A8KXowXqcBcoYSKArJbe1+RuIMAIUwfZ8UDUieuCX2uihD5AmDFb26Y1BzqRTDg3a+fn2tUbbq/xhAsdE7IgPnfw4KHVaraNgoKCgjksZzQySnJD9SQezf2Sz8d8lYCyRHYyUt0yiv5uvE3BC7RzlSucOyoQO23WxulsDQIpmAOI+NbotQDhujZixCjy8N4jLWDWg9s5a8+4ys9kYkbk/zFgH+naZwuJHnfCtd1QsvrRYz/L0FrpzJoHD6okywLnlculfgsds0n3g+baL1FkYL8vWriUzsRhIgJk1z4YtGoukbn0Orl0rYbuj5MZJH+5YsUa10wbsyySmZOdLFsJsUHfM2YcKT5zQduuPXHD3+OY77RvX57+O2eCwYgHGvjbf/3qB/o9gNeQvUlJSatS4kZBQUHBHbQHRVZKJDAcPSi6AJEYCWgCzIlsit5DZM0e2q51dWeDca08jRo0AWms0nlQVUV+MXp01o/InohBij+UZWqA777TnbEY0XB8/twVtywAXM+sZGsYUZKG9bsN3EYdvKZvvE17a+AehexNJE5mDyYRgDrR+4Mn/x5/HBpxXmXry4jsD4ByNPaazOrZbhbIH+4/XUt6TfLsHxKZvb2cPHzo2dcSalY8rHbL2sjOkVnWhs0f4om/PWTN6OylzJHGufcvcwNC3MheZ0SpKQCBg/sAr+FBRv/+Ax+psjQFBQUFvSwL5VbSYNSdYXUN+1NGSYJknwhKyoxVAgY1K7BkD2192GhnhJkdeKebGXTs2Il5aAIWgxN/ySx+eWCeCb8OHKk2bdrq4bL1Wf+NVKhAsMiEjIwwEkDWRnYxGfEkG8IHhEUwxA9KkCB+gt+PEzpC1Bw5cpyUFJ+XLrdK9Gr0yPKcdIs+DqvniwW3bH4MOHBgsqsxPpTCBg58337/I1l+oNLjmER+Of4CnYsk204oCTMNlrUxMzWQDaSVZW1QGoa/S/w8c+Yckn/khHH+rYobPfNSX99Mbt3UhZMv62j2cAPihtlsnz5d/CIuLv6U8dWjoKCg0CmB8irt+7qK/+6WEaVgkVBKJM2qOFzm5LKHFj9HJASQmtMihXnWxv++qHYHZGumT5/50qlp9yg1E8ECKkZkhpCtkfVWxIzaTYXN/5Z8WCpiRP5PqQV0/U+S9rhfRD8IRzAIH/RmQPjAZQrCJzx9O/4RQnHZ0hXkwIHD0uV2OHzsIul5mrP1tnR9kWwQK7v+GIzZr1+iS9Aw2rWQ9offaIE9Q03j92Tk8hvSY+OJEjaUssm2Fwo+fNCWtXlsYoltVjaIMjVxXQgNCByUhSFrw7JBdjM3haeK9Ewgysy8lDvy3wV8tnbihCnVvXrF+D08TkFBQaG9AuVU2ne0BetjTUikF79nvC3sCIaRgBna6zmKFCC7JztfneZcHT16NHro0BS3gMRfotTlzRtuUI0GUdQguEV26N5duTXthMUnqVD5Vf89UiEjEgII6/9tRL7nRQwCEexC/OBJOcQPJuBD+GDApex4Qklka/Bknx8+6S9haJDYrz8Zu6JUeh6slPihrwNgwzmNPgs3UQOGanbMTz/pDm0A9gkZO5m9tUiUN4Yrq7di2SpX1sbsPMmyNqB4jSA0Xr/Ws2erVq11bVenb3EDMbNu3QZqbiBbLhJZGja3Cv8yAwm8v0+f+Cfx8fHK7UZBQaFTwE42AqVfxtsiCmZlTsFq7rea1dIYMjOF9gDqPCfri8ooLjVW6dhYs2ZDAZ7wi0GJP0SwyAMzTFgJCiPmWxw+9JVpkLb9UCkVKrB6huuZTMzw/H96b6RlaDET3S9guIhSLQgfDIyE8AFZ1idoM3UMNtQ/I7U1DSQuLl663A4xywhudTfLa8m/jzzrcZywG5a9jyeGcgKYYYTfsU302LQF0zpD1azP358oj8JruCa4Rn/OKPI4Rp6wjzZzHAsmH96vcmVt6mp1O3SRNY+/pveduM9i1gZ/i3jwgKwNxAXm5bRlbayJG7vke+1evnzten39+k1PoqNjZxlfQwoKCgodFt3Si6JlgaZICJ9I7h/BvpkcR1WwbJlpkA57aCt9SEG2v25PMMvadAqHuQkTpnxfXHTOLRjxhyxoYsDP7Akt45HDX1Fh42sIIhvO+X/HbaKlZjJBA2JQJ9b7Y9oZesESZl2mZVIIVPEvBIZs3ke4iX3CvrF9RT8HhI9dowM0ZWNGEPsd7lnFRRdcgycD4R4MTF22ig6IREme7DjmbSkj2RtOk75ZuZRz1hSQvJO6DTCI8iOA2Xuj3HH6tJlcIK0zVEMxcT/yYI5d4L5DBaTPuDzpcfKEpTgGgfLbDS5byfKlXNbGpB/J7BohK8Wvh143lrXZtWuvh/U2rreTdtfobWLgszbICPbtm9DYs2dP9ZRNQUGhQwLlW9LeFE+2G8cvKtIkxwATBGOVoID2jsjsjAXCrS1YA0vbG5Ch8Tg/HT1rU1ZW9v8mJvZ3ZI4KKzti4GfVgPgMlLw9vP/I5xP6B5UN5IP4dVS0/H/Ra8gvk/LcBM5/H3yEZmqwvGvfbW4XDUR5EQI9PMlm28STeZY5YZkUZFUgMGRPu8NJ3uiA7SuCaew7f0zIiLCn4Ah4EZju2rmHrF69zrWOv0QWD7bM9XVP6bmTCcTumqD8Tc+lpEuPHDfGjNimXcN6V4aEDWOFsJ0/L8ctkAbZYNZQEEE9A7NABo1AmxwreUj6WxDDuHdCVX54/06lK2uD6yFbB9dIdh+LmTXmVIesDY65X7/+QtbG2SGl+BwefNZm69btj2NiYjvv8DAFBYUOCVp2ZjL/xY3pJfXt8Qm6tu+FkmN5CdtqY5WgAXbXsoBdwvzObg9tlPJ5npswOuwFHbnbc1dOnTrDLRDxl7wTGnsizBPBNrIAddWNlp4Il96qdRkJMKI87f3EPTSgfqfPZuqgFjPFfMI8yofQf2C1PwKBKsQD+mYgJvBeiAsrc1BCTWQO0peWkcnry+m+bjx0nxwvqSTjZqwix44VSI/PDmHugHknTQ26CMV5ke3HHwYdIB9rQvOTIfnkg8Rd5Le9llNx82HcMnLj7hN6P7DMyPbtu8jqlevcgmgaSNc2uX12MMkLcD7IBuHYtmnTNvrz+oP3yN+yPJvyeUKAwmEvWCWGzCYZfy/IrCBrg4yKuB4jMn+y/RSzNnTGjGmvjU6UNfLvCYR8JldlbRQUFDoyjBKgDj1VnxoJyEvD8o1Vgg5qD23lPEd4eV+wIRWBmqDusCV78+YuqHPCPQvkgxc8peWXoWkcDe2PaxpsPw3O3lRCeo05TN7vv5d8OPCA28WZs6Xc7XdvRAO4vzNt2mbBtLqyPsgIQVDAQQ3ix0oTeqjJsj6ivbWVTAMyeffvYGZNmwjFOWTb/nTYMfJZSoHb54EQnV17r6fipmfGFi2Q/dn1flh8r1+7ySOINnP8Cgb5kknWZ8MIG2QMjMXPTU0t5O7dOjJ3yy2PYxSJTAnEML8tJ8hMF8DLF6+TzIwR9Hx564ORZdZwb/LiC+VoTGDIe230kjT+2gdClEvy4AXltm25jb17xy8xvpIUFBQU2iXgOGUpk5Besj8UmY1gI9RGAjLomTH5frgRmbH0ok7pxIn7Un5OOmDWBjbPQ4YM+xlD8/ggxB/y5SaybM2sWXNpfwWCpQY/+ikQnEsvjEZkU6yUDjFiW+ITbK/k+jDaaB7wITsE8YDPgJiAqGACQ2bLG04yowM0mWNf0RxP9734PklKSvYQoSfPPySfppwg7/bZrAmb49JtgnyJ2oGCW673Q0QvWrjULYBm5D8n2ERgzcD32Zw9e5HExfV1lWaiWR/7drmszus9yIh70V/xLCMEASuXQ+Zs9KgsmkV74qV0D/edbN8gxNk6zIabCYxVK02yNg71PrHPY+CzNmDSwOTHsbGxnWt4mIKCQodAZ+39oE39MiOBMGQDDCtqz/I4gZ3VHhpi2uN8pDs7gygi4KTNM98gLGZrYDuMbA2CJARL/gxj9JUNwVPqw0U1NECXLZcR28QUfd9lRG37W1PtzDwbBL8QEPh8CApkQhA4o7xMtq/hJLO3htFB0szT5Pd9t5D34j37mkR+OGAvFTbDZx2kx4gyqX0HviLZCxZ6BND6fRFcxziefKCN+TbsdQia2Ng4KsLxO7I22DeUT+J3ZGWs9GPhXPG9UP4S5gtwFtR/byXbt+00mv29Z1NkIgz7ze51dvzIpiGDhYxqakq62/XgjztQ4jPwWTz4rM2J4wUtsbF98oyvJgUFBYWIBw3s4dblqxyqA7t1mfVwoPzLWCWksOw+FyFDT0MFsxlEyHYZq3QMOGnzzBqy+QnzjHy2xt9ASXZBRKKfhpVZQShYzY4g4EPg7a0Ph01Yb6h35gm2LyIoxrGA2DeQGR3gOGXHESp2G15IPk4+LF3GE5kdCJvu/de6XYu/Zx4gm/PuURtpPohuNHp5QkE90Ka3rJuBAJicPJiMHDnalbVpqNMFOSv/gjjA9fB1f+E68VkSf8gGXDLzhauXuHI0L0IQwlm2T8geYjkzEABgQIHXZs6cTfKPnHC7JqA/DyJk5LNkgMraKCgotFcg84IMjOx7VmCHn6+iHaPnIM30kpfhatyHgET/EvbBY7/c2dIhy7FM8Mf0sxs8zkFHy9pMmTy1lT2ZDpTsaSzfEwCifh9ZIfTWIEjyVkJjRggV94vhOVOFEcEmsiB4H4QKAlArT9hBvBeC6Oa9Jhr4ss/XJ6y3/U7ZLPweYr5+9QOprPuWCh9kQpbuvE2mb7hBeo45QuKnFUuPzyl+MvQrKlpky0S+/eUimuGRLQOHZV8l6/bfJaVltVRAyI41WGRinM3YYcT9unjRMmp0ob/WSh5Xa6JcmCGD+9JKhhBZOFwn/r1WiWwSgJ4Y/F5f10z69Uuk/TC+hKBs33CP4+8C5XcMLCN04fzloM4YgogRkjYqa6OgoNCugN4Y7bvUwkT84tLOUvIEAWMiIgqNVcICeq1kJVgCaYlgZvGnxts6LGjJpPw65RqrtG+0tLT8Es3hj2vNHZbskEG0eEZwCDc09Gr4GyQhKBQvRNw076VpKAViZTf4F8G/nTKvEctueASj1Y+E2SVhEjcs28CCQmbzDA4fnkHLiti6OAYQvTMQeQh2kfWxKvZkRLYGLmiyZTzRZ4OMTbehvtcFE2dfphkOK8YGTpANDxXFOITN7fL79F82YR/DZHF+ZeVysOG2cm/h3Ft152OEGAB4k4PMjJHkwrmrPoUgsjayrBKc/rCcB8sIoa+q/MY91/0Emg0F9YcQaDxU1kZBQaE9wFYWIK0k2XhbpwFKzyTngkRCw77l7FoHMXXwBjOjBZSqGau0Xxw8eGg0+l74oMNfsuALQQqf6QDxGWVlt7QASc/YeCufMaPMwhaZFQTs3sqy0BsiBpIIQmX9B2ZE7w4+H++tqqzl3NHCR9YfgTIl/A5bXpzbRxWPSVxcvMf63ggRgfMoGh30ysqXng8QvTMfJO6WLuMJ8YOMzZ8y7GeQIBSwP8ieyfbbCTLDC9iU869D0MBQgw2TZa8j2+itmR6izFeZIIQGjst3X1cbGZjJwYrlq2mjvxXBAREj2wecVx6sHG3JkuV0dhEvbLzZS9slvh9490RAzNr07ZsQMrtQBQUFBV+gfSRW+zY6qa0w7TeKECMBM6DsTNunDm3D7QtG1kZ2nfYbq7RfLFq09ElbqU1gZPX6b968cXsdwSGCRPQmBBIgIRAULwJewzIE5jJ7W0ZkJi6UeTpu4Wk2b13siz3GnadZDycawgMlM2pgM04QcOP8wg7YKbE6YcJkUlJ8kf6M8wfxg8B99NKL5J3YtdTxrHt6kfRcMb7Tey3N2GQtKyEzNt32O0sEkQPB5aTbGIggGxCFDY79wnl9qKUuzMvpz5gl42uQKIQ0soWy4+AJ4wqrznwMLBuad+AIHXJqxTYd+yPL2iB7xIOJCxy3rBzNytwpq+SNRgAxazN6dNbDmJiYdjewTkFBoWOBllhZdNrqEE+8A4SpkUAENagjsIcAle2nG7XgP5S21aGEIfA8jrldl+Pdu1fxblLSYMfK0FzlMj+5CxsMiZw/L5vUG25o/hoHyAQIy6KAePqNWTLiOowI7FjfjUgEfgiarTbkY1sIXENVLiUj6w1hv2O4Jc7v0SPH6fnm1/WXCO7PlujCRuSXwzdRweKtd4Y5onXrt4o8f/HKFZRDIGUsKCT/MaJQ+j5fhCBAFsIpkYN7ViZszp29rP3c6pq/xIwEmhqsZVogBq0MdUV2zFtWiv1tAaxkrrT0JjUQsDoPSpa1AR8+brNoZ+cAxwm7a17UgE471qG0jgeftbleeuN1795xt4yvKwUFBYWQQs1G8R948i85Ty8jTfih/wmC1GNfPVnY0USrWXYNfWHGKu0P69ZtOuOUGxojnrqKjmjorUFWiGUU/J0uLysdQ4AsroeMgrgeT77vRiRex/t7T7PehwMxJcsGBZvIjPHZMda/tGnTVjoAk1/XX2ZljSOXLlyVLrtYWkVFC/hOzBryyZC2sjWYCnSN2+BavuPINRq4srI5kGUFCs9XkTmbb5Loyf5lcpABwjWV3QtWiXtW7LGBkLl+7aarH8y9JE3PLFgtSbRqDw3xIcsG8u5lvACLjo61LGxwb8v2IWt1ubFl922npqaTq5fK3IWNjdI5K2SmCAz4/mB9PqDK2igoKIQDf8ooSZAFfW5EuVInn2ZvBqNhP+KMBMxg3R66JKcjXW/0gcmOs11mqRobX/wqM3PkG1Ze4xTxBFYUNqykB+U7CI78cUQDZTNszDImCHK9ZV8gkszKyRBsIcDKP19n6Wk7I9YNxtR5GdkTfP5cw7ELPUwb1m8i27fvclvfX6KE8O6dh9JlYP7pcvJZwiqXgAHRT4MStQ8H7iMf9llOtuddcQXmrIcDpMJmnHu5U8mlapK9vZz0me7dFMKMTOTYGryqEZkCUdjAVONR1WM34YBzu2fPQbf1KC0YSOB+Q1ZQVhLGE8cgZhZ5YcNfczvCBjQT/SU3n9Jt88Jm3twFJO/AUbfr45QzGk84+/HgB/sia9OnT99y42tLQUFBISD8a49Vv+7Sc8Xkt/6xYv9bPZcXdvnHinz996V0YKaNJ/j54bIxbi+gJguScwfRaKwSUaAZOpgfdDJjCOrcJxwjTBbaXX/Rrl178zBXhg8wnCACI1HYDB+eTkt5WCmav3a+4okHZesx+uq7gVASS5kgGJAF4ev9kY0Zvcx8OyKxXQSQwezDYcYBfCCK3qXH1Y00q4DsAr++v2RZC9kyxuqaZjJ1+XFXaVrX3uvJn9LP0HMxZV0ZXYf1sfDiQRc2k9wCZ0bcKyjNQg+VHRc7nhC2KF+0InKwXxiCyX5HeSaEDRsmywf0ubmcaBRMMqwQx4VZRLJ95ol7l2UCkcVg4Es97Qobs6zNoAWldNuvuFKwnJzFZN+ePLfrwmb4OEn8neHvjQfvqqh9T1Vqx9np3IUUFBSchSZkxnT5x/JXmpAhMr7ff/858btRwqqO2nPhNGipk3a+hPNHS/ciOeth9FRZsvLuCPbQZj1R6MExVol8BCtbAyLbwQsbuJ8NGaK7SzFhg3/591ghRIp40hGgydblCXHhbcYInp7zWRbsOyCKM5TTbdh6kMzdcsvnE3dGBNZ4Qm/X2tcKMXMF4IUCzi3K/KZOnUGKi865rW+drHm7lfZZQJQeysvnlpsTQXN27h2P8wAHOizHjCN+f+mU+1TPKfdgvSB+cf0hFr0JVW/ENUPJIK61rAwR55Mf0Il9g2U29gP7A9HInPycGiBq1R4a+11d10qvN8CXH+Jv62bZHbft+iKEnuxzTl1rchN3MmHjpHkAT9FIgLe1htV2XFxCfXx8fId0p1FQUAg+aHbGEDD/FL+N/Pekg+R/HXyU/DIpj/xf/XaSt3quJL+NXke6pxX9LPt+pGVnHdglK1iAxbLsfEaSkYAZOtPwVVnWhgrQ9nK/Bytbw8iXkkDEMGGDp940aPVD2KC0TDzpKP2SrSujzFGNJ3obEHQz8EEuAnxq/Xu3Um/Q18QSnNFkT77NiMyBk25ebA4IK+1iM2wQiKMv5srl6x7vscuTJ06RmTNmk1mz5kiXi0R2QSb6cJ4g7miDPpcRwD2Be4MPnBm9lStC5KBUy45dN0/sI8QujCdYVg3nke/tgDCEQGR9SyAVNy5RA0OB+66ZRl8b77NLiCzcS75MK7A892Qtef2je18Vzt+tG23ziqxSJhB7TbpEnj5rOweewsY5u2eRyOiJRgJ8P9bWrdsf9+4dv8T4ClNQUFCwDE3MTIag+deo1eR/Tz5E/lvaaQ/+L0OPk1/HriPv99/r8d2oBXj7O9RU9hAD58/jnGpsD834NOuUVjxG21+f9tBYr70KX1wL6XFpx2SsErkIZraGEXNB9J9baTA4ftwkWnaEp70IjvwpRZPNsMGTbNm6ZsSTam8BZObym+Tb73/UAsef3d7HXN1wLOLTeuyXnSwCgnG7/R8ysr4EVrIDtyoEnyidYvNXxPf4otgIj6Adx4tytHt3K+hrvgJ4sx4OHDeyYHzpnDdhY/UegWCCyLFS2mVGiJy84lpSWdP2mQcOHCYw1sA1F/eNnxuDXqYtW7a7fveXOA5vjn6McdOvkIu32+5BZLzKSu3/LZtlbbbk69cZnDlzNsk/cqLtuP10M7RK0UgAf4dsHhYeLiQnD36khnYqKCjYQZeeS9/u8o8VtPzMTNQw/s8pJ8n/iF7zc7fhulsnntZ3hkn0wYbZpHv0MhmrRDzoMWSU5IrHIGG7LVWUClDtukW8qN+za/9SNPOLQUUwyErPFi9aRgNFvIaMhz/mAXiqLZ5wlHnJ1vVG9Dd4K/9B4HjrgXsfAbU8Lr6oHQueWMtLcZBR8lbyJhJ9OBBFsrIoK/zReLrtEjbadnCukRVzKmNDqYlRiFI3YWMMiDQ7F2aZlF0FNdaFjR9ZPWRfcE7tXAeR2HcIpcUrNpLdu/Z67BeCe2THZJ/vBK3aQ0PI4V4eP34SKS66IN2WL8rEILJr7J4UXdH8ybTaJTJ6PJCZZMtOny5+ERcXf8r4KlNQUFDwCU3UzGLlZzIxI/L/GLCPdO2zhfxh4OH72ndi4R/Tz26gTfBpJckQOWpOjX8wsh4e/+e0tyb8jmwuYZa1ieiywaoq8ovp02e+LDx1xi2YCAbZME7wcN5XrrkqCLz9ETayYYdmM2l80U7fDeu1QEAr9n3IiGATZWdW+3AQSKJMzm4fDpvazoZzIrOCcw1BgHONLJP4Hit82tRCBQdzQoOQsWppzIhjkZXp/XXUOXK7sk0UeBM2bSVf/hHXGNcQWRCr10Jk/LQSsm7/XVJaVksd55zqrbFC3Nu+Sh1xXH1HbyUFp/wTNiiNlG0XZZmyOTbBFHSMX2uimd3bALV/dmWAvyEzZsx6HBUVG5GOOgoKCpEHw/XMZ7aGESVpWF8TN1/Lvh9d1DMQGNpZCCctiB88qYf4UWVrnkCJlrRfBX0c7fB8UZtkK/bQ7cwOHCLG4zgiOWtz6tTpJJQp8YFEMKgH2W0lPI8qHtPyKDQB4ym/P3NsZE+XWVO6v/TVd4PlMA3YtXMPPQ7WPG6FCO7xfl/BKSOCVAgiCCPZ9kQyIBDE78y9CyVcgdg9o6/k3FndlMElaFwZGus0K3VKmHXFlRHwKmz8zGTJiM+DyMH59dXLYkaUG6LMzur1cYIQZ2ZDNXn2GHfezQDDDset8ix/w724a98xTSDnuK6HHee1QIneGh7ITrKSNLjVDRuSUhcTE6NsVhUUFHxCEzb1ECoQLDIhI+NbvVaS3yfs8Phu9INwBIP4yaVZn/TiNAifzlrehuPmzo2L3TOKVxirtCtQe2iZEBCpCaBItbgWQUvuJGWD2mv7jVUiC0sWL2vCoEwxkHCOra5ZNe5scA3pxHoIwu26K8nKxwINMiEKim80k7+Pu+CxbcYv0naSa6X3/A7sEFSjPMqOZTFEnLdhk/wUevYac+96UttMzzPON/+egMgJmwaWtbBw/cyCcmTfsFwXNsOEe0VnsNy3QIiuQEQOriVEa6hEDj5n9Arf5XUoYbM7KPZu1dc0kyZuq8+o7aSwoMR1PUKZrQKZOyED5gyxZbhvEhP6V8THx6uheAoKCl6hCZvzEDb/W/JhqYgR+T+lFujWzwP2+Zpl4giNsqZCBMg065NeFA0BgAGXxiF0KGjHKu1Tac8lftbtobVrnV78nvG2iIWZWIu4a3TvXsW7mMuBEhM+gHCKaF5HuRYLhMpv3CPLlq6k5SyYtZGUNFj7OZ72fiBotTsPQ1ZO5G9/CiP6PYCaxu9Jv9lXPbbPGDftIrl+217AKCMCajtOXsgSQBSJ22HDGnmTAwganHdcA5QaBtP1DrRSnobrYybocC7M7J5R9iXbXjAIAQmhZTWzJhLHBwHnpOOdjHAaxBBN9IDJ9oMnjsdqaSOcAJfs9exfwxwiDEvF9YCBglk/VbCIe9zbbJuDBw639u0bv834elNQUFCQQhM2KyBUftV/j1TIiIQAwvofJx9pEr8Xw0K93AlZn3wIH0oj69MeHbjMMgKwGzZWabcw5sF4zu0RmX52QySX3yETZdx3wn5HWNZmw4atxzC4kQ8enCLKhnj3KFjEJg1Mps3XTEjhKStKpNCvgpI0O/X6CNLEE4xAVLauVcLOmcfz734kY1eZPxXH030E47Jt2SWCYGQMZJ8jI44V5gnMmpgN50SJDtsmb0vc2NBMh0sGS8TaIbINMlGK83mi8DIZN3aia78ZIdJk2wo2ke2ASOkxtthjf60QhhB4v92siRXCKhuA3fP6I1XSc8oT5xelc7Jt8YTFcpV2X8m2N2ppKb0eVnrLgkFxto3uktaWPczMHFkVHR1Np4UrKCgoyKCJlAQIFVg9w/VMJmZ4/j+9N1LzgA/67z0E8YASIiomMopXaN+LhQjAxe/KcNPYJ+zbCuwr3Wfse4RmQVCSJx4D+OmQ/JwuX+RMfqtHdiHY5cucWV165LQrhzGjl2iyTLwJbIlkK2WzaxQxjm8wDRg7dsJruFvxgYMThKjh+2k2bdxGcrIXSdcFkbGByJEtMyMCRfHk2plhIxL1+nyDMsBKXXz1NKAESdyev4Rgg7Ob1ZIoBJ/Yv4rqFrrP/LwgXliiF2jY0BRSxIZ0+tEj4yTNLKAHzDpLJk2c5tpvRn8c0ZwkBPji1XvpubZTQsgTYhSZE28lhVaJ+5UHnMJw76Tn+L5vsP9mvWjIirCBnGb9ZsjaIBsrvjdUZO5/DLyr3vXSG6979467ZXzNKSgoKEjBhnP+33GbaKmZTNCAGNSJ9bqlnn6D7z+UDqE0zNiMG2gAa2ROWCZFew/KkQqlT7vDSd7owNhXOnwSWZ8wNLbTcycRiN3TzpDf9FxKNDEj8vy/9JzbrgwGaGbKgj20di3u4FoYb4sY4BrJ7mNcN2OV8CJYpgEoKUPZEAtIN2/aRlavWitdNxCiMVo8uXZn2PBEMMcDJS/oW2HL8Xn/lmn+1B6Oaix74gRRsoXgH0/8ZZ8n44wt98j1+3rfgz4fqE0YXLpUiqfZpOBEof4ZYRY2oJkL3ZBJO9z2HXTSOMAfrlm9nuTnn3T9jqwTAv9ARA4ydP5m/MTsIhtcmX/kOMmavsbSHCWcfww2ddsuNwAT96CsHG/QPOcfhtghHNG8laSNHp31MCYmpl3ODFBQUAgN/qXn0l9p4qYVouX/i15DfpmU5yZw/vvgIzRTg+Vd+27z+B7UWIUn2HZFAPpkIB5o3wzEhN67gH4aK3bBISUCbO1fD6ODYPWE0G1L9uMPgw6Qj7Xr8cmQfPJB4i7y217Lqbh5q0d2S5fPc9pdHw4VvtayfPmR1leFzJ9kPyMja7N06Yo7mzdvcwsYnCBsm1kwevJ4IZk6ZYZ0vUDp1AwbEAJGDJT4xmTG/kMnkF4TzZ+II8gVA0UnCFFlZY4JI9Y9UFjlJgwgMLdu3UEa6vX9Qz+M3hMDgRMekYMMQ8+JnoEzBGTh+bb91/s55NsIHj3LIs2yirjmEKF2hrLyRHaOiRyrPWKsF4yB2R/vzN3tepCAffKV+UPGDwINn4uSLmYVzrhmX7n0fU6VYPpL9AHxePPmjWuZytooKChYwb/2WPVrZiTAiPK09xP30EzBO302EziofZZ+ukL2PWiwBeLEyf4IGvjqAiKNCgr9KT8Ehu9ejdBTz/oI9tb+BuToNWHb/nTYMfJZSoH4efTadO29nombdtuHY5R2tYjH58b0kpfUHjqCeqdMRFlVWPexsfHFr4YMGfaz3fIvX0S5EwtGy66VkxEjRlErVtm6gdLJGTYQMSLEAA/lcqNHjyV379aRlIXmIgOBpBOlRjKi/M7KJHrG6MkX6cyVR1UNtI/p/j29v6LiYTWpeOBpQBAOnitrMN33iodP6L3kz4yjgGlYCbN/79x+oN3Lvs0AmMixYwjBE0ID1xhi1kzkiEL8Z+0XtmzG9NnUKIL9btUeGpkZmT30vv1HyBdZRR7rQ8SJ64aaYkkaslhsmfbdc0dlbRQUFKxAEzST303Ivfl+/73kw4EH3L7rtCB6Of+7V2pBeSh6WCCiIB6oiEDWRwt8tc+nAsNCH0doyYwO0kv2U5GWVjyGCTfjcNzQNX5D909TTpB3NVH56bDj8m1qFErU2u0cMzv20GYlkKGGYYgg2cfiNGOV0GPHjj3ZmJzPBwlOsM5w4QLHj5tEp9PL1nOCTs2wkWVr+D4VxqVLVpBdO/bRY4PJga9gEcGtuA1b9GJtjOAZws5Xszjjf405R3oNX0MeSl2xQutsJRLn3+xcTl5zg57vUNsK62zLYjXUN2vCMJ1bZo3ISEFsByJyUC4GFzy+zFEU4qzHBOWH/fr1lz5MgDmFlf3AOqKb2/5T96Trytz5QknRJY03zjhxvKAlNrZPnvGVp6CgoOAV2ncahIH0u+6PGWcvdM8oLpMvk7Iw3KU5EFg065NWkqyXkdFMCPppPAdihplGGR41OvjDoIPFv++7hbwXLy3/c+OHA/bqWZsvsiNznooN4Hppx+TlHtSJcxUJBhDavnjuqya+wpa1WTA/56HTs2v0ng69tybvQD6ZNy9bup5TlPU2+GOvCxEjgp9qDsJJLCkpmdy/U0Wtk9nreMLtTVzgybvV0iKRmO7P/ysjgl2U5Mn6IMyIkif+PO3atddtm+EgzpFZqd3uYw/ovSV7X7DJn/tTp4rcltklrhWEgFlfkRXivfsLa8jTb9yFzQujL6b0ahnNkoqfzRP3rJX7BWLTJaaePSd/ST3osQ624+/97RRx7Dz4v92+fRMao6KiOuTcBwUFBWehfad5LfNC+c2f0s9GI/MgW27CKgiLSCojYqCZAiNzQrM+ED/M6MBXeVSQ2W14Ifk4+bB0GU9kdmjG5ouceuw/+j/CYXzgJJCVMbJc0mNmhAgM57EaQsxzvzJLZhmrhBaZmSN/KisrdwsQAmW9MeW+8kEtnRwP+2bZek5RJij4p9pW2Nqiz37hAatbcb1jx06S2bPm0eMTbW4hErw1+KNkJxh9NyKPnKsnA+dZ78PBk/lw90nwNLOA/lvW+ZCcP6902GgB9ykEBoSv1aybyMzlN8mhs/WkufUVdUjDdnft3GNpCCvECPpqfH22bg+tl6v2TZklXSfgzKQD5B9O8NlW9BFGRcVMNr72FBQUFEwh+36TsAVCAP0jNANitexLC1QReEfynBIZMGQSx+tpbx1co4NPhn5FRYtsmci3v1xE3v7HYhgdvOJeL6SCsp2dbwYIYSo0rdhDh7H8SyrytX0O+XkvKbnwEeaZ8IGBE2ROaNu37iSrguCCxlM2wwZBmGxdb5T11vB1+oxTJk8nJ44V0uNrkpRFIVD1Vubjd98N6/MQf5YQggzOUPiczCXXpfshIzJfyCSE+8k7iP2Q7WMgNt6RTpx3JnJ8NfqbEecHAmPitEVu/TW+CMFoJYMEcT5m+hoyaMZpj2XI2th9oOA0Uc7IrNpRmsaEHh6uxMT0bjS++hQUFBSkoELF7bvtLPezQASbWtCM99FeFz0AtWbljPdqggiCgX5wBwDL+tDeGf1cINgNyN4a2Rq4oMmW8USfDTI2v++79TvZcoPavhSnRZq7mBXoAtp3hlA773dwDYy3hQw0ayMRX+gZMlYJDTZu3LzO6Qn0zDSAZmsGDwt6tgZZEvFE2m1mRvAj9tbwzkqMOBYcE44Nx+htiKhjfTemGQLzzAH2nQV0GMx56VoNmbL2BvnLCPm+iESAiqf4EI3itkPJ/xy6Vbp/2DfZ+h2NyKKhXNBfkZM4+zK9z5ABk21fRvSmWbGt/scIz3I0EPe9bLuhJG9/zT+cSE1Nv6cGdiooKHgDDcw9vtuKH3i+1kZaCmSUmOFfI6thp38lPxzBaKiB4BzHKTU6kJ8X2jvzQeJu6TKeED8QNh8nH3kqWy4S5YTtUeTQ+UJW7i1NBIU6WyI1PtDETkjF+7y5C+oOHDjsFhQESlaGtmnDVrJu7UbpOr6oWw9bI4I/8UTiybNsXTO+ECaYA68kFs/oRVq+dBU9Piu2w8g6eCvxQdO/1+yIj8yMjBA0P/ygl+DwvU64LpNn5JApK4ss9+Fg3xFY2wmMnSKa3uMTB1NHNNm+BWN6fyQT2TfcLzJLbCuEWIEgtHotIYh8Cao/Z3o+ycQ9E25BDLKSNP7v+Pjxgsbo6Nh231iqoKAQPEhnc6Sf3WAIHtN+E5RkiYEkglBtmc8mcEbau6N9vvH2TglNbLxHz7UmOj4efHjPO7FrqeOZdi6l54zxnd5raSnaH9OKf5Qt90aa5dCEVnvKnuH8aPvu2x5aO65Q9XXh/pdlbSCyjFWCi6oq8otg2DwjQ4CMxmCarfG0jPVJvjncQmCPAEw8iXafGr8W5oAA/JA/xgnjJ5PCghIqFOpqrQWICMC9CQmUDpkFgi0telamsqKaHD163GO5jGiYhlDDz431z+i+6sKmmaDsEOYHEFMQXXYGfkIsBsu6Wsbb5fdISkoaOV5SKd0f7Hu4y55CTTY49vrDVrL8QCWJm+7frByIHPyN+DLYwH0ps1L3RbxHtr1Qkjkc8plX3PtxcQn1PXv2bJe11goKCsEHAkHxOw2vYRnNOHgbpoiSK8nASr1Mp20mi09iO2nFY9p787sTwGwavcRsi/xcaWSOaDAO+DTlRG+j58mv8jcqcjJLZkWC25gv0PJHvddJeiwcq0LlzCfN2mgMyfk8evRo9NChKW7BQODUMwT5R06QGTNmS5b7Jsq7Kiusl6/JSr4sl3kZRPDDg6/NZ0QGAfa5TCg0CMYB3ogA0czpC4TwETMQ32gChZ+fc/s2K7967tUdDc5QCOrwM8QXFWHVjbTfQlZ2iIyXHQtilPlBFInbcZpFZ86SSROn0v1fskM+GBK9KLL3djRiWCaycCIws6bs3lP6N2ClfExGCES831sGDMu83b8y+uNK6DTZ4E7eHW3KlGll0dGxtCZeQUFBQYRMgPBZFDz91l7DkEy3dVzEE2uj70YEDUT18itrTmN44q4Fru2xJ8QpdPk8520qWjS+E7OGfDIk33V+YCrQNW6DLmp0umW7kPmhgb//PT5VCNQjXeTQLJc1E4fCYGel6N+H/HznG6sED2tWrd8032Eb5uZGvb8GAekZLTCVreOLKJniJ+KLy0XKGp7tOHwhaBQhm11z7FgBmTN7vkvYIBsiruONyJJ4e/qNEh5+qCiezuPf+jojM2SxLI1lmsQyNDhkebP1RiCKsjPZvskIMQZ76WBlTaZNm+k635UV5oF1KERWOAmBy5rheeAeFQfHlt5+QuIy15HeU/zrycE1xT1qlpmzag8NDpl3mWRvOE36ZuVSzllTQPJO3pBuN1jEwwmcO5bBBAsLzzRERcUG/wtWQUGhXUL7/vIoHZP1vxilQG7r8URAbVYCpAd/9P1ebaUF5sqyQZ0Bb32x4C/IxnAChpadoUTtw4H7SJcvF7aKokaEEfwjm2DnnLdRC9ZxTWX3QqTAuj10SU4ws4FmfxtBzxrNm5d9bfv2XW6BQKBEAF12rZw22MuWW+GT2mZNNHxNDuUdpRP+ZevwRAZBPHl2nhYjOBTBRAXPhQuXkP17D7mETZO33hgvhHjx1XfTpIkSNmjxdGExcZULWhA3LNjly9Bg6IDsnJWyQ2SXlu65Z7lhHevhib/TNszJyUPJ4kXL6f7jnsD2ZecNr4XdAjpIZKVnDMgkomxSnK3EiHv0yOGv6M/opUHmUvb3YYW4rhC64kMCCFncH27XIt39vYy/i17FP0mjjBmxjTyoDF1/1HeaqIHjIfsd5Wi9e/d9Gh8f3+lLPBQUFDyhfXd5BL5mGRNffTcaC30FkAhGLT5tp8S6kTJ1PpTo8nnOL9/qkZ3DStO69l5Puqeepv00n6ae2mSsZgnIwCBzhrIz8fxaoiFywj14VQbcbzQrKOt14QkBZJJZDBRmWRvtnJUaqwQHkydPfWbHDtYK67QAdNXKdWTrllzpcitE2RS2gwyJlYySLAC3k0WQCRuZzfPQISlUtDGxEMigSF99N0NzrpMnTbpAQablwP48S0M6ebIyNJgcQNDYLTvEOURgbKcPB6Vh3kqa7DAxcSDZvGk7PQaWHfNmAR0JFtVOEcIFwfjL71/RcioIHGRuZOuCCNZ5USMSwg/X0m45GSMTOcjYsPMM4TRiWZl0fcZuw09RpxqUDnyQuIv8ttdyKm4+jFtGLpa2ZSeDSWRkIQb518ZlTSiNiort1A26CgoKcsi+y4xFUvjsu9GEkpVSJmQUtHXNS9w8WYUn452tDwdB82dppz36OGDUYKxiC3Q+TzodSuqfyKHzY85uiDSRg+PS9g1DVmX77CK9d4OQCcT5kH1eUEV5amraT2jQ5v/DD5QQJQMHJvtnGqCRL5968riRTJgw2WvWBsG3eNIQhMnWNSP6UUSIT8RxnoanptP90unbEc0XffXdwP0KmaeRI0YR1wBVLUiz5hjXdh4hEhHwIvCVr+ubCGjtBMVYF++Rbcsq4+L6kqOHjtNj4EWkWblce7eARtkURLZYXuaLF85fofeImagRifsOWUM7fVU8kamBgGUix8weulua55wbzBnAUzaImy+Hb5Lun1VioK7sdRmRteF/P5R3tC46OjbX+CpUUFBQoIBIEb+38OTZWGwKiAttPfMZI+klL60GdLpQKsnBe6Tb8mQLntCH2to3XKACUHZutOsU6Dmg118Tiz6Eqjn1/crFtTYrQww1LNtDa/vt9D0kPY+4TsE4N2fPXv2nuLh4t//snSAGV06eNE26zArRkI9p/vVPnmnCppkKCgRteCItWx+Bv3jS7M6wAUXgKS+/HNmjuXPa+msg4Pjl/tJ3381ZEjVoOl3X28wckazXCWx48pSaBjiRnUM2BkGtbF9lRLYHQbTdbAqMGnr37kMd6MRzDTFrlkUKpWubv7SacfNG/D3Apn348Awq/v19QIFziSyYlcGcZsR7d5+sItM2YBBssfalVUw+SznpsR4jxA3qoiFutufZ/1tlhEmG7HUZRRGE8xcTE/tNfHx8RPzHo6CgEBkwSsvcv7MySs4bi30CT/7F9/OEYDFW9QkqltKKxyAQlG1LyvSzG9qDm1eggPiQHn9GSaGxSsCgIietJBnbFD7DGiFyNLEL44lwZ9VoaRjuJd+mFS3Ujc8h4WGWtcH1M1ZxDrt27R0CwcD/Zx8om5tayPx5OSQv76h0uS/STIQhKG7ffkAb3fEUevXq9WTJ4mUe64NOzLABf/zxJ0PSwB72Z4/lG9ZvIluMsigqbGqbPdYJhL76btDDYsesAOKQ7Sv6a2DzDLEgW9cforQJgszbPvNEFg19GcgWyLYnElk6ZGxQ+idzn4PAkn0OyvvslCGGi/6IG1y/4qJzZNnSFSQpaTD918mMKxM5EK5Wr6vIz1JPko+S5IM7eTJrziFTzc0svBEPHmR9cHaYkpJ2Rw3rVFBQ4CGdYZNRYiu7awRzAfXdiMB+2cwiFEZi/4eTwDEKx6wzCEEzMhmGyPFZ2mVKJnLCmFmjx2Gt3LHK39I+Edq2PM9ZMLI2wXBEq69rpmVotTWB91gcOXyM9pagfApPpPH0fsoUPXPB04kZNiDfpM3PvWBExuNY/kmXWLBj9WyVCNY/H3vB43gYUxZesxy0I8vB9rWs7BbNesnWC5TYHzijWXXKAlFK5svcAdmI2Ng4Og8J2SfZOig9k23fH2EbTLaVDrpn3LyVFELEoMQM5wF/A8jMQJxOnTqDvuakSBWJ+7DwSh2Zsamc9Jt1hWYNZefZjOipkb3OExadEDafJayS7oMvorSsbc5UqyEU7fW8rVu38UZMTKzlp6cKCgodH8ZTbbfvK5R5GYstw+jb8Fb+Y6nvRgTNKHkrefNkFQ2mI6QsyknQIF2WzUoveRnMrBVEKRXA9q6DyEIIpXCJHE38WbWHzg/UHhrXQrJdW9lLSwiGI9q5s5fIuHETpcus8OTJ066fxaCv7nEDmTZ1uoddMUSMeLIQaPPrWCFvICATNmi8v3H9dpuwsWn1bJVPmr8ngxaY9z6gBMu34xv6a4zMkiZwAu2vsUo87bfjwIUeD/RnyLa1dOlykpCQSI/BW8Bq1icSPAtoa8Fz2/3rXtIokgkY/C0yEY8SUYgY/IysDK6fE5kZlAOiVA/EAwEIQ4hMnEMr1+1PGb4FDiZDQ7TIlomEVSfEjT8OaZjp4xI2fNmoUELqjaXXbjyPjo4JrkOLgoJCu0J3zDwRv6/8dI5ysu9GBG0M14dQWuvD0QQAyuTCmS0IBsxKnSAqQyHmcI1xDbXPzLV8LQRSgZFenIbSN2OzIQPNQvkqddSOi/ZwBVBOp23D8+9A266j9+PUKdMrrTYbW+XKlWvIztzd0mXWyIJG8+AEWRwEe+x3WW+Av03rmAsiEzYIPhFosmZ8sKnB+XInuF4Br398Q6Zv9hRsjCgT8naM6MVh+wmbZF/za5wmxIovtyyeaDyHEOH7cNKGp5PhGh/76GVCSZzMFQ/nCK5dsveEjm33sVnp2fTpM6mAQakj/h4hcsz6ybwRmTMmWiBYQJSUQbT4O7jTL6YVWcrYoM8GogbuaLLj8UWUi+rCxl1o2i3xi43t/VzZPisoKDBo308eZTOBluT47LvRlhur2gYCQ7p9q304CL41QRToU/hIAp78y44VItVYJSSAkKIiRx/wam0Aq0BabqiJnFBeHwgWs3PoRu0eC0yIewo/R7M2WVnjn6FeX/afvb+cOWM2OXH8lHSZVVoJTA7lHSETJ0yhfRiyJ83+2g3DCQ0QhQ2zSmZiAbTTyG+VKK9hwBNpWZkdT7OSO944AHOFsrLGWZoH5DQhLJARsNqvgXI2BOT3KhpIfHwCmTx5GhVmsm3zhMiTbQ/3hl3TAqukGZlmjbIMgYcN+HMqWmCBzkTL02Z9v6zc7+hLgmCBYGSiBcIRosWOFXcwyWdzPui/x22ZjBA/EDaYaSM7Zm9kA3WpsOHmOvnzN5mRlnkjJiamQ9ehKygoWAee9IvfV04EmT77btJL9gfyRBxBNe3DsWdZnB/JwyatAsdudtzh7DOi1zwQkaMdE0RrqEQOFR8WeoiMDJNte2ipeNLEjmNlg+npma9dFsIOccSIUaT0amgmi5deKyNjx44n/zGi0P0kabTaoC4jsjaisMFTdDxV54WN1ZIkO8RATgbsB16bu3wv+evIIo9jZESAK/bdNDa0DebEzyht8icL4BRxPRCMW+3D+cuIEhKVuYOMGjuHCjPZNkVmrYAjl/t2Ps8qJocLnWuuF0VIk3Zu8e+JE4Vur4tip6joLC0zgysdK1Fj27p5r5mKFphgMNECwQLKMlGRQohG7COEK/YZ5Z8z1l8m78SuJb/ptYyWpMnex/hO77VU2MxZU+B2rqyQZTYhbPhrYkUkilR9NgoKCjxkT5WdKmlC4OhNeGCZgyLKspMXsgQQRcbb2yVoUC65dhpbIqH8DgKSljlazawJpCJHEwahcLwz7h+PIbUicTx2zi3WlV4jTdQbqwSGpKTkn6sq3SeKB0ptm6TiQWCzS+zwxfev3U+ORmQHZOtaJcva8K8hIJ05c44gbNzf5wR/4pzZIHLw2ubN28iKtTu99kCg1Igvu4IYYPt5/drNoBkH2CWyJ3B/s5NlGLOijAb+su2B1TXNZOry47Rfg+/tgDMX6+EYOHF3AJPuW2kGDAKRzdKpe+xeHufhVmesd+5aNd33ncce0OAfrnC6aLluOYsVDmIGEfYTrnfYb1wzHIe368CI2TQ457/vu0W6bZA5osE4ANdPth1vhKABWI/Nk7om45rYf9ig+mwUFBQYaOAlfmdpgaix2BH47LvRAnGnsgy0aVvPGMg+x5MIumH1G0DmKJxACZf0uDSRZ6wSETAa95G98CkeTFhF3x+EoZoMRhYMJY6++oZacN6Nt/kE3aZkOwELtqoq8ovo6Fjpf/SBEMF/gfj0Oogsf9DscXL+MvwIfTruq+EaZSswAEDQyg9/BJEtwdBOZhCAbeXkLHaJhcfVwXGk+vlnGq9RMGGD3hj0yEAUTFhjPmsET/fx1B/v4a2ev8o/SZx2v3OC2FcEz7JjkRHCTjQEQFCM4BhBMvghSqDSi6nA+WjQQfJ+4g7y9j8W02Vdey32OekeduXIwkAY1tU0ktpHek/VlYvXybq1G8k1IxuZd/AIKblaSwN9BP0r9z+gIkAXLf4NvQwFIabYPqKMEaIF5xTH4duQwhpxjtn1eCdmDflkSL7r83FdusZtcC33d4YNEzZsjg1KRYcMHuaxnlWqPhsFBQUAgSL/nQmi7MZY7CikZTkcEQAaqwYM2oeTWTJL2661kigtmMX+haOZPVCYikZNsBmrRBQQ0ONcIyMj3W9f1MQoMifBKik0xL5Pe2iaUbLQiwbBRAW0+P5A/8527NjRFXMwZP/JB0I4OyEAlC0LBtFzIJ6c9MWlVIjwFrmwaoZFLgIgcRt42g6hgiAWwSxYX9tEX4NAwDrImmzcsMUlFpwazsmTZYoYXr18TV9nx4Kfsa/rD97zOGaeCFYx2JTtK/Yd5D8rkoiAGuVMsmOREeVsKHtC+V36rIM0QP5d9Cry6bDj0vW7DS90BdPIJtQb5WMgE7eYScTOV8XDJ+R4SSXZd6yMjJyzn0SlriRRmbmkz+RTJHF2CJvwbRLClokW3AMgeo8gWkJtopB/utwlONkgTpY9A2EYEMhgTpmwGUyFjX/loYMHD72u5tkoKCgY7lbi96utGTZ2oDeae3kiHmDfjQg9qKRZDTuZgtxgZgachlHuJLWAjvTjMEoVJwcicpChcyrjx8MopfM9R0m7Z30JYuMe9HhvQPu9bduOAcEoT0LPTv/+A6TLgkE8LRdPzIId98jXXEMxHM1QSgYnNRgAQOxAgIlzQJjAYQEuyIZweggbTfzw73WCLFhj+P57ffggL2yYKcDpK4+99l+MXl5G7t6t09ZtcGWv+M+KKBr9KBU1T2kW4b9GW5uZ8h/aeihpeidqFfkstUC6DiP6PX7bazkNqmeuKSaFF2vI0p23yZId5WTcyjIyLPsqiZtmfQ5PqAkxB8GCfiomWiDqIVrgCudxTiOArETwL+nHSbfUU+T9hB3kP4duJqPmHyaltwIrV4WgAWC2gd+ZsPHXqXD69FmXNGHj/BRkBQWFdgWnZtjYAS0X8yI0EOQGI3MCUYWn5LLPlBHr+uuIFWrQWT+SY9BY5VS/VLCBaw4BYElMyNnCRI6Tx2yIEu+ZP2T8NIFm9rlUYEvueRyrsYp9LF++Og3N8LL/5P0lmqLRZB8fn0gFjmwdp4meBfHE5J6spc3/32rBDy9wGFGeBmtdiBwIFlHg4Ak+s3VmJWeRJmyQSUJA663vBoH65eu1ZPjoWSRr7m7SNyuXEs3aeSdDY/BgjdxTdk3kLFy8mkxZdsJxt6+Pkw9TYfO3zGPS5eEi+qMgWmBbzkQLBAtodRhrpBKmEeLxyswu7JIJG/Y3AmOMuLi+pP6x/X4dcMeOPTeio2M2GF+PCgoRhy6f56hSyRAAJT3id5a/M2zsgPbdeG/2bwlWqRGyGNr2rUyiZ6xCcBvpAgHlXZJ914Lus+3uu56JHG3/LRtCuFHPCuZCmDpx3XC/mp5fnunm9tAQXLL3+G1isXbtxlmYYC77T94WYXfL/V5VWUs2bdrmNmcmmMScDvGknLrWRIMe4Oeff6a9Kt8+/85D5EDQQLBA4IiDStFrgfkpEBHovwmHsHlpBG3INqGUDj9jv/D5KJuDIECAKJvjw/hvI4pJ197rXSVAPGGz639DffB4/Hihdh/VUIer7Udv0UZ28bh4dk8/I31dJJub8ocBu8kfM+XrOE2ZcxgTLcGyoY4k4pjFcwIhJ1vXDkVhA6JnEH8XYr+cFZZeK3uqDAQUIhldvsiZrH1/tWvXqvYA7TvK8Rk2duAzWNSCW2NVx4HgmQo7b6Vx7tTEVskslH4Zm4goIIA3y0i1l8yTDLTUDkM1AxE56SX7ISACLXM0so1W9qNQZg4gzUZpYsgv8ZWTs2QtywIEwrbp6pjL0RZQLFmy3CMTEgzKgt6y+89o0CMDZsOgfKXl629d28B+IoODWS/uZgOtpK62iTaTQ9hs2rg1pMKGmQcg+9VWNtg2eLOBs0GWBZAgSrDe6b2ONtFjbggauT9I3OUqy0Kvg6+G+lAS16LsernLtremWnfhwlwiMwHnqwyNEecCfR4fDtwrXW6XgTiHdRbKsm6YzSRb1w5lwmbgwGRSfuMe/Zvl17VCZHyiomJeGV+PCgoRB0PY4HtbiZsgQtbbELBbk00g6PYhLnKDmS2h2SOU5Mn6VMyYfnZDqM+TFXizgA5GeV+ogWsFgQKhIjlGa2QiJwCBatyzPu8XCHdeTJllbfwS8AsWLFrhhLDhCdMAZGwwMK/6UWiCO9lcFJS/oAwN2RpvgHCA8xnbFgZYQkAgQ9L2Ga3UIQvOZKtWrXWJimC4opkJG2QveKMH5tTFsjbsdbiMiX03HyTudLNAZkT2gmVy0FDPthEO8uJ429Yd1OQBPzNxU1HR1o+B8jsICWaVDMOADwfu8zg+GbEuhM2fM+QZHjZgMhTOYZ2BOF/iOca5DWTGFCMEDcB6bEC4opVdK9dFf71gv22BffsmVMfExHSYSdwKHQucsFHiJoiQBcGBPtX2Bz77bjKKS0MRmCPglT5VN2dhMBrXAwEN/CX7imyOsUqHAO5TKjCo2YPlrJvIQmSD/BE5NEPmhz00hJXHOsja2P27W7hw8ShHStE0ssC0od49YMFT0Kdc4O00UcojngwETmw5sjKwbfYGiB/mrARin1H2BSHDXmtqajHKwdrm2Oiiom1fnGBry7fGXulgAzpBfsAmskVsP/isDQj3q5jJF+i5+HDAPlOnMBDihjlWBeJQ5QTpPdTcSrNm7rOVJFP9NaIEb8Sic+TdPpuopTCyMbJj5AlntPfit0mX8UQmBhki2ecqWqfM6Q5ZN9m6dgnRD+BhAHuNFzbokRP/NnwxI2PE5V69YtpteYJCx4YgbJS4CQJoiY/wnaWxxVgcciCw0z4/LH03IoxmfJ8T6RmR+aJZgCBmluxAGjzr++mYpXYkAefdJXIgJCTH7ou0jE8TIHYFtN4P5DuDBMGM+8oQ8ZLlJfYGZ8+fvzgKQaTsP/hAyT+BDyYRxIsnQla/DxtllKB5AwIlvgcHc2NQfsZ+RzYH54sJCpDPljhBfD6Pn35641qGPiBmVc1bE4tZG3D6ygLyfuJO8l7Cdo/zI5INShwytU3IBUo8kWclWd6IfhNkQ7wRGROWPRGZsvAa+XP6CfLJ0Hx6HN7EzQeJu+lxfhC3jAyZtIv8daRvIYQgPFIdxyKdEJ4sq8aTzVkKlOzvmc+4wjyg8kGt298oMqtWszezZs09HxUVE5FzDhQUmLD5t+hpStwECbIAC8GXsThsQIAn7pcbg9h3I0Iv7Tq7wcJTeZ3pJfXUHSvMfTiGSJRnwNqRlbW/oCVfuG5+i5ziUtxnuP7GJn0CvWmy0k4Jc/+YJhHN2j1m675ZuHBZVwTLsv/gfZEJF1YqJOWz53Qa+OVL14ImdGQzbBDwytYF8XTXm8DB1P+vDethEMKGiRtWDsbbQWMGClvXKcLNjQcTW3Cwg+McfkZpHB+88U+mEYhHZR2lmQm4gInnRyTK1PAfZPdBOz2Eg4yybUQCMeX+d1Er6VBOZKLY6+gr4s0Tho5ZSHbuOUIDb4imv47yPv0fwTmc9wJ18epslNmwo2zUKcMEZFpB9jt6s/r16+/2d4HMJv5WQCs20Bs3br2sCZsVxlekgkJEgQmb7EEJlOw7TaMSNw5BWu+fXrLfWBxWGH0UpmJCCzxXhDI7goDTKDuy1oeDfdcCazuBsdPwagEdhnLDcAHnAfeL5WsnEGIF197qtYQg0t7nVVBp+/NK258fJa9b/z85Pj7+Fyhvkv0Hb5lchiMclAVPKH+RrcsTDmkQMTJA+PCZG17c4HzVPGoLnGC9zNZziqLwQnkaXudn0cDMgA/gLpXWknV5D9ysnyFYZL01MqLvBBke2bL2wj8N3kX/k9fNAfaR30Tp5giMH/ReSmIz1pOhc05TsXL9ThP5UbsHGp69IhPX+R4Oit4lJ5reOwtlph4QkrJ17ZINssXfCnut7Potkpkxgv49YDgtHjrg7wWmIHgoYKWf8PixgrKoqNh84ytSQSGiwAubZxN+o8RNEGAEYG7fW7bLYYIIZBa8BaMoHQp1ZgRiyuhhsT7wUxOLoSqhE0HFmGyfMoI3hDWSoYscmhG0fv04UpGjvd+XcQQVwjIrdQu0ZUqRkNDvTSDOZV4zNiGgbIYNypdk68poJnD43hYQPTfoscFgzxvXWQ1/PWnkJtg7RdY7wIB9xOuwo0aQhp/hPldyqZoOl/Q2VPKToV9JX+fJLJA/SdotXd5euOXwXZK9toD8bcRR+jszR/ivwetIv0nHyV8y3Q0D1h55RM8vK0FEaZwvW2kQLl9OlVN1VMpKREG8LlvfLmEYALzgjAPy80+SObPnUzt0CBpkoyFm8HeDTCcr4/TGojNnH0RHxxYaX48KChEFUdgoceM8pCVfISzzsgI9QPQyVBPCJ0ylVUbGy7IFsRbolkIUGW8PCWiDu8n5C/W+RBogIPA3ALEiOz8WWEX/hrzcf1jm9f6V0U7WNDl5yI9W/sM3Y6h6aaRsljcnw71Kur4XYl6MCNFQAP01M2fOJocO5buEjT/OS77IbGwZXr58TV+HsBo3bRl96m11cCWsnWWv80SpFv5T/CLzoHR5e2Hu0fvkyOkKj9enrrlKBmVt8Hg9bvoV15wgnnlF1ZbOL8rylMGAnLhHxfMF0Shb1x8iUwPDQ76/BiIm7+ARMn9eNv3Zn++1O3ce1mrCpsr4elRQiCjIhI0SN84CAZT43RVpDl+AHpx7efqNsq8QDBU1A+1V0vs55PsnEmIsrXhMqMrBjOZ2z7I+7bWOYAHtBFBmhuyW3yJHu6a4R80yc6b20OnC7wa79t6w/q0e2YUGc/Bd90/xkzxLL/0VNnqmJnhuZ77IBJWs5wNP3sX1rfCb1hfkzZs2e2jU7/OBE85TSkoaNRWA4xKEDWr3+W04QfT48Lhy9xm1N+4xznsviIyfpZz02lAPvtN7Lf0Pcfj809LldskGUvoigl/RKEBGCA1mNlB0tY6culhDjpdUaax049krj8iX43U3OJ5/zigiO/IuShvZze4V9IHA2EC0zpYRA2KdsC/uKMS5k1mwo2xUtr5d4u8DooYvQwP79Usko0dnkWPHCtxet0MlbOyB+09GMTSswne1KGyUuHEOyCCI3122ymBCDDqkMYL6bkTQ7FJmySxtX6w2rLfgiX+obKwln6+X84XxnEUidMOI4jTZ34dFtkDoig8JIGTp/eHlHmZEBRL3Hafzi5w7/+OLBe7ZoUAzNmGj0eAve7IeiIsV7KH50jSWLWFkgzKZ3TJq+fnlTvHM9UYyL/cB6TXJWmZGJM7LX9OPkN9Fr6JN9bJ1QOaI9lnCKnLjbr1LQMgY3in5rdQggc3vkXFY9lXpMS7JvUpF66T1dzyWQTDKP08nMxgQ3yeysxoMyEpRUaYnOz9OnRuW0WQlmmBBwRmSkNCf/n3y69qlEjb24PGfjGJIKBM2Stw4A+37yiMAj/SmcpT2SJ98G6SBeoj7bkRQRzK9f8lOH0eut5ImJ2CWVUKmwlhFQYCe7YLIsVlO1kZd5KQXRTMBSYWTFyvxjwYdIh8M2OU2ZB5mUa7vuy9z2rJC7VXYsIBKdgLEde0S/RasgV8sd0FJWmJif1JbowfY/kw4lxGiAZkJlNZZyRLIiF4b9NxcvaX3TF0srXJddMx54cvSYCqAmS5sebhn2JjTt6ABF+eWu50LxszFV6gTHq7jqWuefR8411YEG3pDYP0svl8kMhWdxWDArQy1mWVvW6XnCVkt17oBEn+bePjAfkeP4IABg9zmTvnL66W3rkdFxd4xvh4VfIB9f5zK/HfFELJ89EdSYQMqceM/aPAtfHdpDNsMGzuw0ncTKZknBLR2gmKsi/cYb3cUxjWXiq1wmRu0J+C+o1lDG31VbtQzNblM5HjaQ5/VxMxR0m14ofv7NKIaCe6/+K5DNttVltZuMzYa7zx86nGg/zmigAY6svXtkBc3YtYGDktnSy7SgDqQIZ14gg0xg6BPViZlhYmzLpOVu2+TS9dqXEF+Q11bxupIwQ3yaTynajXCNYz9/GHcsogUNU2a2EA2zJegAQ+fui89NzGTL5L6Rr1sCXj1wxuptbMdIwBkrnjnOTNillKHNxiQOCKiJM9OyZ9d4iEDAFc09tqUKdNJcvJgt/X85f79eQXR0bERYe3aHsC+R2QBtmL4qMSNf6B9IcJ3F0pvjMURDyt9N8ESCP6AZpr04ZHy/fVkFZ2I73CZmLEfnp+nicFIz9ZFEnCuDEtyn4M5TYn3ppcM/EPykb0wgOo+/DTpluYpaniiMgnfdW/9PVufQdeehU2RFiyJBzhg1lkqPJwUN+i74e2fDxw4TJYuXaEF1XrQ3dRkvUQLYgbmBlae/psxdsJxmhVAyZ04zwbE8M62z2wld27XkFFz9pHf/2MGefsfi2mm5t+GHyH/MaqYnDofOdceTm8wY3hcrZf5+eKjh3Wk5Pxd8kWWZyCN4PrqnWYaBDN8++33UrMJf7IJEKSyPhKR6CW6Wt4o3UZ7I9zGkD17ot1fmOUku+9X7/cs20NZpLiev/zuu1cejoXoeXMiWwMWFp75OiYm7hj9clTwCRY8y4JrxfBSiRv7iOQZNnbgu+8mcuyrAZQ2UUFmoc/CYAv6Mpwsr0PpmeRz2uX1jwS4RA4tJ7R8Xd2IHnErsxiZARb6EOmHt2dhA4EgHiACV9TZM3GDYBkzX/CvbBu+iCfEEDZ8PT/OF6xkkVFAgN3owxkNT7HROI0gV9xfqxyz6hbdRvGFm7THh20bwaUY8KP/h//8em0/D+w/QhLGes6p8cdBzmlicCKCZSYUffH+nWpSdu0+uVBykwyc5WkWAOYe162cGZjDnWygK0SQP/1DeA/MDTquwYD+t4P7hw2lRQYNv+O+k/XX9J3u2ROGcySu5y8xd0gvDX1OS+Hu3nlI/x5QIipb3x8mDUx+HBsbG7HNwpEEFjjLAmvF8FOJG3swekDcvr8iTQRYhZGF8NawXxhp2QhaFpZWPEYLhK0PjUw/u8GpEjtte9Jyqs5uAR0IcB9+NuLMn7unFa3VzuVNja/4c+uLdkaWdPki5yX90GAImytXrpPGRudtkEUiYBIPkAVRmFsxdeoMGvBA1CDYR/CMp87idnwRPRriU2JYP1+6WEqDPZmBALIpyKpYmYsiI4LtcatvkWOXGsm33+slcXCDYj0+fCDHgk5GZDz4fUEQumHdZrJ8j+fTdCvDTINBXBNkm8R9N2PVw8fk9o0KcvnCbSpowJlrLnscDzh+TTk9XwyYecJ/tizTEojAg2CBCYG4TZG4prg/PZroDSOMSCDLyqB3rO38N9C/HYgcth7mxGzdsp3+DGEPkQPra9lxB2LmwRN/hyDf29Okfc9UPHS25O/E8YIWVY5mDSxolgXVipFBJW6sAyLG4ztMC7SNxe0ORibEm4tVVaQ6vkFM2HTgKkR/hvF2v0Cb4mViML3kpdUJ+50FtOwRgz014oEAzXjpRgyFVq7bnzLOSl/niR6aT4cdly7jifXe7qG3WNCd81vYmARjbUFH8K2gZWVFu463NW6jZGzZ0hX0ZypuaIlTg1+zZzDvhDcR2Lx5GyVEBLaL19BgDjFjpQdDRgS+eLKPMidkA5itLQPLOkBUXbl83bUv6KnhRYDY94MM1lf5J2mfg/iZCPL5dYNNDDRFqRy/v2asuP+Y3CqrIFc4McO4cNURj2MBe0686BKCwPeSOTUyl7MRy8o81rNLXH9sR9y2SJxzN+tj/m8p5CLHMyvDUxftbX/LuO9w/2FOTMXDatfroEzcIUvJrxMIWV8N+45pbOAForPfN3FxfZ/17NkzrC5C7QEsYJYF1IqRQyVurAFlR+J3WCT1pPgDBKDacZj3sURY340IiBVtP03dskSi8RyiyN8+HJwL6Xa1YN3p3p5IBTJnTLRAsBhleriHNPHo9+BO+0wrIh8O3CdfxhHiB99tb/XI1vvhBg0a8tqusHFzQ+LJlXs1N2lBh5/lX1YpK+3CPJNmrqyIr7+HuGH9G3gibac8DSIDPRrs96rKGpKUNJhcu/WEOpGhWVzcFytEGRMEmlmjOTMwADAhH6+JPQU4XjEgZceG/UQg+qSuiYoliCdxH4LdA8KyM1aMACBmbpY+IJfOl3uIGXDT+p0kJX08+WvmKY/jAK8/bDXOVtv5EmmWWXCqVAzlblYNBgou1gnvD76wkWdlPMnPaMJ9hIcEoqhmBgL1JvcWRLpr3QApfu9cOHeZVD96HBQxOGXKtLLo6NiwDbdrL2DBsiyYVowsKnHjG9InzUG2Gw4VZGV2PCO95E6fo3J2g+V+jfSSegTk/vThdB9euE/cXrfUU81de2+KN1Zpt6DueVSwUPcxJlogHFGGZ8eKO2jkszldY9e5LZMRI03wvaYJG/0eHjVyTAvKtmT/ufvLsuvl5GZZ8EucZDNsSstqaQDNl5zxwRheZ70cyLTYETcog8G/EAJ46g8HNvHzrRBP7PF0GwGw+BkikXFgQK8PXis8dYbMmjXXbT1RNLC+H6zHZnugXEgmBoNlT9zWO+MeMItEmVm5SWYGLDh+nixZtJr0759EZs6YQ4bMk/e0bPqq2jhT5qKGUXbvOH0ekJWxajBw/lqN9ndzS7s/g/EwwHtWRiTuJWTW2PshoocPz6AZUPftajREhazfzaqVth3yfT1OGISYsbDwTENUVGw+/ZJUMAULlGWBtGLkcVTi0DZxw899UKBAMCx+jznZoB5u0LIh7303+ZHWdyOCBuYIxq324UAIaYLI6sBPOGu9/eXCVxiJwbbxUdJBl5vsW19kb+jyeU5EniOIP1xjmGBwogWCBbQ6IDXkNB4oFOI60X1OKx7TLa0w+Z3Ydc9w3jGzRnwPIzMOQH+Ndl30a2xX2IhPTeseh8/xSXaQLDhDAMdECwJ7iBvWl4Kn1Ww9q+IGZVxztt2RBsRWiPdBDCFbINu+GVF+wwO/I6BDnw2/HoJWdkz0uKiBgOdxyfqS4NAmrucvcS5xfr0F0HAzu3+7mmZmzMQMuG3LXjJ1yiwyKGkIWbliLc0aQHyI+w9mLr9pnCFPe24ZZecB/VCydQMhMxiQZTNEZmSXkLsPnAjWW2kWDxkXX1kZkXwmE98LaMxHhtCXiJAJZl/DTwNnMESgTnxXxMTEfhMfH98pSg/8BQuSZUG0YmQxP/0/SNcv5//MgjPjEioYMEq23L/HtKDYWNxh4KvvRgss77SHfhJ6vfT5KdazDOkl+xH4G5vwAFy12Hfa+4k7ka2jM/8+GnSQvJew3dXHgZkp/9JzbkgFL3qhsO+09wiiBdP6mWixmsUKAzGDSPsXfTcrdNFSkkwzRl6uA8NbXyz4C7seXXuvdzMSwHVhM2zoNWFWz4BfGRvO+njLlu20kdi1TAuKbpffJ5UVwZ3hgYZkdoCMeDrO92/w7mAb1m8i27fvcv2u99sY69EeGc8gCeVhCM6sPHWXEaVGmEYfaKnXz1yjDesZQcDJT1lHdoQdD2M9N8+GEfsi7ieerIvr2SUyDRBXsnKzygePyZ1bVdTJjG/+l3HPziNk5vR5JCG+H5k8aRrZt/eQS5BCFMoEQq9Jl8iz56/p+YEdsLhvMqIfRtwOiNdl6wdKlLnJesJE/vvIs2T53ru2Mh0QIsiw4HrjnhfPvxVCiLIsDQQkMn1wFuTvMTPK/hZBuyLeKvF33PDE07DDaSYlDSmPiuqtnmp7AftPRRZIK0YOlajxDWPyudt3GIJ8Y3GHgs++m4ySFjz1N1aPeBg23VJHMxkh7ESnsy5f5EzG3wdGYphZDCOY5qbdO5bRR7kjAn0a9EO06LOIWKZFui9hpy6m6D6ijBH7TUUXxJeDhhTaeU7QhGQLzvlvei6l556fxYhMjZuoAbKyxlWjtEn2H7s3trZ8S77+WnfpQiMxL24gIrZuzg1SWY1OWSM8nriL9sesTwD7CTFwu/we/R0DIPn10CSNYBJiBgGoFQtfGdFbgSf0TgbIr1/9QIN2AD03eE02u4MXa4y8kxWj7Nj8FV/IDMjMAFh5mS8hAx46cJLMnb2Q9E9MIqNHjSM7cveSmkfuAx3hJGaWLUNfDcQf3wNlhTLHOlw72bpOEedZlt0Q+eX4C2Tb0YfU6ALnmBH3M4j7FSLGSt+SN2IbupkGxNFTaogBK3M73wkQ7+L+Q9TL1m1PnDFjzrXo6Og046tSQQL2n4ssmFaMDCpRYw1Gk7r4Xdahy1F99t1owaqxarsAHbCqO3NJj8eDKGdLKx7z26jVH2kB8iv8jfiam4IJ+Jr4oX9PGr32qkFAsuwEzjXNWNhwDgsjUbamixYILY0wVcBxhCObh9I/9M98MuSrb7qlniLvJ+wgb/da9gDfZ//aY77n/kydOuO8v8Pt4NLV8vW39Gde3CA42rhxS1CFjaymnw1aFJ9aQ8TgdWSm8BSabQMBecXDJ2T3sftk3Moy+rRc3KYV/mfaQbJqz01y625wav4RsPOAOxtzp+LX40vsGGm/hOACJxsOaq+/xPsgTWRnLp6VixjG/EOnycLs5WTIkFSSnpZJtm/dSSoeeDaa41hxn01YK892oK8G/TS8Y51Vrst76LG9UAXk6K+yYjiROOsSOXK6Qnqe/SEyM+h7wr3C+tBQZobvAAga/O2yDJlVyjKaOLeyddsT9+87VB4dHZtrfFUqSGD85y4NqBXDTyVqrMMoa3L7HsOTc2NxhwUNur31X6SX7I/0vhsRtA9Ht+621leSXvzywwF7yXvxufLlArEu/qZ+F736JBUuRvCvLQu9c5hd6r1JEC35bL+pkYB2HFb7kMIBXFO349Ap7wmbOXP2fmRYZP+xWyGCTjaVf/68bHLsWIHLZtlK74q/lAWleHKMZSipEYM5ti8osck/doYKozErbnhswyrx1B3N4SgxQlCIDIqs9MsJ4vzCOICBlVuhoZtloHS2ascrf4IPEcfOgaxPBcfTth0Z9XInZArMsgTVFU9I2dV7UiEDQswsXriSDBs6nKSkpJFNG7cK+68TYhmzZzCMEdh7ps5jf8GMZTdchg7+ENdOtt1glVDJiGvxnyNPS/eDZ/qia6TkUrX0vIvE9YG4p9kY7Z5EhgeZO/HvEecef/sQNLh/UYLGL7dCs4GnTjnMhZM3b9x9HhUV2yFLUZyCEjaRSyVq7MHoWXD/PmvHM2zswGrfzf/4YsF7KNlCLwrtR/kyZ5Z2f0VsyRod+KlnpRx1+0JJGv6uPkrK+162PFw0BBV6bva7RAuEl8b2Jk5F4Fhkx2ssdse8OTmzIEhk/7FbIYLuF8YARARGCJLOllykmREEVeL6TlE2M4PNBkEAJwZ7d+430OXDFvjXLwMi0wFBJA5YxBPuSZOmkqqqx0ETc2iIZ/jppzf0NSao+PUgrsRjZ0TAC2FyucxTKCAY5fs6cBzo22lrQPde8oTSM5kRwMmvzmoidzVJGZZGhqem04yATMzAFAGzgnBsPG4/ek7+OsqzrwbldE4MfpSVhcHkQbZusJg8NIPM23LdUsZwxsab5M6DBpdY4cvUZNvmiX4ZlJjhnsHfKYQx+lUCcRdDllTcRyfNKMLNmJjY5/Hx8e36P4RgQgmbyKQSNfahfXd59Jy09xk2dqCLAM85Pozd04peo4Gb/c0LPB/qZnq7oKVUeiO79PhADHqUvS4j+jyowUCmfLnTNISnm3OYS7R0gvk62rF7ilNNtBqL3TF//uIosaTJLvHU/Nvn+pNzBE2bNm2hgROyBKwMzEkWX3pAYiYVux+gRt4+GVkaWD+v23+XDMu+6rGuFSLYZwMzPabFC6x/0kQd4p5yNtNOUuaOBkGF88w/aRd7jMz4tyzPPpuCc488yvis8F75I3Lp3C2XmDlfXEZ2bt9PJk6YSvfPTMzgnnmlCTY+G8UDgzbjpsvnwZjN/bFLWUkjSqtk6waDOC8QGMiG3SyvpSWR4v6I/HNGEUkYvZmM084vHiD4InrLoqNj6b/IWEIQ+zWUVyCyMjIzB6euTSRQGQh4BwtsTmX+u2IIWT76I6mgAZWo8Q/SoLeDzLCxA9mTcRBB/zu91/38fuIOarH7yZB8asP7217L6XcAbfD+PMexpvFgAdfUTMB9OuyYx2sydk87Q4/5gwF7X8mW22UgzmGdATgP4jnTruFLUyv2zMxx/4RBk7L/1O2Q9TmwrA0CKTxV5svAAmV1TTMZNf8wvaHgK45po/yB9hqxi9x+8ISW9yTO8m9g5t+yzpHJa26Qo2drbDhT6cdXfuueITJaqS226SBTP/mTUZoFMEtjWdZG1swvctRSz0wFBo3K1jUjsjRwOmOC5tjRIrJg/iItGEymZYnFRefc9guECH79+kfCGb1JATOACWvLPfYRdDKjAsEqC86tzBhyghB9IK5Z+Y37ZMXy1WRo5gzy15TdHvsk8ouxZ8mK3Iu0d8wbrTib+UNZSSNEoR1Ht0gnehCVgYA58F2sGHpi2KYSNc7C6D1w+z7rSDNs7MBwGXPrT/kgcSctweJfAxHks0yOJm70ye/tAEb53QoEyDgOxJPe5qXwhLBDxqZ72ukfZMtdAyZD5BzW0SE1hNDEqbFYDogQ2X/qdogMAu/YNXToMHLpwlUaACNoE9e3yweV9eSzhFX0j+c3/1hMxKcG7/bZRG+0D/ssJ/85xjNQ9cZ/TLhApm+4QQ4UPHQF7chcyPZDRiZgmpvcszpOCxs+a8OGdfqbtdmc5+lkhcyWbF2R9+9Uu/XS5B8+TaZNneka4igrbYKgwf3hDeipgZ011pUFzSCczJwOnGVmCnDGk63rNJEtPXn8lCYIF2qCcDAVqkyIIPNhZW4SnPjgEihuW+TXz57T/iXZMn+IzxX3JdRlfMHmksXLL2jfj7OMr0oFAazWXjFkrDITNkrU+I/OMsPGDtBT0y3tDC3/+XDAPo8HyTwhbpgVr0avTmF2QE0AjMyFN9KyLE00eKVuJkBFBs/umSXFmkBp+kwTbZiT0i3Nd8/rOzFr6AwV2TKeNBPTCbN+TsIokfSY0+PTjnzQoCGvnShNwZN4lBchyB48eAjZvGmbKxjWLWXl77PCCYvy6R/N76JX+Xxq8O9p+R7LRcZMuUR6Dl9PvirW7X1lWQ7RTSwSiNItBlb+50/WBmV64jlBjwdc4mTrIzsDtzPevnnfrnySNWYCGTFilKk9sDdBg34aZJ6wDjOgAGGVLcuiONVXIxKlhuJniT1HwSAEzLBhKfT8MUdBiA8YcqDfCOcNmSuYJ/x93AWPfRQ5ZtUtUln3LX0fT9iFM8Eo7oO/lM1DAgOd2RRpzN2++2p0dIwKEhUiAmzWhihslKgJDJ1pho1VIKPxYdKB07A/xnBK8fyIZE5h7/fLvar97iEgJJRuJ9z8YMBuGk/KloE4FzjOt79c1NA9rXCK9ppv57X0kv2R7DgWyZC5FWrns95nX9GIEaObUbIi+4/dDr9pfUHLpfAztof6/jZL4Aa/7Z8vllaxG8nSUwMIHNnyHlmFJGXWUbJo1W6aWdi6ZbtLEMiyHGi297eMzulsDSPK/VhPCjvXoMfATgtZm+jJnkYKx0sqycN7NXQGDXiz9IGHKQDczbR7hkwYP5leZ/aZPM0EDV6D4xnmIMneBzFhZoMcrN4NfKZstg8Ej2x9p5iWlkEzNshw4bqinNOsRA/9RmuPPJIaKYjM3nWf1DV9SwWS2XkOlMjMiJ+LbJps3fbMojNnH0RHxxYaX5UKCmGFTNgoURM4TGbYdLq/eyrwkP3gHNLwINnXbBeQOYW9n7j7W9ny9sLf991C48iPBh10EzioEEKmBseICqHPUgtOI5PQLa3kI5oNkmQV3Kgth/Nee3cnCzWM/iO3c4nzbSw2x6RJU64h0Jf9x26XCLaRSWAlUvfvVLoCaTvlXTznrCmgN5OV1B+eGkAA/Vumbi7w99EF5MshS8iUWStc/Qwg7KiHDEkhiYkDXGVcmJzPB/50n+2U0T3DLJXnQRM1jPxcG/YUHhkTNIbz6+luZu7HwxO9ROL5m7621E3E8Dx7ppQsXbyaZGaOpHN0+M9iFAUN7gdkmbDPyEbI3sPTbDp/sEucZJ8bTHcv7W+OChv8jHOGzIyIN2/euLIujI/qnpPxa+S9Rzwh1GCJHoysk5kQZK6EHYl37zxs0oRNlfFVqaAQVojCRokaZyB/Kny2U5xP9HoY5Vqms1e0IF76ukjEXhieKFvWXvhewvaH+HuirQ0D95HfROnmCDQGTdgOsfOGXx9iBecRGRlkZvhlJmwxdfNScIMskwridWMVc8yePXu7WMrkL/E0HhkFlBZhm7t37XULpjEYUPY+bxw4cTe9qew8Nfiw73rSN3MtyV53zNTOFuJr6dLlrqyNbhPtaWsMxyrxveEmZtkAKDNir4lZG5TSicfCM/fofY/z12fqeamoObD3GElPH0FFIc4b+wxGZOtY8M3KnvjyMiuUOZSByOAEuywMPSri56IczZcbnl3iHsM5xBwfOKLpooZeSgqIGYhA2Xt5YtYOMiTiPotEM7/TmSez0j2nz1UkEPd6VFRMp661V4gc8MJGiRrnIJthg2DfWNzhQMWM3nNiab7LZyknpa/zRHYD9+Lv+279Tra8vRDN/fg7+zDpQC1+x3GhCuitHtmlH/bffUZcX6Pbgy/a9+PDVtpglc8+kU4O4x51O284t8Zi75g7d+4o8Wm/v8RTeQRqmG3DrGz5gY7+lHcx0wBZb42MUNogmwuC4A5P/NG7IW5bbL7H7B0++Pd3n0NBiBqca5YJQRaFt+7GZHnxWHjK+mzAwsIbLkFz5tQVMmP6XDJmzFipZTOa0UEIG3GZHZr11eA12XULBmUT9J3MQqA8cP++QzRbiN9RJsZnapDdQkma+D5vdNpggLH0VjXJ3nCaDJm6j/TNyqUPF/B7/ulyMmKZpyU1bNFl2+kIjImJ/UbNslGIBDBh07fPaCVqHITMdQkBrrG4Q0APuKkLmIf7my92G+67oR6lWrgfkfGQLbdL19wWH0Twa2ScvJLOseEMB8xIDQskpYn4nG5Z5/9PWckZ3mecZhfwedoyK8KxUBkMeIIaesju1bSSZGMV75gyZUpXCBDZf+r+EAE3ntzjZ/TZFBddcAuoMSRSfI85n5OYEdv0jI32h+NxkALZU4NPBuRKlyPAQ7DKP112b75vdRNijE44uzlNZERwntFLwV6DQOUb+X0N1pT12azffY2Kmp3bD5Jhw9Jcje2MEDJobsfn2s3KyOitrwZZHNl7gkFZ3wgGeMrWtUtk/YoKz9G/B/yO88YPI4WosVKqJyPOH8rOZOVhIlFe50soLtlSTLr2Wkz/jkSi9li23VDZY4eDsbF9aqOiolTjp0LYwYQNoxI1zkD7DkOQ7PadJgtW2xuobTNEmx9iBuyefqYJ5f1dY9f5HF75Tu+19J78bcyKxbxQEBnpwyQhbKTnSxM0yHRp/3qUm0EwGm93Aw3O04rHaOv4NhjIKMntrPbiMhiW4+7nSLsGtnqU4uL6/iwrMfKH6LEB8PQZQXFOzmKPgBpPr2Xv9aAW7E1dfpz+wXyQ6Hu2B3tq8O+ZvlOnbPimR9bGpIQrEl3SEAyj6Zz9jlI0lKSx39vMG+SU9dlkLT5Lh2tOnjzdzUYa1xPOd+iZsZtZ8EazvppQWS4zorxLth+BOLEh0wchX3btNnU/Y2WRvLsdys/8FTU8IdZl4kxGrIcBm+I2kJ1hQdO7fTaTPyQdoJbqaKREfbHM5x8ZI3E7HYlK2ChECnhho0SNc9C+xzyerLdHFysE0jRToGegrATTHuyeXnwHGQ42ZwUlWLjf0FQvWx9kjmja/Vnf5fOcdp3d1o7HQ+RSGn0xRiZGXN7iTbAhGJeVVXlQGQy4IBOQGnONxdaQMiy1le/PCIR4Go0SG/SBQDRgPkfF/UduATUa9WXvlXF3fin9o8HTYitPDTAJV7bMjChBSp17gixYusX1mXUSQYBMDsq7+H2LBKIMjBcafNbGl+3z7q/ueJyP/0g/7GHfjOwMskOYpcO/HijD2VcjoyxzhGyIbF1vhKDBgFpkzCof1NJSPvb3xYQ/gH40J2fLgBBistk8IkWDAZSa4e/s7X8sNu1n+2x4AflEyJyu3K9bpndUKmGjEClgwkaJGmfBf58xGosiHgiCjWA7F4GxeBxWSMu+0orHyJqyNaHyNhUtGuEKhgdd7H1oD+gat0EXNTrbdfkeBB1/XlzkhkEaJVL256pooM3wVgwGkDHqxAYDRtbMUsmfV0ycMPmyU85oILIIzI4YZV47d+5xC6ghEtjEfivsMXwT/cOx8tQAPTn7CytpRka2njf2nnqBlqrdr5A7iiEDYme/Q0X+iT/L2iCwrpf0DIF3y6uojTP6aWTngX+ajwZ3NjPHSUZCX41IBOni/qB8UbaujBC+yNCwEkCImhkzZpPionN0OYQha6vBv4H2JnkjempkQzRFIuOyZn+5q/zMl0lHt+GF5LdRy6lL4Zfjzzo8W6g16K6CdqmEjUKkAMJGiRpnQd2sPL/nItoJEWIGPUCWgmRzorcjzUpm6q0vFvyFZmPaBAztY2Y/a/dkq/Zv+xY1WtAsOUdglZhBkU7Ct5FNoGV5nKW2GZE964wGA0b5nng+7P9NzpoxZ8HChUuk/7H7QzzhB9AgjUAbZThiv4cdtzE2ywb09dRge15bIIryHAgVKwGeyNHLysjuY/fd9hmMxH4bZGz4fhdkbQ7nfUUe3K122/f7d6rd5tLAwvnLMZ5le8HubYmUvhqREFSyffImtCBmICLFsj+Imjlz5pNjxwroesjMsBlEgBX3MyeIckuZMYJITF1+v79nqZmM7CECzAVknxkwHSjNc4pK2ChECvD03PhRwSGYBLQRN8OGPsXWbanlpVLWmI9t+NPLgRKzt3pk56A0DVl9xFwfJh1o6T789Lfvx+d2N1Zrl/DWVyNr7JfOPdLWtds/pJcNWup/KmSlgZ0BEHTiOUA2zVhsHVlZWR/xvRmBEhkEANa/+B3mBKVXb7oFfvZMBLQAY8Ao8mnfFS4BA/JPDT6MW+YmakQiOEVvgZUgj+ffss6R6RtukJJLbSIBgazsM8JJvhyNDkgdP5lcPHtL401SevkuuXTulkvQ6OYAB0ja8EwydIbnE/pg97eY9YJEgruWzEZ56R53Rzj0iCEbZtbDVHatnIwfP8llvIBrw5sFwHyB316wacdgwAqZrTqyo7LPC4R1jxtIcwS5EMbGxtUoYaOg0DFBMx/id1yEzLDRZ6MUp8Hi1mMfrZAG5iX7cYxO9W3IekXau4Ocdgxe+2pkkAkSf84DxJBRAqcMBjRASEqO2/+et34JiT+ZzXzxhyhFY+VomN2xccMWt+BPL0eTv1dk/ZNmcv9eJampaaZmAl8apWngfw3ZQEbNP0wtamXvlREuTgiiZaVQ3hg37SJZt/8uuVleS00GZNsONZExaGr4moot3pQBvU1XL7mLGfD40RIydsxEMmnSNGrhDMtg8TiD2RAu+zz2mZEwC2XL0QrpvjU1PKNiXOaax1h+4x5ZsXy1JuTTXUNMUcrHZ2pgwCB+ZqiIEsM5W+VmDWD3NO89bDzZQ4UHlfXSz7JLVoJWW1NPbdfF5eFh60vMsYmPj49oJx8FBQX/IOur8OvpsEPQ+zAgZnyXKkmp9ybkIhtgN4NgBbLzFSlC0B9Ij4ceU1tfjQwmZgD5xmLbgGCBu5pkm+7Uri/2uaMaDJicA/8zqBnpIypYL4ATRLYGQAkOm2kjBoKW3NEES2EWAFVrIifQoAqB9J6CapKyyHM2hy+mL7pGDpyqDEuTO4hz52ly0DZzB/NS9u/NcwkalJ0tXbSKDofkrzPOgez4nO2d0IltyrIGEJhwJZO9J9RE8C/uH3i8RBPWbudaJ0rODh3MJ3PnzCdDhqRQ+3CYZqCfBiKGh27rLP/cUBLZS3EeDYw5UI7Gv2ZGZquOLKls+/4Q2a3CU0XUWCRSMqIP71c9iI6OrTe+IhUUFDoYZP0Soc5AQMwgWNVoOv3fB1twHKHox5CW7qWXtMvvSNO+Gu14fAkHs8xCoBkVKmxRMijZthuRMbI606WdwNSYQRPpxir2MXHi1GlO9tngSTUAdzT8DmFz7coNt6DQTgBz7UqZ9HUnCMevR/XfkaV779On8+KJ9cbPs87Tp+ChDMybNDFlljlobtKFDcwgIG5ulVWQA/vyqaBB5kxm6y3rQXK61wUC0GxaPrIksveEh60kZaHnfqIcEef3cXUDqXhQTQ4eOELmzV1AEhP7k/nzsmkvDc4t7ntR0ADBcEALlLzBAPpmZHbOMjJbdcyYkm3XGltJs/FQANktzPipeaTfw5FirV5UdO58dHSMtUnHCgoK7Q7a91lYZtjYnf7vQS2wxdNt9HsYmwwJzILP9tYDYtpXo9Hq9dfW9bx2DrmZ4bpaNRgI9T0QLEjLQn1YafsEpmsPGDDoJ1ng6w+Z7fOPvDta7m63ILyuBi5j8ve7GIJGYn0KPHENFj1UeI9EZeaSfx95VjzJXomGePQyBCPbwYiyM7PBmwi6mWsbgsVZs+aQqVNnUKKUT9wWI3pIxGNxus/GrK8G1sSy9cNBCG0Ixtyjnu5o6LXas+8QDcAhZvAQgIkZCBYIeL6Phgf+Dpy2ynaS45ZfJO/3yyUf9N9NXc/EYxcJAw8ImzlrdGMEu0RZH3qUcK/CXATntPJhjes+ZoIn3Ny+fdeJ6OhYe975CgoK7Qba91nIZtggYDZKbfwTM9r7qBgK86R6bT88e1IcCuhDBW2fpVkRZM6MVXwC63q8P6PE0Qdh1DDCRIAJbPcGAzgG4ZhMh5/aAitHY+VMgZI9uYaZAGajzJo5xy0QB619Viu5fPlaUOfIoKEbYBkmNOBnjZ9OMxdmmQZvRKkP3utkqZooaiofPCZ3blaSsmv3SVVFnStbA6K0B1kyK+WFeHIv7j9MFmTr+sNI76tBBow3Arh7t04qaifO3ULvC7wHhgDfvXhJy8u8AZmaSBQ1KEeDCOezdShHeyduHS0144+bJwZ1QtTAOADloLJtmxGCBuWTdbVwmWulYjsraxy5U/7Ade5Bp75/AuXcuQu+0oTNLOPrUUFBoYNB9h1nLHIEKA+jYsZacOpB+kQ+s2RWJAWtsoBeOz6vPSmRBIgwj/3XaauXwygb89gOXjdWcQQugwFJpsyD6Wc3tEeDARPbdQjmwEV8VtaEiXgSTRvSHQjIIRIA2D/jyTaedFc9fOwWxERK2QkyTAhS+fkirJwLPyMLs3jXXRI92Z6rGnpKkP0ItFSNFzXVFU/IjdIHtHcGpWb1j/Wn31gPwSIyNLiOVs0gIL5kRgpXyy1k1HwwkvtqEEDrc2fa7kfG8as8Z/zAcAL3xutXP9D72hcwz4mfMRRuQsAic+at3PLdPpvoMNyPBh10EzgoP2OZGjD/tPWBvkzQ4LwyUYOMImzgb5TedjvvdkxFgs0BAwYe6dUrxv/6XgUFhYiFNJjSBIix2C8gCIWYMXp3/Jv+n1FcikDW6QDZKUBkSfa7xVgc0UCgLBUI2nX3RxAgQyNuC9fOWOwo9PI56QwddzKDgUBKuEIMiHfxOLRjuGMsDgxw/xkwIPm7qsoaWpYT6JNT1meDAA+/o+Sk+Mx5t0AmkubCIAiFuHnz5o0rIEUJHRrC2ToQYsdLqsjkNTdsl6ohoPSnVA0ObOx8YRbNpfPldB5N1YPHbgYM27fvspylEZm6qNRjfwPtffHWV4PzIHtPqIhg26xPCcH3oo0nPPb5r6POkdc/ysvNeOB+j4QsDc4/smUQ1lZtzv8r85hLvICYWcD/jkyNVVGDvxXe4IKJGpTwwQ77/p0qt/NO17FSnhoCNjQ0P4qOjmlRjmgKCh0TsuZxf0qJqJgJePq/FiCnWxuYGQnQ9tlDtEV6KRQMAbT9lJYB+ttXJRsm6VhAbgJDWPqeZ4QsYTsxGKD7Ku6/dm6NxYFj5MiR8xDMQ9SwQET2H78V6n02KMd5Q3+HQFi1aq1HMGPJHS1ERIkR9pe35cXAS5TSsd+RPUFQXPHwCe3HGJZ91f2CWCCEhK9SNZSWPdGEHztPt64/pFmam9q/vCUuXOdQ0rNh/SapOYAVyqbuB9r/YtZXg2OXrR8KesvSgLjnDxw4RBbkLJVmmo5dajTkiycgaMJtEABXN9xXuHZ27cxBHPP89adJ36xcN0EDi/UJi/ItlJ+1koYnmPHjLhrZdwmGlmakjyAbN2wmmzZuJXl5R+nDDrZ+pAibjRs3r4uOjm035RUKCgr2YNKsbKmnDkEyfX+g0//9HJgZbkiPO8L7bMyuVSAZFppFkWzTkRIqH6AGAxac9PQMYOQaDGDfPPY7veSlo38XblkbLXgO1HoVDfkAnmDPm5dNZ3wgeHEPeiJrmr8+Jf4NLaHD7xALNNvEZUIgxvgn/qVltWTJjnLbpWoIPvFEHWVC/Lb54Lu6sp6UXb1Hh20+uFfjWg+EWMRwVTY3xV/K+mwQ5MrWtULMChK3ByJzgOBb9p5gU++lkWdpQGQX4BzHyg9naNdF3P+s1eX0fmaAYcCLFy+pIBY/L1REvwyya/70gjEimwghyt+HoNX5UBCMENuyLBjuZfwNoTxy+vSZ9Bwz4jX8bWkigozIHEUO5+lDTcPL1pd9+sSfjYrqHXR3JAUFhfBA+rQ9s8S0p44GsWjmtmLHa0YtuIYgau9zSCBiJMfn/7yRIMNkfx3ZZ2xD2CYycDnG4qCDHpu1Hq78SMyqafuVK+wn/TsxFjsHPmuDvo5A+m3YPBs0WiOIQanUubOXPIKfSHFCYkQpGhzd4JiG3xGYIXPDixtkVDxnydSTwvN6qRqctDwumBfGaKJoyc7bVCSxbT16WEeuXbpLLl+4TRvc2WezQBHXyd8sDU8n+2wgXMxKn8TAOVSEQOevkUhcx6WaoEGwjfXRS1P6oEV6DM2tr8jLl69d90Y4iP4kCBE48cn20QphHICSQAgj2WdYIf5u+ayiSJx39Hqh7wuGFrJtMMIhDQ8/lixZrv0ePgOBvANHcpTNs4JCx4bhUOb+vSiU7tA+HD0o9l36I6NemqYPzOxAQxWlfTZ4yh6BfR3InhjXwX1/M0panCj9k2b+AuzVsgvcW7RPxUIpJO77SMkS0ocFkn0OykwmZG0SEvpR62dkbfSA2r9Ag/XZoLQLomDkyNFUIIjlQHjSy7t6RQJRSocAlg1VZOIGPQJsHb1kTx7YsVI1DPMUL5wvDpp7hWzJu0POFN0ipZfvauerLfhENg1PuX0FinbpVJ+NbDsgyt1k6weT9PoIGUKR1RV11BobZhF4DzO9AHpN8my033G8yuNzgk1/+mVkhFsf9j+wrFkr7fvineRE0r9nbZ9RwomHGcxNzgohcOjPxt9dKHmn/P4miJqoqKh2UeuuoKBgH//jiwXvfZZy4oH4/YiyGATnEDMo4RGXW6RrYGZ7auC2C3qcwrGHYgaQHXjrq3EqeKafIQnOw1H+ZZTGeWZARGr7GwkGA9JMGowcgrVfo0aNyUOZE8qiEKhgIrgsELBCWN6iZAc/JyUNJqNGjSaXL5V6lK3gqXk4n9SaEeKM/Qxxg4GMoqhgfTf88fBEFmbl7tskbprNUrURZ8mUtTdpaRc+ByVnTpSeyYin9+Ln2+2HkfXq+LMdJ4jA2ts1AWE1jP4kBOAoJ2OlkwxrDld5HAtKvmSf5zRhhR1IvwyIckK4ueUVVQdsrY0HD3jQ4eucop+msqKaZmnwIABCXLY9GZ+6/d4q/B5Mtr7cty9vTlRU7J3Y2Nh2PQ9AQUFBji6f5/zyrS+yN6Bv8KOkg+TTYcfdvi9/F73q+m8S1/6T9rM9RzMtGMOT8KA8aY5QaMfs0bMSSL9KMCDbR7qfDpeKST9HE7fG4pDDjsEAMk7G20IO2cODoJbx9ezZ81eDBg15jUCePfH2t1wMTdUAMh/oX9i2dQcNzqurn3iKG+2z8JRdtp1IIisD419jfQYV9x+TO7eqPKytGVGqhkn2dkvVeowtJvFjtpLzV82HbQZClJ2Jn4mA2pvBAU9Znw4Y6r4aXAcIcdm553n1chkVNcgQQLxikCYPzDa6eKNeekzBGsKK7SJLZpb1skL0y8zZetslhgMlRLtZVpIn/pbhhGZnhpJvhqZ3qaLiUU10dGw9vveMr0AFBYUOhH/pOfdXXb7IqYeoefsfi39+P3EHtbH/ZEg++SBxF7W6f/vLReStHtkt3VILD8q+WwXSgZmRlqUIFYx+I/GcREyfjTQboBEOdE5nBAxXPPfPSg9/aR61HrcwEBYCI9T3sbScUWPQ+4DGjBl7BuU5sMZF4MJPtrdDVo6GpnwEPRAFdGDnrLkeTfj65zRGXFmajMhooSRMfCKNniQMzLx28TZleVkFuX+7mgoe/jhRqrb72H2SttB+qRqyBigpcnrApcwJzEpfTCT01WD+EgSNr4wC+sbgxoVr9+B+pUt4M0Dg8Fk6WR+Lk2V1EJRL99wLuF8G++TE7CGQZmck7mZmhKBnWRr8faOvhj+H/rBC257s9WDwzp2HtZqwqTK++hQUFDoYNEGzAqLmd9GryKcpnnb+mNvVtfd66gLZNW5DhbicroOBmZqYicQm7FDDZA5QRPTZ0OGZkvIwjY701YjAMWPbwmcRCB5jlbDCEHlWspD5oZqfhL8j8fMhOo3FwcOwYcPezcgY8QP+42fBIkpRxKDAF5ntMwIdPB1HtgavM2ckmbjB7xBU4rYijegdMCsNa2xoIbdvVJJL58qpTTMjzAAwi4Z/7URBGcneeIXETPYUFt6IjApKjZx6Oo+yJ/EzrATxZhkGNLjL1g+UCLxxfyD4RpbPt5jRee3KDTJlynQafDfUN9MSSR6YYyRaNsvK6yBC+HXsEv0yyKo40S/jZPYI2RlvZgAi6brVT+jf8dChKTRLA+ONV2E2V7DLO7cfPFTCRkGhY6LL5zlv00xNj0Ue5Wc8IW4woBiZm+7pRd/R1yBm0iN3YGY4oZ0fj2xAuDNYEBm4ZuJ+gcEsFZQOzwyGu5efiCSDATMhGLK5OxlpmTeQXeFdpfxxSYN5wLeGfXJcXLzLyQtPzdGMj/Ih2XwR1OtHemkaa+Y3nyPTSqoe1pEbpfepZTMvaBgxcBPlazjmkkvVZOamW9LsiTciSIaQCMTlCmVQ4nZ99ceY9dUgq2S1jA3niAkVRpQ/QbQwiveGHVY+eEy2bM6l0+5Lis/RMjMR6K9hg1l5QjjIjg/OZOK6ZmT9MhChkdAvwxMiERkXq9kZiEg84KiprncJGvyLex9/4xCLkTCg1A5Lii9cVU5oCgodE12+zJkFYfNe/DbpdyvPDwfspVmbd+M2nvvj8JJxnalvxi5kwTyexBuLwwKz6fzB3i8IOo/PRQYrwtzwdKc/ee+RwBZYogcjA2dauheqczVixJg/jhmd9QbiAiU8CGz8afJHIMnmwqCvgWU4ULKCZnz03iAwwhNjMcCigZQW6EaywMG+Y/I/gjzeNU0kRGGNdjxVFU8oK+8/JpWa6OGPFwIP5xdlPSu2n5VmUXwRpUn+lKrZ7bMx66tBEG4lk9CoiZlARYs3lt+4pwma7bTnA8Lz62et1MxCBNzvZPvHKJsR4ysbFYn9Moy4D6l49OJsJhIlohi+WX7rLs14wQgEgoaVnUEYUlHTjjI1jPv35xWogZwKCh0TmlDJh1j5OPmw9HuWJ8rUaHbny0UNrqfb1BygJEdlbdwhszpGv4axOOSQWi9jn9KL74SiRA73icfnhyoLYROwwUbpl8f+itSOyemSOm27sllQlobjOobBg4c2oYSMz6ggKJIFCGbEk1xWc4+gSHQVQy8PBA+m6ON3NCF7PkHWBI62D+il4N8bCWT7hOwNhBov3qwSAT4CffwsniP0sECo+NOHgaf8KH1i2/JFWaZo3NIzZMjUfXQi/cCJu0n2htMkv+iuaSmVr8+TX19nePVSGdm+dScZP24SDb4haCoqHnk4ngHop/n2ue9eEFkm6/Osc2TOmgJ6TsCpy4+T7XlXSE3d04jql8EDATww0LNgTdo5sn7eIWaqKmtJQcFp+vABAhHEvQkxzwQNgF4lZo3e3piTs+hQTExsWJ80KigoBAfMNEDWWyMjStF+33eLdBl1ctKC1Uh7Eh8OSPtsNIbj3Jj21WivhbNvRGPEDi4FgmUw8K895v9a+7ub/NYX2fvf6pFdSB8uaL//rvfqGOn2Q22PnZExIoE1+rcFPQ22MigIgDD0ED/LhA0I8QRBwOaJgAiAZY5MCIpRDhMpgz0RNPJiD6IGx4L+GxyPHctbBOLI/siWgSg186c/A+vjfb5K1SCExPey9DzP30WtJP8xstBjXW+ZDNxDTmRoKh/UksKCErJvTx5Zt2YjmTRxKsnMGEkn2A9PTaeOdeh/4gNvERjAKvbTmBHCUjxO8J3YtR7n5b+GbCAJM+xdG6f6ZfA3ib8JXcRYMVIQ2UDFT+GpIrJ+3UZ6Dycm9qdGH7iP8eABttgYuMv6kyAOWTa2vTIlJe14VFRs2GwvFRQUggfte/k8vpvhgib7/uWJPhu67pD8H2XLBdLhm8bHdEpo58AjKA51+Z63vppQ2hkjCyLbh2AYFjgJ2vOSVjxG21ffBgPpJft9CcW3/p49pssX2a9YTMTz/cSdsu2Gp781MXHgSwTnvMjAz7IgQUY8FWdPc82EDYiyFjwZRkkXvw4CNmQz0KwsGwyI1+of6+ICgV2oy9aY6BN7giDWcDzIHLDhnniNfy+Ip99ovEZje0rKcI/lZkS/hUyI+CIyCgikZTbM6AVh63VLPUX9/j8cuI/8IekAtcb8aNBB7ebcActM+mTro6R9rvW99dWgj0O8boxMqIDItkCsLMxZQsaNnehiXFxfKlxA/Dxu3CSSnb2IbNywhRSdOes6r7jPEGjDCMAM/OBVq4T4YMfJiP8oectQiD0vf7wuMtMHf/tleAGDLCbEon0Roz8guHu7ghQWFpNNm7bSXjGcX5RBQlyzrCPEDM4peuUYIGi+//6Vdh5DY8kcTPbuHXdDza9RUOiYeKtHdg6+lz9I3C39PuaJ7/Pf9louXWZKY45NZyxVi4Q+G7O+GrxurBIySAWWJhqMxRENajAgzzp5EOvJDAaM7AyNg97ts9ktbnwvYTvpGrte+znPfVvhmn80cuTIeXgKjmCKD4wQ0MsCBZH8k3EET74mkd+/V0kFkChweGJfMAGdZUuaIX7qw5PFQQM2OycIMNGLIPYhwYQBZWrI4rAAvS1QjyejRmWRzMwR5M5tvRzPDhEcQ6igjIm/YayQBdhsWxA78ROP0SCdWmOauMh0G14IW0x6A3+etpvETLkkzTigTE/M0pw4VkjFy7hxumABx4+fRLlixRqyQRMre/ccJCXFF8m5s5conzyRC2n0dCDohhOXNzEDYDkribRLJvhQzvDhwL2k+/DTHueke3oRbVDFeROXsYyZnbJAXsCgFNSfbBfuR7wPDwXKb90jBScKyaaNuohBNgaiG0IG/TL83yXOKzIzyGzx6EiCBmxoaH4UFRXz0viqU1BQ6GB464sF0fh/Co5n+I4Wv5t5vtNbz8K/12/7Xu1331PcBdLAFqVqQXSViiQYpUzu5yCEfTbh7qsRgSDdY1/C2HfkD/w1GECpGf528NDbrJ8N8RNiS/wtvt9v5y1cp7BltOLj43+RkNDvJ2QW+IZjq1kbfoL40qUrLZdmMYGDun6UwiCjI1uvjeExGEDwzgeT4MN7teRxTRMVPbL38ES2AYGm7+PzTZSaoRzMbqkaemsQeG88UEq/2H+j3ZyfpRZI12XEfxJ4uoX1l2wp9tgXOJ2xTMLVyzfI4kXLtEA6mUyd0hZI454S3wdCDEOEgN9994oG0yBKy0Ax4PaGN2/ekBdakC77HKvccaTU9QcJUSc7H4wQNsh2/X1sCZ1RY7VfBudj9+59VADjfpgw3p1M/K1ds4GKP8YTx0+R4qILLhFYcPI0Pb8gMoVMxOBBAX5n556/35CVwblGNgvnSwRKzyB0OoqgYTx2rCA/Ojo2ouugFRQUAsNbPbJL8f+UWe8M6Cq5Rk/O5zm0TwRPsSFUaG+N5D1eqQWHHb1UjZ4fybGHQthFQl+NCLpP4v5obI/ZPPTUWLzvqz5OPjpa+7uh5We+TDoQP2FILv1b65ET3hLw9PSM3RhKyQZ2MrKGd3u0J0BQ289KuhD0oaSLBsRGkPW1sR7710VabhR8sSOeE7C64gm5c7OSDuZ8eKeGuqA9qnxCz5cr01T3lIo3ZHGcEDUikR2wW6qGdCFuOJRWyZaLxE2M9XuN3k8dwBhTFl4jw7KvkuS5F0nP0UfI5xkHSPzU02Ro9hXXOsMXXydpS8pI+tIykrHsBmXm8puOENtKX3qDfga/X/6yx9gzNIVq5bygnAFPLWAqILsuPCHymaMeBAgyo7i/ITzMiPWZcOHFCyMTLyAyhXiPeH+h5w1C5fWrH6RCBkB2hs6kaWf2zXY4adLUA1FRMeFJhSsoKIQEbJYN+E7MGloew76v8RSZVR8YlAZbCE5pqY7M/co7W1Cq1lEHe8qC32D3tkRKX40M2j3i4TaGGTLG4nYHas9s4Z7/ZOhX5P3+1uJG9hAB5gLGx4QHyNoMGJD8He21cetzaaD2sbKgQWRR0VlS99h/tyeIGQR9EDd4Al1w4rTbcg9ho7H6UZ3Ha07T11DDRw/ryKVzt1xza0ov36WZjIqH1bRB+97dCul2nSIrVZPZFotEtgE3HP/F742s2fLDftulyzsSkYWxcl7YOenaawmpF4Q/MnjI8OFehvCAoIFhBAQuv54TZBkvPtvlK9MFkQMxw+ZOdXT27dvvfFRU77AOlVNQUAg+3vpiwV9oNkYXL5ToE2U/a0FWq/avpaAYLk7ad32uNGPghTQYTy9O60ilatK+jCD3t3jpBQmtbbAExqR/cb/a9QBoWwYDFshs1fH3aHxE+MB6bdBDwgfuCNKRtZAFDiATHI+qnJvHgcDw1KkiD+GyceMWt9/r6/wfWGmFen+N78btS+fLXcLmwZ1qUl39hD5dv3qlLKRmB5t3fkXmbS0zLVVjpWXeJjTzRDmaN3vMjkQIGyvnhZ0TnMfqGr1cE9cYmTo8BIBRBLJ0EDa4j1HeRZvzX/1AfvYcsyMF1mNleSCyK/4A78PnolTPqktcR2FD/dO70dExLXhoY3zFKSgodGCgxAxmAqw0zQiu7miiZgMsao3VLKOtVM3CTBBP5uNpeDh6QZyErM9GY9ACeZPPo58ZDqtpERCtkn0jduySIxU4NmQfZccHdk/z3sPGk8VI/9JzbnhFPgKApKTklvv3KqTD/VBeJQsgKINYm48enqZGd3epJ0EWNIxWGrrv3652iZob1+63iZqrZdTVSrbdYBGZgfv39ezAjsPXyIQ1N9ym4UOg4GaDExp/E5oRgT7W/1uatfXbMyFsrJwXdk6+HL5JO8+tetmhdp0rK6ppthHN+iivRDaFdxoLNtAnAxGE7A0yMh25xMwKN67fsic6OjbsT/gUFBRCD4gcJ4MqWqqWWTJL+z/A51wQgbRUDXbBxqbaFcz6bILRFG7MzvHMGiBzFkHnT9unQnEfcY2Nxe0eRi+R26BNPNBFORr/mhlZVctbPbJbjE2GF5hrM3Pm7J8w9E8WxCPQD9sQTYmFL29c4DTFzJWM1ZX15NrF21TUXLt8l9QYoub6tZva8gbLznKOUxOaJ0+epkE2StXg+oVStb+k5tEbDnXIuFFlNyVPVpucPMPa8LP2TAgbnBfZMp5MHE5e+pXLJQ99LjDBQCklHMcgMLyBiRC7RPaFlZ7BdAHiic2QUnRnQkK/YzExMSGduaCgoNDxQUvVYEPsT6laWvGYSJ99IiIUfTa0r8YsM5ZenGasFhEwcWtrae/ZORG8wQD6Ziz3Zg8+QmMkjeeNTYUfgwYNroeTl2x4ps4GI3sTHpeyUBDDQ+XH7s6bpQ+oqLl1/SFpbnz2Kitr3I8XL1x12fDKth1s8pk1GELAmIH9jsn5GDKJmw7Wxd7EDeYCYL0Pei8l6WMXkGWbviLF1550SB4/V026DdisH6+XP172B9u112Jy9VoFLT3DOYaYRQM/xIZYNQZBAjcymkXRRA+7ForB46Oqx5ejo2PrVRmagoJCsIBsBoJcf0vV8N72EAwbmSr3/Xe4z8a0rya9JLwN6BLQLJZE1ELwGqt0KHw06NC29/vlkg/67/bpGgviATHipC5f5kSOqUJMTMyvhw9Pe9FQ7326OQYA+ueaFtlEr4TseEWWl1XQ3pqqijpkjqpychYdgunBndsP6XKII9n2g019wnyzq7cHLlsIvFEehd8vllbRwBw3HiyOMVwJqUN2UyJ479p7vX5jaowd5Hs2UUdg/uly1zHj+Pm0K5rhIATZ8pz1p0htTT11KENfGvpoWNkZdRt79QMdXCv7HMXgc+XKNbujo2NCPsBNQUGhcwJZGH9L1fTsT+SWquHJvcd+p5c41hge6X01Mmj7JpuD1GFKn2k5WlrxGD5bhwfh78Stc4sXRTLnXd5WPWKQkpIyddWqNT+KQztlRD+ON3OB9sNWOihRdowikalBlgbipbqq7nDfvgn5vXv3+XnXzj2udcJVskeHZmrXBGQDTVmpFCy1EYxPmbeefBSnixtGWBjzv//2y/nki76jguLoFancnneFfBi3zO088M46EIQLN56ms4ngeAe7ZWRhUFqmxEzkMC4u/lR0dHSHfHqmoKAQ2aBCwI9SNY1VkViqRl2zJMfihMV1e+mrESEVY9o+t+dyNL30jGbOTMX5u3020Xl/sgfirkyNRrgUGpuNLAwaNPhy0ZmS11YzGDSDQ7MU7a9EDWLgscQwQSR6amAWUFujzw0pKTq/NDo65vzs2fNOwwmrzXTB+bk1dsgLUmRvmMiCnTeCcTh2rd+4lQwcsYR06zPPdTOCfxm4gkQPW0SmTp8blPk7kU44nU1dfpyaA7Bz8h/J60jm7IPkStkjWnoGUYMMGBr0kanp7I36kURNiJ9FGZrxNaagoKAQFiDINfoxPJrNLbAwkkrVsD/C/mmBfGC9Lzg20zI+TeAZq0UkqNiTCDJcM2OViAeOgQo0XYRbmt/08aBDTXy8KD4QR6YmYkUNgPr05OShd65cvk5gJuCtLI0n1kOfRyhtjv0l9hH7asXS+cHdGvL4Ub1hCNB6Z+TIUcs1UVM6ZcqUrpmZI9+UUsMAfd1w9dfw5PcdhHDDsUL0yK5N6a1qKnwQtKN8TVzemYjzg/lFd27XkLIblTSTh9IzmDGg9Aw2zsjUoHlf9n7F8DE7e9H2qKiYDuNQo6Cg0P5BS9XSiydrwaG9UjWauTi7Idx2wsa+i/sWUP+LaV+NJqKMVSIaVBB47nu+sTgiAUtnKra1a0fvLc/998UWTcxMf6tHdiEvaAyL9RURV34mgyZufjlgwMBqlN4goLeS1WijJnC0gDBsLmpeyASNFbEGQXPnViWpr9Otm8+dvbQ6Nrb3xejo2FkQf7t3758GMVBf1+aihp/FzwwlcXz8MYAQWw3afqFsEOKGlamBEDQI2DFQEkKW31ZnIs4bzhETurg/IOoxmwalfPhX9j7FSGFrfUxM77LY2NgOOQVcQUGh/QMlVkZQbHcgYhUERjhK1aR9Ntr+G4ttgzrLeW4PYqm+vQw4NTknJNL2n/bLpBen+WlywVgFISoKbH/mQ0UEIG6SkgbfRFkaysz0wM89aPZFCCLY4soyBaEkgnmILSuCprriCS07e6T9q5fXtWVpevXq7ar9XLRoSSlKu/jZP7wzWThYV9tEhQyOFQYPsvOOMrMjh7+iPTfovUGJFTIR4nqdhSi55O8LlqVZuHAJzdRA/Mnepxg53L5tx47o6NiIc9FRUFBQEMGVqrnNDLFCBKm0VC1EzfW09MqhPhs65NKk9CncmSm7kB5HWkmysThsgHimQgQW4+L+WSQ1DkgrHgNhZGy2YwHiJjl5cPHRo8e/QwABm1t72Zs20pIoLWhE5iDYc16am1rp59Ag1YKY4Yn34P2aoHmZf+T4Wj5LY5wWiqys8S/Pn7vs9l6IP9n+OM5myWsSIihHtgECDEIGmRk4uCFoR8+N7D2dhbg/eFGK+xP3N0QfzhP+lb3PRe0afG38K12uGCK2voSJh5pdo6Cg0N5Am+jhQmU3EGWlaiGwGtY+z5E+G+l2NCIbZazSbiCzwoboNBaHDP70y5gwH8KsvWTNAgYC+gEDBh5ZtmxFHXuyD7MAu4JBRmQXWKkUsh3IMrByKb5kSiSEB1sHASreC9GEbck+xwrbBM035N6dh/sTEvrth0EAn6VhuHnzXhcIBJSpidsQ9zWUhAsa+mSYiEFGBlkHCBsImc7kdGZG3DPu94neG3a7/C7tM4Los2+eEN6MZGdmUdHZrcimGn+aCgoKCu0S+tP24hVakGm/VE0LtIP1hB3CS/KZtvphpL06fmwnUkDLCiXHE4pyQTZHSRMy/vbLgLjHcrulF0VHqrV2SBAVFTNm0KDkJ5cuXXutBxWttMzMCYETTvKC5kld08WMjBFro6Njq3r1iok2Dt0Da9asWwzxgCCZ3xZKwfigKzh0D6IrK2rovBptn+m/G9ZvUiJGQmQJxeGzMAqof9JMzxl6afg+I/x84MBhKgoZcX4hfEqv3aDrhLvEUvEbMmjQ4INRUbHtxpFGQUFBwRvoU3gt4NQCT79K1eiTdweDVZSdeXyWFlBjP41VvMKsJwUZhvacIZBl2YKVfaKZvfTiNO0z/HHaY6yCcO6oA0X9BoZ49u0bf53P3iDQRgbH3xK18LDBTdBgYvmUKdPWQdBoAm6yWHYmIidnyVoEuMgw8dtFJoAPuoJCI5hGmVn1ozr6882bd9zXUXQR1xjX2u06aQL0iSZo0F+EzNbKlWuoiME1hX03RCKyN8uWrnATNsiIHT92Stvm13TbDx9W03/Lrpe7faZiaHjvzsN8/M36+ntVUFBQaI/Q+1KK0/wqVcsoyXUqiNW25ZFFstIX05H6akTIslC4TsbigAFBiUyc7WvPEf0y2E8nZg91eCB707dvQuPWrdsf843ncJJC0MgHkZFEamagiTD2pL3m0ZPiESNGb0RwFBMTm9OzZ09LTw9cwkbblvtnNITkKX5Toz4YtbFRD7CfPfNcp7MT10F3rGvLKKKnBuWDmzZtIf37J5GUlOEkLq4vFTMQMeirgROgbHs80VtD+2soW8mJE4X0miD7I66rGDympqbtiI6ODmimgoKCgkJ7AA10/SlV04QFGsoDKVXTtrFf3C4CZmOxKbT15H012v4Yq7Rb0CyK5NhQpmasYhvol6HX2IF+mXC46LV7QARADGiB4bOVy1dX8X0JCCoR9IulP+Ghnp1BYzjbvxs3yvOGDk3dqgmaeiNDYytty4SNWIoGQjixzwka0bBuCKin4rJOTipohBJJCJonjxtphqZPn3iSkNCf5OQsoiV7vDBv+fpb8uLb78n3378ir179QH744UcpX7/+gXyrrcd/Lrhz516P1xSDQ5SN4u/X7t+ugoKCQnsHLVWTiA1fxBN8f0rVjDIocXte+2NkGQ0Q5XJWy9giHbT0z/P4LIs2V79MRkmudj1Vv0ykAIEFxEFsbJ/m0aPH3jx8+Ksm9yBEEzmGQ9nj6tD04yCoRf8ExBXLoDTUP727bt3G3Li4+FPI0OBJr78lLC5h0ySfG+N+/IqhILKFuOZu16K2iVQ8qKaGCig5w8we3r75m9YX5LvvXmlC5Ufy5s3PxArevHlDXr18TZ4/F4VN8DN1ioytL1NShq9H5tj4k1RQUFDodKClXppQ8bNcKRcZAmNTXiHrs+meXvKKDm38Inu/Mbgxv8sXOZMxgd60r0YLwjtSJkEq+NKLn9LzoJ0Tel6+zJmlnRvXeVb9Mu0IEAlouNdEQ25sbO/nEyZMLs/PP1EpOkzRbA6czDShE4iLmUhsC0/qeSvpp83ftJw9e/HgkCEp+/B0F/um7WDANwITNghmZfsSicNJOyJxLyFDJgpmiOj8/JOuWT0wB4CgQUbmuxcvadbFKiB4Xr/6gbzQ3of3e+yD8Lti8Gk4oZ3398GEgoKCQkcDSs38KmOipWrFK3yVqmnrepTAvRO71jWFnvE3PZeS7sNPfy+uC1oVUu0FVFhKjlN2Xt7+cuHF7mlFD2TrWyGybapfJozQszixCZqQgGXyNwMHJt2fNy/72qmC0zWyYZAIUFHWhSAV4oQNmpSSOlk9pY5s1O6ZKzEDkZnZtWtvXkpK6kFdzMSUav8mY5+M3QsY8+bkzJo/L5t+nswVDoE1v0+KzhHCld4jglkFrkNZaTlZtWotFTO4Pig1a/n6ORUzP/34kyFVvOPnnwnN4OA9ra0vpPugGE621sfExJ2JiurdrhtPFRQUFIIFw1UtVwyOfZFmfkzmmWjLPbb38eAj5A9JB8gnQ/LJR4MOkvcStpPfRa0inwz9ym09sCP01cigHZuHex3OC4jz8kHiLvLbXsupuPl06Fc/iuv6oOqXiVRgFgzKRjSxk6/9+zIuLqF+2LDht+bPX3j+yOH8m6dOFZdeunD1qTyQ8c7yW3fP5x08cnjq1BmH+/ZNOI3t64IqNtmqGYBdLFiw4K9oOMfnm/URQXSJ+6ponxAyVPBKSxkbyPVrt8i2rbnUAACWzeijQXYGZWbok7ECZHBQkob3yPZBMXI4Z86CxdHRMRuMP0UFBQUFBROg54KWqqG3Rh44eyPt2zA29d+MXhC6rNvwU6RbaqG4PuWnKSfI76JXkQ8H7HW91pH6akSw84Lj/rD/HvJZSoHb+aDHn3aGdO29nryfuNNjmRsNNzvVL9MOERUV9c8oCUNvjiFCClFaov1LrXY1vurfP6kUhACaPXveaXDcuIkH2Ovx8YkXDRFTZQgmbVuBl5lZAbI/GNCJQAuZI/dgWycc2FTfhT0ic8cGriI7xzua8Sw4eYYsWbyc9s1AzKDUDG5mXz/7hjb//+gjO4PszcvvX5Hn33xH3yPbF8XIY1VV7Untb/1OsB5YKCgoKHRU6KVqJTm2S9UySlpQqvZh/72Dft9324+/i1pJPk4+LFvPxW7DC8nb/1j8M4L57mlFzR054/C7mBXv4py83WMR+XTYcen5AKm4iV3nucwoBexoZXoKAlA7j1ITkAkgg2PY62A4a+wTEvq9Qf8QMgqy4BtEgC4L0BQxX6aFZrX00kPvxhL371SRA/sOkZkzZpO4uHgydeoMOneGDSFF7wuEys+oI5Pgp5/0hv9vn0PIPPfYF8X2wNaX/fsPhJNhsvEnqKCgoKDgBxBEa0G1rVK19xN30HKqd/tsli4XiYwN1oe5gPGxHRKGOQB5L36b9DzwxDnplnqKfJZa8BwzalS/jEJEITU17Rs288Qss4DXeTODzkYmXpDV0gWM3jslP1ciG8jhQ8fI3LkLaM8MzBp4e2YIFGRnZEYAaPhHGRqWo8dG3C/F9sfCgtMr0S9n/PkpKCgoKASItlI1T9tikci+IID3la1hRGkW1tfe97X2OxzAOiQ/HXb82UeD8iydF5yTt/+xmHT5IqfeuAQKCpGDcVkTSjHQEUGXt6GkaGqHLbQYqHU00jIyZGDqPBv7rRKip7CgiOTkLCYo9YMBwLFjBS4xQ+fMSFzNkKlBwz+WtbZ4Opcptm9iZk1sbG+NserploKCgkIQQEvVMktmmZWqwe0MQgXBuWy5jG9/uYj8vu8W6bKORGRhrJ4XnBOcx3/pOVeVVCtEFiZOnDpNt3yGE9szaaDOiEA/ovttAijPunD+Cm3Yx7kAN2/eRrZt20nOn7tCBR96jcTzAbEHEQP3uKrKWvJV/kn6XmRmUGYGwYgyP/S/oHwMZWQoJ2NAxRlr+FfOZR2bsGxPShq0Ljo6Os3401NQUFBQCCIwH0ULwt2GRr4Ts0bP2Aw+4hGsy4ieEqz/+75bv5Mt70iEsLFyXtg5eatHdotxqhUUIgcwEOjXL/FnBF+yQZ0iEeSLQVtY2WwIrWb8bl3Y3C6/R4UMBAiMHiZMmEwHX0KMgBA2aObPyhrnWo7MC15HKRnei5/xGtZhmRm8l7mZYfK/aACA31nDv2y/OiOZTTpIZ0MZJX9mZOu2p/LIZcuWzdLuow5do62goKAQiWCT8VGq9m7fLc8RlMO+WBa0i0Sgj/XfS9j+ULa8IxHC5oPE3dJlPNk50XjeOMUKCpGFlGGprazPxkr5VSTNt/la8ppM4KBBH6IDGRXmQrZyxRpNpBTR46GzhQyiDK2x/pnb+5HRQTkZxMz48ZPJqFFjyIgRo+hrVy5fp6VjmBmDUjK+9586l7ka/t33qbOQCRcqTFDip51jWQYsEPLXDp8DgUQFUASIn2vXbq5DX42TM6gUFBQUFOyjy5eLByIoR48IXM9kgTtPluH5sP/uw7LlHYkQNnQwaXqRdDnjO72NwZ1f5swyTquCQmRh0sTJp5GBQBCGoFAWOIqM9OGdECwQIcjIQMiAOdmLyMEDR8iN63ekxwRC2CEo9tzeGbJs6QpaZoYMDc7Xo6pqWl6GJn+GN28M57JO2/APq+uvSYMhYGSDX8NFJn54ASQj9p+KMQd6yh5V1uyNjo4tVH01CgoKCpGBt3pkFyIwR4COsipZ8A5iUCcN4L/Iqe/W/+hb3TOLP+3IfCd27X0cr7d+IuYSh3PS5fMc9bBOITIxcuSYmClTpr9BIIYn3LKgUEZd3ISv54Zla4qLz3ksKzpzlgqboqKz5Hb5fWrFzAe2Mgc4BLv8NlCuhvIyWDPPmjWXWjPX1jwhr1/94MrKQNTgdzT8wxSAf3/nYSsVg97MJyKR9F7Q7guIGew/TCPkx+cf6+ubj8XExB2Dpbvxp6agoKCgEGag4f2tL7JbEaAjQ/HRoINuAgelVixTA771xYKQzBYMNzSh8jY7Zhz/J0PyXecEpgJd4za4zonGBONtCgqRiQEDkr9DuRbKd/TAXx4MitR7bsJvKCCWpMlL1NqIp/FtgXiDK0vzVCN6ZJCdQbkaczODcEHjPwQNys1QdtbZG/6R1YAoiJysjG7m4KIhWqhwqddL05wWL15Y2qdP38MxMTFqWJmCgoJChOFfe8z/tRacn+cCdd3CmPsdWYnOImoYcLw0G8OdB+aABhqCUIkahcjH2LHjdyDDgWC11oawAcMibqhZAGh8LueIBnHCfvZGZGgQDDc3fU1/bzL+Xb9+E83O4Gf0zqDZH85lMARg7+3MhCisf9zsh6BxFx7YBhMeIFz5aF+MBYZQoNgmMjUQNVFRserLX0FBQSGCoQXxk1lpmit475Fdqv27orOWWuG4tXOQY5wH/bx8kXNHEzUbIAiN1RQUIhs9e/b81YABg2g52oN7NeRRRZ0kMDUnelMgisQgL2ikQob/PPxs/fOxr4+rG1z7/KjqMTl58rRrGb+uok70nlgtN4NwQakiBAuESGc5p48ePd4WExN3RmVqFBQUFNoXVNDuCYgcNatGod0iI31ERXHROfrk/PqVe6S6Uh60mhFCIVQWvFazMmZE6RkLttE3Iy5X1IlzhPsB11Z2zRkhbGEYABEj205n4Lmzl1bDKKBXr97vGX9SCgoKCgoKCgoK4UBGxoiEmTNn/4Qg7V75I3LreoU0iPVGlCfhyb4Y9EU6ffXkdDbCRMJ7uVkDzcjwArHzsvXOyJGjlsPSWbmfKSgoKCgoKChECAYPHtqEmTYQJxfP3iS3b9gXNyCe8suDQMVIJnU389JjhVI0fcaPKtcDr1+7uRWlZ9HRsbPi4+N/YfwZKSgoKCgoKCgohBti1uZCyU1yt7xKGuT6om6frALgSCfMAFBGZpadoWVm6JVxYK5LR+H16+W7ExP779YETZWyc1ZQUFBQUFBQiFDwWZvLF8qpuIHIkQW9vogJ85HsYNV52UozL2bZGSVmPNlQ//Turl1789oEjXI9U1BQUFBQUFCIaPBZm0cVT6iwQVna/TvV0iDYNxuoO5YYKCqGnt56Z1BmpsRMGx/er7xy7FhB/tSpMw737ZtwOioq5qUmaPYrQaOgoKCgoKCg0I4waNDgemRtEODdKH3gEjf+lqWByA4gsBYDSMXgkjmbidkZOJ1B5DTR4aSdV8zUVj+5cfL46eLFi5Z+NWrUmLz4+MSLhoip11io/Tw5Ojq6Uw1pU1BQUFBQUFDoMBg2bNi76WkZLxH40ZK083pJGlhe5p+hgM4GmhVQvTfBJ4wAntQ2u849yssgZOggzE4mMJF9KSg4fXXurLk3xo8ZX9m/X//WhL4Jr6Kje5OYmFjt39hC7d8cTcCkoWdGGQEoKCgoKCgoKHQgpKdn7N6zex8NDB/XNNKMDRM3yOLYnXPDE6VQSuA4T1d2RhM0dJo/Sss6UI9T5Y275OG1clJefIlcOXySPLh683XB7oP387bvfXAwd8+FKROn3Bs3ety9QQMGPUuI7/dtbEzvN7p46U008UIS+sSTAfH9ydhhaWR6xmiyYeocEt87/oUaqKmgoKCgoKCg0IGBp9YDBiR9W1VZoweVD/V+G8bSy3dJdcUTqXCxSiVwFEFesFzaf/THvNWbHm+cNr91zfgZLZNTMr4dkzzs+xHJqU2aKPm+X99+38fF9vkeQgWipXds3M/6z7EksW8CFS4jBg8jE1IzSE7WRLJ5+jyyf/4ScmLJGsrji1eTXE3QzEodSQb1G0BWTpxGtO3VaPf7L41bX0FBQUFBQUFBoaMhNTX1ywkTpnzPAtCH92rcxM2VC7fpazLRYocQOMgwqB4c67x94eqd9P6Dfpo1duJP9y6VSdeJFD6uqKXC5dLBr8ipddtb102e9e3c4aO+H5U4mAyNTySJveNJ39g+VKjoYkXPsIB9evehYmVgQptgmZo+UhMkM6ho2TZzgUu08Dyzbisp3phLjq7eQHavWE0WTplO0hIHkYTefcnAvv3IrMwxLsEzf/TYRpSiGbe9goKCgoKCgoJCR0Ry8pCFG9dvof024ANB3ICB9d24k1oN16uJ9ow4D7zge/Ko7tXmGdmPIAYGaQF6v7i+JF4L/scNGvbz3uxlP5XmF9IMCL+NULK58Rm5fuZCRe7ilbUThqU/HzEg+af+cfFUUOjCxV2wZCYPIxPTRpLZWRPI3mWrKQ+v2UAu7tpPrh85Rq4fPW6JV7R183N3kTU5i8n0CZNIxrBU+jnJiQNJxqChZNrQdLI0fQzZOzPbQwSd27qb9I3r+4PK2igoKCgoKCgodHAMHjy04Kv8Ez+w4LXi/mO3nhvw2qW7pPLBY6lY8Zdw8sLwSBgYdBahg+NE4z/EnT4DSD/uxsdNJH/d1sq0fgPfxMb0JqP7DyY7Rk6mnDoolfTThA4CeSxL6pNARiQOItPSRr7eMCvn2cntewgED7ImILYlfq5IVh4m47Vjhd/sWrrmSe7iVU1TR2Q1jknJaElNTHqt7cPP+PwYQ8AkDUgiwwYPJTMmTiYLZ82lwuP8/9/eeQRHdab9fpaznOXsvtndWd2a1a3Z3KqpuptvOVVfGXVUt3IOKGeUhYSEiBIIAQIllBOKKCJkEQUIBDbGgE0SGCccwGD03vN/u9/26dYhtxhj/r+qp9TxnNPdLN4fT3gPD4mliZlVYrLQPyRlRh9H97eIo/uaV8VMfaNoKq0SlWk5IjMmQYRqgheoiVKsI1TkhceKyphkUROf4fl+uvM2isGKbV4yM76jXsy3dIkLR6bE6d5BUZ6efU+75jL3P3lCCCGEEPJHBP02YWER54/OHPtFLXxv3bwnS9H0cvO2I6FfFtjwE5O9ULaGxT8a499n4cGeMfgM+Dz4XNhLRo5g1mVo7n5xR/TV7LuR4HQJTWx4pGjMLPIs2n1jS2yqSNakJkyTG2RJLGZXhsQVVmGz2OTjyPi8Ttgtdrew/JZ1Qchj2Rwi2hEs0kOjxc7kbNGSV6qJxHYxumWXl0y8aXRvrBY16bliQ1SCiNQkBufVS8y+9dmrvoe29ELRlVMmRjbXeo4DmTl2sE1K1KXJo+JUd7+Y2n1APjeydbewWuz3Pvroo7+6/9kTQgghhJA/IpCboKDQuc7Onu/Vovuetii/dP5zL7lBYLDAZ5+8fe/N6wbEB1meV4m7tzWZgFCgt0f7HP7cmFKWj+GY7lDnwTnV+X+77mU5ltm1n8xvx7h69tIPtTlFy+F25wqmemFBvyshQ/QWbBJnB0fFXOMh0VtUtWpB/7xABmNHfLooj04SOWExIi0k8rWiJDJRbItLk8fYl5orunLLRF9xlTi8casY2rTDIw/+iMM76kR1chbK6zyClhQcLko0sdmdmOn1udp0t32jJ79CTO9pFB83d3pkBn8hN5Ac3/NWpGXfYq8NIYQQQsgHQkhIWFNtze7le8uYZuZahN/8clmcP3NlleCcP/OpLFvTy8fvOTDE4Cbk6OZ9cQcZFJ0IvSiMjvWiwHlwfGSd9BPhvvzk2uOB+oOfpoRGPUFmBRma9UHhXhkJLOQ7M4vFxK4GcW5oVCyOTYpTXQNidn+LmKjd51mkY/oXhEPFQEm1FBEVEJMXRU9+uee1/SWb5TH02Q9/BZr8IR5jdQ2iNC5ZSgwGBRRn5Yjq1GyxNynHS1b00Z5RJK9zoGyLzA6hTA3SovpzIDKLo+PidM+Al8zMHmh1vWZoTKAU7fLMMRmL2u3Q4NBHzNoQQgghhHwgBASYMyIiIu+cPLngKU1DluKLa3dktsZXcLDvzfWr74/grEXIoQi3vfeVufnZdTFZ3yya8soeJgdHPLNLmbGJUHuQzJAYLeY7s0u8xAClVGh+RyYCvSuyf0Vb1GPhjsU8Mhb61/8nQ2ZPtGuFaJwfPiJl4vTAsNiWXyJCHcGytKzBLTL9moid6h4QS1NHxZm+QXn7dO9hcUb7nAsDIzJrpfpz8JlxLH2vDvpzxmv2yvPir/qOLk3PirPa++VrNBFSpWjqdSnR8Z8GBFic7n/qhBBCCCHkj47ZbP67zWY/XVRU8oXa68YV34lrV29LmdEPGMDtC9pj71MG521C9QMhK7O6D+i7u/2dvRcTQiKfBGoyg54RlFxhCEDrho0yC3Oys09mXTqzS1fJzUhVjWcx7hvI2mBRj4U7FvLIWGDRjwW9EgEcW4mPvilficCbBDIv+owJQk01WxybcGVEkD3pHZQZGry+dUOZQG8OhKYlZYPXZ9SXmI1u3S0HBuivVR/6TJUKJTOQGGRucF5c28TOvV4ZGzynrg3f156ijXe136PH/c+cEEIIIYR8KOB/t222wNtVldVXvQUHWZxv5aS0C+e8JefU8UtyRPR/MouDcjDZrK/rfcFjRq99lcD7XzTB7dOlK5crCsqWo8MjV9DQjzIzhy1Q5EfGeS3oEX2FleL4oW5ZJoUFNxbkQxXbZekVnkfWZkxb7Psu5l8UKMNSIoBjK/FRsqNf5L9JIAODY6iMCUJNNZuuO+h1LSgb21VQJiI1qfHtmTEKlJvp3/+8QEYIk870MgOJwXMQKWSKkN3RZ2yUzOG9+J6RQdJ+n4foKXP/EyeEEEIIIR8KWASaTKZECE5RYfHSsdnjX/su7LHYv6Ut/q9c/lJcXPxcLLhL1hZOXBKXL14XN67eNhQGf4YqB3ONUfa+PhWq8f/Orfva9d539d3cgAi54pZ2H4/fvuXab8do6MCDr77/dnx4/IuSvMJvEqJjn1k1iUFWJsQZIjKi4sTOhHTRnl4oDtfWi9jgMLE3eXUfCZry1YIbGRZkPbAox2J9Zm+zGKmuXZOel7WOQe2600OjRE5sojjROyDmmjs0SauTpWeHUguktCFL5dvzg14fCBG+DyVokBjIipSy6VkpgZh0pmRGZm2aO+V3B/HC7ZdlpVCaFhMR9aPFYvmH+583IYQQQgj50HAJjiVSiymLxfowOztvcaB/6LZ+0IBvIGvypSYLEJ6rV26Ja+4sDjIgX1y/I0u6fAXlxbHsaup3Z2OW3VPPjLIoiM8WL4uO+oOPulvaxAOfyWQvinvXb4mFYydEf2vnk4qyisex0XG/hAWHPnbaHCuQGGRkIoJDRXp0nKiKSRZDlTtllkCJy3jNPjHb0CIHA0RpwrO9sFTKjl5usJhHOZpadKPkSmYVtMU8FvGqvAzig0U+FvtGZVn/qVCDASBjiyPj2ve8X0SFhouK6CT5+dqziqXUQG7QR+Ob/VGBz6mew+dWj0NicHyZedFNOUOmCJkjKYLad+WbMXpZRIeELaxbZza5/1kTQgghhJAPGU1y/oIyNW2R32o2Wx4mJSYvdnT0rCpXe5cBwTo+f1o07m8UuanpItgRJKwWm4xAW6AWDrE+Ou5ZeW7h04qC4l/0UZ5X+DQ7KfVZZEi4CA0KlhkYq9XVHxMVHikKc/KE9jlFakiklJXOnFJxYWzSIynzrV2yV6QtrUAKzHltoY/X4LkjmuRUZOWJEHuQ2JaS7SU4HdriH9kbveCoUOVlKC3DIh+LfaNGerX4RyDj4Xuctwl1XATOhetQgwHwd7a1Q+zMKxZRQaFy01AMB2h1fzZ94HtRn1H166gwGs3sG3gdzo3yPfT2QABf5X1GsSE+5bj2u3KzTkIIIYQQ4g0yOWaz+d8mk3m/tmC8a7M574aHRy+VlpbP7t3bsDg9dWxpLYRn+e6DTyYnZ8+2t3f1lxSVjjgdQU8D7YHCoolMQkS02LahUEzUHxRXeodk7N9YKTYkpQnIi29EhUaI9THxorp0o6jftlPMD42KaydPiweXPpHxzZWrIios4geMZ8ZCHTKCSV64DVHBgvvIznrZG4MFPLIseA5yA8nBayBEqaFRIjw4TJTGp4iDKXmehT+e7ytylWMZLcZ9Awt9LO4hG6pcC4GMh8p+6AcKvGooaVGhf+5EW7cYqK0XtblFoih2vYhzhsk+osywaE8vzfP2nUH/kNHneF54sle9g1LmcH5krfRTzt40tmRuOAchd//zJYQQQgghxJiAgIC/BQRY/4Wx0dgQUVtETkF4tBAhIeFnEZGRMZc3btw0/SqRlpbRr96HsFptiziWdvxH7mP3aLfzY6Ki52s2VblEps8lMy+Kz4cnxO35U+Kri0segXle/Lh8T/Q1Nn+H/Wcw4Qs9IyivwqIdknNGO59aOJ/q6pc9Mu0ZhZ6SNLXAn9nXJPq21IrK3HzhtDlEenySKI9PFg3pLrnBa7Dx5OGN2wyzOK8T+oECrxrIpuC9EKymgo1yI828qAQpMSi/C7U5ZWYmPzxObuY5uatBlprps1DPixdt9IlyMk8ZnrvfCBkpTD7zd/ndnrzSxfiouLvuf66EEEIIIYS8Pi7hUWHOf5XA4AL9+57X+J2QkPC/osKjfoWwGImMis/6R6XQGAnM8+LR19+I7298KUKDw56mR8WtHMoskqVoWNCPba8X862dctEMmViamBZDldvl/cXRSdFfvFl0ZpV6sjcjm2tkpqVPk6POXXtETliMCHeEiMjgMJEeGSvKkzLEgaIKr8X4WgSyS61Fm8S+3GJRpZ2zOC5ZpIVFi2jtWiCOmGqWFhIpSjSxgcT4jmxWAbnBd3G8rVtM1R0QA6XV3oMBilwbgUJsJjTRw2hnlNepTBMyQ5AZKTLNna/dM/O60bRpy82EmPiv3P9sCCGEEEII+f2REJNwc7q921BoEJ8Pjol75xYN5eVFAalZ+fWZuHNhScRFxwq7NXClpXKLzMxM7zkopusPisGKbdqi/IC2QB+WC2hkQBYGXLexqEfmZkpbtJ/uHpD38R68F3KA57o0GaqMSRYF0YkiKSpOykW4JhfJMfGiJD5FBNmdoi63SOzLKxUN+RvFTGu7FCkISntJpXzcKPbmFIu6sk2iJCFFiktcUJhwWgNd/UOhESI+OEJkhkbJLAzOXxOf4c5CDYruvPJVImMUGBSA7+J4W4+4OD7tVc4mYxoxKzfkhMygVE/1BumlY61jpr5J9Dc0PbLbAufd/2QIIYQQQgj5/ZGRkpa0qahEXNHkwldqrh4eFfc1MTESl1eJpz//LJ4+eiz7bQYPHRJ2m31le1yaZ6QxFvjT9Y3iREevXESjP2SusV3e7i+uklmN8Z17ZT/OYLmrR2ewYrvMZpzuOSwnq+EYw7oJay0FG0X3rr1SOoJtgSLY6hCxjlAZIU7XkANEsM0hBQglY+p5fWyITxbVG4qkuCD7giZ/HB/iclaTr96CTfK+PnBtZwdH5edT12bUQ4PBAMjMqP1oMMAAJWRquhs+Lxr//T3Y4FVDjdTGdZxo7xXbcwrmte+Mm3QSQgghhJDfLxhkEB4a/uiitiD3FZubcycMheVV49ur12TW5tnTp1Ju5gaHhE2Tm4zEZHGgtEou8iEk2H9mpKpGbiKJfVVwG4KDxT1GFZ/W/g5X7ZSiozbiRIka5AJN9uM797n6VrTb+iEFkJIk9/AChL7PB4GsD3p61H3fmGs8JMvGfB/HeXEcJWf6kKV22uOQNVfJ2KQ4e3jEM1BAHxAH+RpNZiB1sqzsHcoMvmtkgNCrA5HBNWGAAq4HpW8YPAAB25CYNITeL/c/GUIIIYQQQn6fZKWmj7bX75NZm0/dUoNsjZGsvG58d+26WFlZEU9++kl8fflTcWl2TqRqYoNJbDaL/dmeTdWyLAtZF4wlxoIbYoPFNRb5yI5AbtAQjyyNWpRDGNS+NtiA8tjBQ/Jx9Juc6nGJDXpcHPZAcSitwCMeKP1CCRhuo4cHi/n27BLP874B+YHg+Db7Y8E/ry3+5TXvqPd6DoHPgOuBHKhBA77hj4llLwp1bnw/EEglLwgIFUQSt9GrA5HBa/UjoVH+11tQKUpy8r41mSyR7n8uhBBCCCGE/D6JjY39P0kJiU9uzsx5sjX+EhvET/fuC4DMzc8PvhZff3pFLC9eFMnxiTftmuBABNA7M9/iGigAOUFz/Nj2OjntC4vtY+7FuVp04/HRLa7szcfNHTLUe7FYx679OO6W4jJRGpfiEY4jO/a4ZEaTKezoj0X/md7fsjgqVGYIgYwGBAalZup5TGGT55PyNSIuTkxr0tQts08oNcNf9f61CJwXIoISNl9pURt4IiOE+7g+vEbJC8LomPqAmEH8NJl8ZrMFLmNyn/ufCyGEEEIIIb9fEmLj50ba2qXQSLnpGxL3NfkwEpU3iYc3b8l+G/Dj3WX5WFZSyieBVpfYYGEO6cCiGotwBKQDi3I8hmwN7uM2StSwcFeLcJR9YYGP28jsYEGPY6K/5eNDXSLUEezpkUGGZ3J3gzx+zwZXjwv2eznZ1e+VlfEdHQ1hwpADZHxQ0jZQtsXreZwXx1H72qD8DJ8J1/yqMoHAedTr1feg33cHx0Ygo4X7KGHDa/TSos+6vEmgnA+T6FBu11y57YLJZObgAEIIIYQQ8n7w0Ucf/TUiLOKXWydOe7I2nw8eWSUobxPI1KDn5uevHsj7SXEJd7HPC0RiaXxadLtFA9kaLPDVwh6PYXIY5AGLdpRQ6cUGmRJIhbqP57C3DQL74OwrrhBJwa5eG5VJmajZK2VACQyyMmf6h6S04HXo6VHH04fK3pwfOSJ7Yp63ZwwEA8eHmPlKyYsCn129Xn1+NQ0NYXQufwZ6itC/hPMObdz2a4gj+ADGh7v/mRBCCCGEEPL7Z318QkfH/gZxc3beIzevu3/Ny+Lxd9/JcjTcLsjKvuK02mWmBGONIRRT2sIai3sssrG4x2Ie8oC9bvAYNsRUWRG1GEcJmxIgxOLohBjd6hIWNVgA+8tURCeJgVJXpgUbamIPGWRqVIYDx4a0nOzo9ZS5PS8gXsikoCQO2RNkZ9Rmne9LoAdH9d9gzDaGM+C7wuQ3/CZ784tbTSbzWfc/D0IIIYQQQt4P3BPSvv10bl7cODItxQabc94777+StO+/vCkef/9Q3q6r3nYSu/NjIY0sAcRmrtE1oQsLb/SKQDowPEANFpBjkXsHvcQGGRu92JzpG/JIBsrOMIAAgwSQtdkWnyalBs/hL3pVcGxMCFPvx2J/QTsGFvq4lpc1+eMYyM4o4YLooCEf16QyLQj9OXxD9czI0D4v3uuvwPelskAIfQ+O6r/BfkLoO8JvgB6hwYrtyyaT5cS6ddZ/uv95EEIIIYQQ8v4QHxnzP7kZWT8/WLrskZtroxMC930l5U0Ck9F+/eUXeXuqp+8bk8kqOnM3esQGvSmQEleWZkYu+lFmhr4a3IZoQCL0YoNSLWRP1H0s1PEYbkOMkO1BBqIxJU8kRsWIPck5Xs39kAlIiW/GBUKDc0EA8DyOC+l4kaAgICkoWcPrvYTCXUJnFKpnRoYmWnivvwIy6JEmLYx6cPqKKuX3j+9Jk5ofwhwhVZrYlLn/WRBCCCGEEPL+ERUZVddYu/uRlJvxGSk3N7RFua+kvGk8+vob8d31L+Rtq8X2rCI+TYoNMgaq5EyfpYG0KFFBJgTSoPa8wWMqi4PbCLUHjrqP3hk0xGNS2nRLu0gIjZSZGzWSGYHSMsgLxMlo4Q/pgSTgmnBule2A+Chh8H3P+xKu70aTmowijN3+JSkipshkMu93/3MghBBCCCHk/SUqImpiuK3jCeQDG3VijxspN37I3GBvG8gNbhflbLgTbHPI4QHYrR/ygIZ+fZYGWQwlDiqzArFQJWJ4Dq9RC3U8r6QIgVHQGCeNxftMfaMYrd0n4p1hoix6vZfcICAqyJ6oCWzPC9WfAhFSmRaVfVH39VkTiJoSoJeVtr3LUFLTmV2CLNbj7YWlu0wmSw/KEt3/FAghhBBCCHl/wcI2yBEy19fU+hME5P6FJTlU4IupWbG8cH6VrLxuoM/mm88+F9dOnhYWs22lrw7jkjvlVC5sDAmpUZPO9BKjbqvJaXgM9/G4Wqzry9gQKA2DgKB3BJtpYnQ0FvOZoVFScFqLKjyvla/XjotsDARHjZF+nVACoxcbiJYSHlyrvgwN16qeU4HPr38/QsmR+txvE2Nbd8upcUpqxnfU39xZXnk1JSHxGqWGEEIIIYT84Qh2BndUl5XfvHn2nKGgvGl8e/WaZ4hA0+66R0GBzpUTvQMya9NXXCVLy5RU6MvOIAL4i8U/Fvlqoa4eV6F/j+yzGZ+Wo5xxH1PTMLAA+9xsi0sVEYFBoio5w+v9CAgRrgMiAsnyh1AYBURMyZAKnM9XbJQcQeqUFEG+1AAAZJBwzUbnUIGBCf0lm2UvDUrPerTvYXJ/0/ns1PQf1scm9FNqCCGEEELIHxbsY+J0BN1q2bP3GjIsvpLypoGSNGzcidtbysqfhQSFiI6CTaIrt0wu4pGhwGJcSYs+E4PFvL5cTJ/VQfgOAzjdPeBZ9M8f6pKZIWQrENi8Mz0uUcQGhYmmkkrPe1TguMigQCgQuK2Xqv9k4DPhe4DYqCwTvq+z2vd3oq3bVYZXd0AMVmyTmTC8B6KH60fZ3WRH94+xkVEPEqKjne6fmxBCCCGEkD8u2MAzIMBca7HY7melpv/iT8FRkRyf+DTGGSpLxlRGRl9mhkU8Fu64rR8ogPDN4OhL2RBTdQflY7g9Xd8oR0IrsWlLLxDzrV2iLq9YoN9nfXiU6K1ySYBvIGuD4+J8EAiMTsZtlTVB6Ptp9Nf0LgPnxeecbWgRp3sPi0tTv01kw+2FgeGntRWV81ar7bTZbP67+2cmhBBCCCHkw2C0o/tAbkaWWF703942KiKCQ7+PcQRL2YDAQCKQdTk/7BoMgMU6JAK3kW1A34xayPuKDrIYkA11f6SyxqsP5/zIEdFbsElKlNysc3eDzORgv5uCiHjhsAaKjJj45wqOCpX9UFkTlLktTc6IixPTYnFsUk57U0KBwPX7ihDei2O8bIz06wZGWit500dnbtk9TeC6MPmMpWeEEEIIIeSD4/r1639GtmZ+aNRQTN42Qp0hP6CZH4vvC2Ou0jIs+FFWhYW6fgS074hnZFFURgYBSUCfjboPeVnUJMNTjtbSqR2vWXRml3peD/HpyCgUrdr5UZ6WFRYjUB6XFBEjDm3c7DnWi0JdM8QLsgVBU1kdiBgyQ7Pa51AihIDk4HlcL+QH5W7q9ZA1KT2aQBmd70WBz+wrNYfyShc1oZk3mSyR7p+VEEIIIYSQD4vBlraYhNh48dXFJUMxedtw2h2Pk4PD5QL8vDtjI8XmsCvzopcZPI7Fv1rE68vUVOgnpyGUSOA2+nWQUenZUO71/HjNPi8RONrcLkqT0kWgxS7iwiINe3BeFvqeFogZRAfXChGD4Pi+Xn1uJUdSerT3QLzwflznq8iOGuWsoimz8JomNWctFss/3D8pIYQQQgghHx61lZun67ZsE3dOLxiKyduG3Wr/NTs0Wi7CFwaG5eIdgdtYqCN7gYU+bmPxD3FRi3gs8uUkNN1iXz9ZDeEqazviuX+qq1/2oaj7kB3IgxIBTA0b214v5hoPyRK1kqgEEWi1i5yUdDG476CUErxHvf91AiKGLBOyNZAWtfHoi8rRZDZof4srywNBmjoqzmvSg8+B/Xkwwlm9Frc7sop1n6XwicVsnQsIsP7L/XMSQgghhBDyYVKQnXNntL1T7mdjJCZvG0F256PUkEi5EEdzvxKbM9qiH4t1fcbFt9QM4TsJzbdcDQFxgSDgNuQCvTb65yEYw1U18hpQyjVSXSsujE16BAFRlZguwpyhIj4qRjTW7JLHxPsgKrhe/fFeJSBjkBocA58Jf9VEuJcFrg/yhb15FkcnxXxrhzhctlVKmf6a0yNjOsxmS7X7pySEEEIIIeTDZX1cwi/np6bF58MThmLythEeHPZ9vCYMWIif6hmQkoJQGRspNm3dUjhwX2ZodBmOVZPQdBPVVPgOHUDGRF8OBtk5NzQqxUA9hlKw0a27vUQBUROfIVJCIpBpEjlJqWKkoUm+VvbJjI57ZEcvW68SkByUnCEjhSzVy0rO1Eab2Jtnona/ODc8Jnt52t0ZmwOZBYsBAZbLHBRACCGEEEKIRnhI+ArGPH/WvzbDA5JjE+6H2pxyMY6FOSaVQU4WR1wlZxCbj1s65LQv3IdE6DMkKuuh7iP0GRqEfi8cBKRGPz0NgXI3CIK6LzM/PYc9QoPA5p7qNgYNbErPRcZJhDmCxaa0bClIuB7IFjJJcoCArj9Gf77nBcrtcC24XrzveYIz4s4w6ePI9jrtcw2LvsKqJxaTdZYlaIQQQgghhLgxmSxSQK70DokHS5dXicnbRvu+hoc2i00uzKf3HBTT9QelxCADggW8FJvmds9Gk74ZGl9pQUAM9GOgERAMfamXHC2tiYi6jywQxjSr/hkIBY7blbdRXltfUZXMGskd/N0lX/J6taiOTRExjlBhs9hFdtx6z7hoHEP1x6isDq4D168fcGAUuB68D9f5vBI1jK1WUoPAdQ1X7vh1z+bq76xW+3b3T0gIIYQQQgiB2Ny/sCTF5t55/+9jg7BYbM8qoteLsa11Yq65Qy7QIRnjO1yLe2RsDm/cJhfz+mECKnz7bJAdgUjoX+ObpTF6jW/2BxI1s7dZSoMSKxWDFdul6JzqHvCIxb712SItJEoTHJuICg4T+ws3er0HAUnBcVFyhuvGOX1fow8IEGRooX/YI10q2tMLPeeG5CCLU19QuishJu6Hw01N/+X+CQkhhBBCCCEQGwgNxGatJqPt3b7zcaAtcOVQQbk40zcoF+oQDJW1ON7aJQbKtsjFPARGP+UMgdcg1H2VbdH34uAxlKjp5cC31wahz+yoQQO4nrFtdV6vU4HzqL4WFZimVqaJmtMaKKJCI8XW/ELP6yEfql9I9hJpnxPXpZ/kZhSTuxu0zz3mKbHDMfTnhGgNb9s1itHOZrP57+6fjxBCCCGEEAIgNtjDBmJze/6koZj4I2qrtiBzs9K4w7Vz/smOXjGuSQjKtk519Ym+ItdeMhAU9K7oF/0QEN/9bCAMvtkQ1fuCY+C+0fvkSGntMfUayI8SEaPAJDe9ZLSl/ZZFQezbUCayklLksIGy1AwpSChrQ/O/Oi5kBZPccF59b5A+IEQDpVtklgmvQQZLnUNK37Y9Z80miyY2pv92/3SEEEIIIYQQhc1qX1ledGVs1mrks4oz4xOQG7E7MVPMNrSKKU0yVHlYV26ZZ5HvuwknApkTfTbGaOwzRAb7wOgb+X33vUHo3yuzNj4la/pAxgd7yijJwD4y/cWbRWd2iecxlNcdKtssop0hUnAwaGC4aqf8TPoSNylaI969P/rAsY5oYgQBghzhvlv4rtvMtuaAAIvT/bMRQgghhBBC9MTHxP6Acc9XD4+KG0emDYXEnxHscD5OD4mS/Tbop1G9MBAFtcA3KiHzFRSUoclyNHfmRQVKy84e/q3XBjKEUjDf1+mPh/4W3/Pp4+L4tOjMKZWigZ3/8ZgrM1MpH0MvDErlUC62OylLhAUGi+DAING60ZW5GSip9hwL70FWyShzg2P15JWL423dcsgCbmuPXw+yO7YEBJjz3T8ZIYQQQgghxJfMlNQvJnt6xbXRCSk3RjLizyjIzLkVbHXI/VkwQAALeogHBgqo0i2jAQLoi9ELCwJC5Dtm+djBQ+Ly9KyXyPj26CAgRqo0zKhkTR8nOnrF5K4G2cA/tnW313MoGcPjkBvspQPxgaBUJqQKu8UmtmdhL5qNMpQIYf8cXLv+GnFcPIdASdqi9ntorztvt9oPUGoIIYQQQgh5CYU5ufMd+xvEjcmjshwN/TZGQuKvmBsa+cFitsgG/KXxadFXXCV7aiA2gxWuyWiQDciOWvQjIAEXxryHA/hOQlOvuzQ1Kzft1D9uJEFo7leCYZQlUiEnl2mvwzUaPY9yM4gNhgxgilqvu4ysITlXODWJq0jLEp3ZrowPAiI039LptakoRmCr5yFBS1NHVwJtgYdMJkuk+6cihBBCCCGEPI+SvLwDdVu2yf4aiM3ywnlDIfFnREdEPkoLiRTH23vEcOVOcWlyRnTmlMm+ErXQN+qzQeZEPzBAyo7PJDQEGv59e3JwG1kZ39fK4QXd/fJxo5I1FdjMU20iahRo/peZG01uMPmtt2CTlBQIHORmR1a+V19OX2GlVymdyvRAaoa21h7JSkn7NiIsIsH9MxFCCCGEEEJeRNmGwsDcjCxx5+SZNZ+MpuLKx8dFoC3w2eacAoENMDGCGZO/9AME0LCv36gTgUyOLNHSTTFDZkaf+UCgbO3C2KQUFq/HDfa2QahSNaOSNRVT2nX6lsL5BnpsIDcos0PmBn8hK3sTs4TdYl8ZqNohsz5KbiBAStR68stlPw6kxmKx9pvN5n+7fyJCCCGEEELIy3A4HH8Jcgat3Du36JqMNjNnKCP+juunzghnYNDTytwCMdfYJibcPSxKEmbqGw0lZGFgWE4OU/efl2lBxufCkclVTfrPkxc8hhHUeJ9RYz8CWZuZvcYTzVSoMc2QGoiLGjpQEpP4MMwR9HW/Jj8qc4PPjF4iiBreN7B5Z7PZZJ3hSGdCCCGEEELegNjomO8wGe2z/nczGU1F74HGr6wWqxjbXi8+bmqXi32UdEEQRqprxKXJo6uE5diBVpml0W+oaTTSGdmes4eHDfepMeq3QUBuIC+q78b3eQgPpq75DhDwDWSf8FlQXobMTZt2u359tggIMD+ODAr9enBLrezLwT4+kB/tszzamVNYYzKZ59ets/7T/bMQQgghhBBCXoe8jOxpDBC4PjYl5cZIQtYisH+O1WJ7Vp2cqQnIsJQBNRoZ8nBGExbfhn4IBzI0g+WuQQMIo6lmeB16WE73DckhAXq5wUQ0jFz27eFBQG4gQ75lbCrmGttlhkkvVkahJqCh1A6B2zaz7QGGAVjNthtOm/N8Wmzi0uai0mWrxT4HqTGbzX93/ySEEEIIIYSQ160wtlAAAAp0SURBVKWioCCtLL/QM0Dg3tm1HyCgYv+Omh8DrXY5IQ2TxTqzftvPZrxm36qpZ4jZhkNyrLNeLiAqEBj96yAn861dsrwMpV7655B9QWbGqOwM71uamJbn8H0OgXI49NO8aJgArg39NPhMGGuNkrRgu/OzgADrvz766KO/4i8kB6Occdv9UxBCCCGEEELeFCy0w0LCni2fPvfOBgjowxnoeLK1qEz0l1SLtrR8z9jnocrtcgiA7yQzBGRhqOK3Xf2N9rlR/TcoO8NzOL7+eUgNMj2Ttfu9HkfMNbWLS1NH5Vhm3+cmdzfIyWudmcVem2/qAxmntoxCmamBoM02tAiHNXCREkMIIYQQQsgakhAde/+Utsi/0j8svpiaNRSQtYr+5uaLdmvgyuGddVIE0FyvsjEoRZtv9d6TBjGzt1k+py8xQ+na0f3evTMya9PSJaePYdIaJo/pMz2yb2b4iBjfudfrfYiZ+ibZ53Oqc3VZGuQGZWty/5qMIk2aNovhqp3uQQBbvUY74/70oc4nJpPlusPh+LP7KyeEEEIIIYT4m5yMzM6Dtbtln83nw+OGArJWMdnbd9ZqCbyUvj7FIwPYuBMCgazM4ujkqmZ+ZESQtUEvi3oMGRq8Vv86/dQ0DB34uKVD7hWjHwCAnpuzg6MyswM50b8fz10cn5aZnYnd3pkdNP9DbtQ1Py/6SjavlOXl3zGZTInur5sQQgghhBCyFmSmpv7f5ITEZ6rP5quLS4YSshYBsTGZLFMb8woeVKVkeYQAmQ5kV9DrMtvgPUQAMV3fKEu8MIVMPYbmft/eGP1eN66+m07RkVXsmcCmAuOe0T8zVLF9leAs9I+IS9PHxKmuAa/HZ/Y0ymNjY069zKhoSy0QxXHJzdrn63F/1YQQQgghhJC1JDw0/NGliRkpNtiw00hC1iKU2JwZHrMnxSQ8ronP8IgBSseGq3bI7Ixvj8xoda18HBt7qpI0ZGaw4SfkRL0Oj8kpaJqE4D5EB2OYO9wlZPrSNAwgwFCByV0NontDhXweo5khT4c3bpEjpNF7c+zAIVm+hveObt0tzg6NyulnvQWb3EKjRUbRj9HO0PaAAMswS9AIIYQQQgh5R2SmpM/1HmySfTbI3BhJyFqEEpvrU1N/nu0fuBrlCP6pISnHIzeIyV0HZHZGLzEINP7PNXe4+nLc5WUz+5plP43+tRAWyI16H3puFtwDBdAjgyEA6v2ybK2tWw4umGs8JGUFvTTqWrD55sy+Jvk8BAkShAwPHkNJ27kjk6Jh+04RGhz6KCDAnOH+egkhhBBCCCHvgrzMzBiMfUafDcJIQtYilNi4L+NPFovlH9HO0J8bU/K85OZUz4AsT2tLK5A9OBARCMWpzj45flkvN9i0ExkdSAuew2MnO3tltkbJDWRnceSI+Li5XY5jxnEhMZjK1l9aLTM62DwUsoLMECRnqHKnJyuDwPVAaLRrW+lvaPy1OHeDCHIG/2I2W6oxbc79kQghhBBCCCHvCpRLOR3OZ9enj8msjZGErEX4ig2A3PhmbiAfkAzVz9KWVija0gtFl+5xjFiWe8xU18hNP5WEoKcGWRdkclRJmkdw9rdIccGeN2Nb6wz7ZZClgeTIDTy1c12eOSZm+wZEfdXWHyMcwSe167+LkrN168wmlp0RQgghhBDyH2Z9fOLdYz0D72Sjzm+uXJV/jcQGrFtn/WdIoPNBdXzqihKM3qIqWf7lKx8Qko+bO7weg4xAbvSvhdyc6RuUx1Gyox4fqa6VZW3YLBTnQIweaHraVLH1YV5UwrWcyNirUc6QhSC78xO3yFwOCDDXQmaYnSGEEEIIIeR3hBr7/Fn/qLg5d2KVjPgzvrt2Xf59ntgACIP2XI/VYvsOO/cjIoPD7m4pKHnmW6qG6WTI1ugfQ6mYrwhBePCY72sRB9Pzvy+KSToXGx550Wy2/mK3Ob4MC4m4rF1DmSYx+ZAYbLJJkSGEEEIIIeR3DMY+pyQmiRvjM+LG5NFVMuLP+P7Gl/Lvi8RGAZGAUPwW5ny7xf51UVTik5aUDVJKuvLKH23KL/rVd/AAsjOTTW3PalKyH9evz5aPQXQgQhhIgOfb0gtWCmKS2lyZGHOt2Wz+N0vKCCGEEEIIeY9xOpy/fjZ1dM036nx485b8+ypiY4QmHn9BJsVmtj2IdITctFvtx0wm836rxbYcZg++lRkR+2m4I2gBsmK12m8nxMR/hfIx7b6AFCH7ExsR/VVcVPQjPKZFD2WGEEIIIYSQPwjpSclXx9s71nyjzh9u35V/31RsFK5yNdN/I8uC+5ATd1YnA48ZlY0FBAT8TWV/MKjA/TAhhBBCCCHkj0JBbu7eui3b5GS05YW1GyDgL7EhhBBCCCGEkFWoPhvsZbOWAwR+/uqB/EuxIYQQQgghhKwJVqt9BfvZfKGFr5D4Kyg2hBBCCCGEkDUF+9kc7ekTnw9PrBISfwXFhhBCCCGEELKmFGbnHT5QUyv7bHyFxF9BsSGEEEIIIYSsKYU5eevL8gtlxub+hbWZjEaxIYQQQgghhKwp2CMmyBm0gh6b5dPnVkmJP4JiQwghhBBCCFlzQoJCn1wenxa350+ukhJ/BMWGEEIIIYQQsuakJibfmu7pEzdn5lZJiT+CYkMIIYQQQghZc/Kz88Zb6urXbOQzxYYQQgghhBCy5pQXlpZtKi5lxoYQQgghhBDy/lKSm/v/UhKTxM3Z+VVS4o+g2BBCCCGEEELWHIfD8Web1b5y58Rp8dVF/498ptgQQgghhBBC3gnREdE/L05Mintnz68Sk7cNig0hhBBCCCHknZCZkvrFZHevuHN6YZWYvG1QbAghhBBCCCHvhPys7GMd+xvWZJPOH27flX8pNoQQQgghhJA1pbywuH7Hpqo1KUWj2BBCCCGEEELeCeUFBdGF2Xni3vmLq8TkbYNiQwghhBBCCHknJCcn/1d4aLh4sHR5lZi8bVBsCCGEEEIIIe8MjHxePn9hlZi8bTy8eUv+pdgQQgghhBBC1hyMfF46eszve9l8f+NL+XdhfOK2yWQ+6z4dIYQQQgghhPiftKSUO0cHDq+Z2Fw+NnfTZLJcd5+OEEIIIYQQQvzPhszshd7GZr/32Xx79Zr8e3nu4/sUG0IIIYQQQsiaUppX0LNvR43fMzbffPa5/Lu8eFEEBJgfuU9HCCGEEEIIIf6nvLC0bFNxqd8zNt9cueq5bTJZhPt0hBBCCCGEEOJ/KovKAzJTUr2kxN9BsSGEEEIIIYSsKSWZG/53TGS0oZD4K6wW262AgIC/uU9JCCGEEEIIIf4HGRUjIfFXBDuDl9ats/7TfTpCCCGEEEII8T+hIWG/fn78hKGU+CPio2PPmM3mf7tPRwghhBBCCCH+x7VJ56yhlPgjstPSj5tMlkj36QghhBBCCCHE/6QmJn89PzRqKCX+iMqSsvmAAHO++3SEEEIIIYQQ4n9y0zOvjbZ3GkqJP6KzofGcyWRpdZ+OEEIIIYQQQvxPYU7ufMf+BkMp8UcsTEw9NJnMZ92nI4QQQgghhBD/YzKZEhHuu2uCyWS57r5JCCGEEEJ+1/zpT/8fC8MUon78jqYAAAAASUVORK5CYII=;" vertex="1" parent="1">
          <mxGeometry x="109" y="213" width="597" height="240.4" as="geometry" />
        </mxCell>
      </root>
    </mxGraphModel>
  </diagram>
</mxfile>
